<svg xmlns="http://www.w3.org/2000/svg" width="63" height="63" viewBox="0 0 63 63" fill="none">
  <path fill-rule="evenodd" clip-rule="evenodd" d="M45.5239 37.4006L49.9458 48.8089C50.1593 49.3604 49.8836 49.9868 49.3321 50.2003L47.1351 51.0517C46.5836 51.2652 45.9585 50.9894 45.7437 50.4379L41.3216 39.0297C41.1081 38.4783 41.3839 37.8518 41.9354 37.6383L44.1311 36.787C44.6828 36.5721 45.3092 36.8491 45.5239 37.4006ZM33.3396 60.3178L33.6912 60.5198C34.1291 60.7677 34.6482 60.6669 34.8976 60.2195C35.1353 59.7932 34.9881 59.2707 34.5599 59.0308C34.4033 58.943 34.2462 58.8389 34.0855 58.7479C34.0292 58.9681 33.9469 59.1819 33.8391 59.3834L33.3396 60.3178ZM27.4396 55.6048L25.855 58.6736C25.8526 59.0137 26.0325 59.3268 26.334 59.4881C26.7152 59.6919 27.2011 59.5917 27.474 59.2579L28.9506 56.4202C29.0037 56.0445 28.8183 55.6579 28.4813 55.478C28.1471 55.2996 27.722 55.3551 27.4396 55.6048ZM24.2802 53.7949L22.397 57.1004C22.1777 57.5397 22.3454 58.0917 22.7824 58.3172C23.2898 58.5793 23.764 58.3773 24.0441 57.9L25.7019 54.6894C25.7581 54.3118 25.5727 53.9219 25.2335 53.7407C24.9315 53.5798 24.5621 53.6034 24.2802 53.7949ZM21.1367 55.3082C20.8593 55.4923 20.4835 55.5175 20.1884 55.3597C19.7458 55.123 19.5777 54.5616 19.8142 54.1195C20.2041 53.3907 20.5939 52.6619 20.9837 51.9331C21.2187 51.4938 21.7858 51.3253 22.2237 51.559C22.6286 51.7751 22.8097 52.277 22.6422 52.7026L21.1367 55.3082ZM30.6901 57.3392L29.2639 60.0802C29.2507 60.4277 29.4331 60.7607 29.7417 60.9257C30.1838 61.1622 30.7451 60.9944 30.9817 60.5518L32.1031 58.455C32.3377 58.0163 32.1648 57.4477 31.7289 57.215C31.3959 57.037 30.9727 57.0916 30.6901 57.3392ZM26.2471 45.849C27.8179 47.203 29.6387 46.4665 31.3739 45.764C33.2399 45.0086 35.0318 44.2831 36.8106 45.297L43.0089 48.8299L40.2676 41.7576C39.2864 41.8682 38.3642 41.4913 37.3562 41.0792C35.881 40.4762 34.1525 39.7698 31.8248 41.3665C30.483 42.2835 29.3939 43.6002 28.0328 44.6224C27.4583 45.0535 26.8621 45.462 26.2471 45.849ZM30.7142 55.2039C31.3738 55.0669 32.0576 55.1672 32.6517 55.4847C32.9688 55.654 33.249 55.8778 33.4827 56.1509L36.7861 58.0208C37.1984 58.2475 37.7201 58.0876 37.9461 57.678C38.1768 57.2586 38.0139 56.7399 37.6008 56.5073C36.031 55.6278 34.4651 54.7294 32.8955 53.8462C32.4219 53.5808 32.2532 52.9817 32.5186 52.5081C32.784 52.0345 33.3831 51.8657 33.8567 52.1313L39.6325 55.3813C40.0456 55.5984 40.5598 55.4452 40.7849 55.0359C41.0156 54.6166 40.8527 54.0978 40.4396 53.8653C38.9733 53.044 37.5068 52.2225 36.0483 51.3875C35.5769 51.1178 35.4134 50.5169 35.683 50.0455C35.9527 49.5741 36.5535 49.4105 37.0249 49.6802L41.4165 52.1592C41.825 52.376 42.3326 52.2139 42.5567 51.8136C42.7962 51.4003 42.6163 50.8655 42.2107 50.6342L35.8416 47.0039C34.8902 46.4617 33.5293 47.0125 32.1122 47.5862C29.4812 48.6513 26.704 49.7756 24.0971 46.4212C23.6545 45.8517 23.8124 45.0095 24.4407 44.6425C26.05 43.7033 27.5749 42.6191 28.8887 41.2915C29.0671 41.1112 29.2507 40.9341 29.4387 40.7626C28.3094 40.4393 27.2799 40.6804 26.3227 40.9047C25.2298 41.1609 24.207 41.4005 23.1217 41.0777L19.6604 48.91C19.9253 49.2185 20.0753 49.5886 20.1801 49.9808C21.0559 49.3893 22.206 49.3264 23.1466 49.8285C23.8686 50.2138 24.3881 50.8878 24.583 51.6809C25.1113 51.6398 25.6566 51.7436 26.1562 52.0102C26.7525 52.3285 27.2132 52.8402 27.4665 53.4666C28.1264 53.3299 28.8095 53.4299 29.404 53.7473C29.9996 54.0656 30.4616 54.5778 30.7142 55.2039ZM30.5156 14.9842H32.4844V16.9529H30.5156V14.9842ZM34.5251 14.9842H36.4939V16.9529H34.5251V14.9842ZM26.506 14.9842H28.4748V16.9529H26.506V14.9842ZM30.5156 11.407H32.4844V13.3757H30.5156V11.407ZM34.5251 11.407H36.4939V13.3757H34.5251V11.407ZM26.506 11.407H28.4748V13.3757H26.506V11.407ZM30.5156 7.82961H32.4844V9.79836H30.5156V7.82961ZM34.5251 7.82961H36.4939V9.79836H34.5251V7.82961ZM26.506 7.82961H28.4748V9.79836H26.506V7.82961ZM30.5156 4.25239H32.4844V6.22114H30.5156V4.25239ZM34.5251 4.25239H36.4939V6.22114H34.5251V4.25239ZM26.506 4.25239H28.4748V6.22114H26.506V4.25239ZM45.4906 17.207V19.1758H43.5218V17.207H45.4906ZM45.4906 21.2165V23.1852H43.5218V21.2165H45.4906ZM45.4906 13.1975V15.1663H43.5218V13.1975H45.4906ZM47.2106 9.61318H41.1866V26.7696H47.2106C47.5495 26.7696 47.8259 26.4932 47.8259 26.1544V10.2284C47.8259 9.88954 47.5495 9.61318 47.2106 9.61318ZM19.4781 9.18793V11.1567H17.5093V9.18793H19.4781ZM19.4781 17.207V19.1758H17.5093V17.207H19.4781ZM19.4781 21.2165V23.1852H17.5093V21.2165H19.4781ZM19.4781 13.1975V15.1663H17.5093V13.1975H19.4781ZM21.8133 26.7696V5.60369H15.7893C15.4504 5.60369 15.174 5.88006 15.174 6.21893V26.1544C15.174 26.4932 15.4504 26.7696 15.7893 26.7696H21.8133ZM24.3972 1.9668C24.0584 1.9668 23.782 2.24316 23.782 2.58203V26.7696H28.5316V20.1464C28.5316 19.5372 29.0301 19.0386 29.6394 19.0386H33.5822C34.1914 19.0386 34.69 19.537 34.69 20.1464V26.7696H39.2177V2.58203C39.2177 2.24316 38.9414 1.9668 38.6025 1.9668H24.3972ZM38.0155 33.3951H22.8909C22.3473 33.3951 21.9065 32.9543 21.9065 32.4107C21.9065 31.8671 22.3473 31.4263 22.8909 31.4263H38.0155L37.436 30.9739C37.0092 30.6405 36.9334 30.0242 37.2668 29.5972C37.6002 29.1704 38.2165 29.0947 38.6435 29.428L41.4584 31.6263C41.9706 32.0112 41.9851 32.7838 41.4732 33.1835L38.6435 35.3933C38.2166 35.7267 37.6003 35.651 37.2668 35.2242C36.9335 34.7973 37.0092 34.181 37.436 33.8475L38.0155 33.3951ZM18.0186 36.6065C18.2588 36.0652 18.8967 35.8174 19.438 36.0576L21.5918 37.0093C22.1331 37.2481 22.3796 37.8874 22.1407 38.4274L17.1952 49.6183C16.9564 50.1596 16.3171 50.4074 15.7758 50.1672L13.622 49.2154C13.0807 48.9766 12.8342 48.3387 13.0731 47.7973L18.0186 36.6065ZM19.6506 37.8344C19.2469 37.8156 18.9043 38.1278 18.8856 38.5315C18.8669 38.9352 19.1791 39.2778 19.5828 39.2965C19.9865 39.3152 20.3291 39.0032 20.3478 38.5993C20.3665 38.1956 20.0544 37.8532 19.6506 37.8344ZM43.8367 38.5521C43.4325 38.5521 43.1048 38.8798 43.1048 39.284C43.1048 39.6882 43.4325 40.0158 43.8367 40.0158C44.2409 40.0158 44.5686 39.6882 44.5686 39.284C44.5686 38.8798 44.2409 38.5521 43.8367 38.5521Z" fill="url(#paint0_linear_1_1151)"/>
  <defs>
    <linearGradient id="paint0_linear_1_1151" x1="31.5" y1="1.9668" x2="31.5" y2="61.0329" gradientUnits="userSpaceOnUse">
      <stop stop-color="#1876BC"/>
      <stop offset="1" stop-color="#922B8F"/>
    </linearGradient>
  </defs>
</svg>
