<svg xmlns="http://www.w3.org/2000/svg" width="252" height="49" viewBox="0 0 252 49" fill="none">
  <path d="M68.0274 39.8585C66.1788 39.8916 64.3635 39.3648 62.8197 38.3475C61.2769 37.3044 60.0502 35.8577 59.2734 34.1652C58.3939 32.2439 57.9604 30.1487 58.0052 28.0362C57.9631 25.9869 58.3862 23.9546 59.2425 22.0923C59.9868 20.4678 61.1578 19.0756 62.6308 18.0642C64.1152 17.0828 65.8628 16.5759 67.6419 16.6109C68.974 16.5857 70.2937 16.8708 71.4966 17.4435C72.5856 17.9738 73.524 18.769 74.2257 19.7564L74.5765 17.2007H79.7649V39.2726H74.5803L74.2296 36.37C73.5817 37.4305 72.676 38.3096 71.5968 38.9257C70.5111 39.5485 69.279 39.8705 68.0274 39.8585ZM69.1491 34.3579C69.8192 34.3787 70.4842 34.2342 71.0852 33.9371C71.6863 33.6399 72.2049 33.1993 72.5952 32.6541C73.4483 31.5208 73.8749 29.9854 73.8749 28.0478C73.8749 26.1102 73.4483 24.5798 72.5952 23.4569C72.183 22.9304 71.6565 22.5047 71.0554 22.2119C70.4544 21.9191 69.7945 21.7669 69.126 21.7669C68.4574 21.7669 67.7976 21.9191 67.1965 22.2119C66.5954 22.5047 66.0689 22.9304 65.6567 23.4569C64.8036 24.5824 64.377 26.1127 64.377 28.0478C64.377 29.9828 64.8036 31.5183 65.6567 32.6541C66.0541 33.2005 66.5799 33.6406 67.1876 33.9357C67.7953 34.2308 68.4663 34.3718 69.1414 34.3463L69.1491 34.3579Z" fill="url(#paint0_linear_1_1132)"/>
  <path d="M92.5702 39.2649C90.7713 39.2649 89.3194 38.7163 88.2144 37.619C87.1094 36.5217 86.5607 35.0698 86.5684 33.2632V22.2272H82.9296V17.193H86.5684V11.384H92.84V17.193H97.323V22.2272H92.84V32.18C92.8321 32.4011 92.8695 32.6214 92.9497 32.8275C93.0299 33.0336 93.1512 33.2212 93.3064 33.3788C93.4569 33.5317 93.6372 33.652 93.8361 33.7322C94.0351 33.8124 94.2484 33.8509 94.4628 33.8453H97.9898V39.2649H92.5702Z" fill="url(#paint1_linear_1_1132)"/>
  <path d="M111.003 39.8587C108.958 39.8972 106.939 39.3888 105.156 38.3862C103.467 37.4217 102.079 36.0072 101.147 34.3002C100.153 32.4573 99.6534 30.3881 99.6976 28.2946C99.6535 26.1778 100.152 24.085 101.147 22.2158C102.079 20.4986 103.466 19.0715 105.156 18.0913C106.953 17.1125 108.967 16.5997 111.013 16.5997C113.059 16.5997 115.073 17.1125 116.87 18.0913C118.552 19.0757 119.932 20.5022 120.86 22.2158C121.856 24.0846 122.356 26.1775 122.313 28.2946C122.352 30.3807 121.851 32.4414 120.86 34.2771C119.931 35.9804 118.551 37.3944 116.87 38.363C115.084 39.3783 113.058 39.8949 111.003 39.8587ZM111.003 34.439C111.686 34.4527 112.363 34.3052 112.979 34.0085C113.594 33.7119 114.131 33.2743 114.546 32.7314C115.463 31.5981 115.922 30.1269 115.922 28.3177C115.922 26.4598 115.463 24.95 114.546 23.7885C114.128 23.2462 113.592 22.8071 112.977 22.5049C112.363 22.2027 111.688 22.0456 111.003 22.0456C110.319 22.0456 109.644 22.2027 109.029 22.5049C108.415 22.8071 107.879 23.2462 107.461 23.7885C106.543 24.9475 106.085 26.4572 106.085 28.3177C106.085 30.1166 106.543 31.5878 107.461 32.7314C107.876 33.2726 108.414 33.7083 109.029 34.003C109.645 34.2977 110.321 34.4431 111.003 34.4274V34.439Z" fill="url(#paint2_linear_1_1132)"/>
  <path d="M125.485 39.265V26.1012C125.447 24.3499 125.854 22.6175 126.669 21.067C127.426 19.6517 128.558 18.4726 129.942 17.6595C131.397 16.8143 133.057 16.385 134.741 16.4183C136.296 16.4021 137.835 16.7465 139.235 17.4243C140.561 18.061 141.707 19.0206 142.566 20.2151C143.44 19.0276 144.589 18.07 145.915 17.4243C147.294 16.7479 148.812 16.4034 150.348 16.4183C152.021 16.3818 153.67 16.8115 155.113 17.6595C156.476 18.4795 157.588 19.6582 158.327 21.067C159.125 22.6232 159.522 24.3532 159.484 26.1012V39.265H153.174V26.1012C153.218 25.04 152.859 24.0012 152.168 23.1948C151.827 22.8228 151.408 22.5297 150.942 22.336C150.476 22.1422 149.974 22.0525 149.469 22.0731C148.961 22.0564 148.455 22.1478 147.984 22.3412C147.514 22.5345 147.09 22.8255 146.74 23.1948C146.38 23.5852 146.1 24.0429 145.917 24.5416C145.734 25.0404 145.651 25.5703 145.672 26.1012V39.265H139.389V26.1012C139.433 25.0298 139.05 23.9848 138.325 23.1948C137.969 22.823 137.537 22.5308 137.06 22.3375C136.582 22.1442 136.069 22.0541 135.554 22.0731C135.046 22.0564 134.539 22.1478 134.069 22.3412C133.599 22.5345 133.175 22.8255 132.825 23.1948C132.1 23.9848 131.717 25.0298 131.761 26.1012V39.265H125.485Z" fill="url(#paint3_linear_1_1132)"/>
  <path d="M163.439 46.2381V17.193H168.743L169.248 20.4464C169.951 19.2477 170.968 18.263 172.189 17.5978C173.389 16.9438 174.735 16.6044 176.101 16.611C177.915 16.5691 179.699 17.0829 181.213 18.0834C182.689 19.1026 183.855 20.51 184.582 22.1501C186.066 25.7671 186.176 29.8023 184.89 33.4945C184.369 34.8566 183.563 36.0919 182.527 37.1179C181.598 38.0259 180.49 38.7309 179.274 39.1878C178.148 39.6161 176.955 39.8394 175.751 39.847C174.584 39.8576 173.429 39.6197 172.362 39.1493C171.325 38.6908 170.415 37.987 169.71 37.0986V46.2381H163.439ZM174.436 34.6971C175.13 34.7233 175.82 34.5843 176.449 34.2914C177.078 33.9985 177.629 33.5602 178.056 33.0126C178.945 31.8896 179.391 30.3593 179.393 28.4217C179.396 26.4841 178.95 24.9422 178.056 23.7961C177.633 23.2433 177.083 22.8001 176.453 22.5037C175.823 22.2072 175.132 22.0661 174.436 22.0923C173.766 22.0715 173.101 22.216 172.5 22.5132C171.899 22.8103 171.38 23.2509 170.99 23.7961C170.137 24.9345 169.71 26.4764 169.71 28.4217C169.71 30.367 170.137 31.8974 170.99 33.0126C171.384 33.5528 171.904 33.9886 172.504 34.2821C173.105 34.5757 173.768 34.7181 174.436 34.6971Z" fill="url(#paint4_linear_1_1132)"/>
  <path d="M188.995 39.265V26.4867C188.995 23.3105 189.854 20.8692 191.57 19.1628C193.287 17.4565 195.746 16.6046 198.948 16.6072C199.283 16.6072 199.811 16.6264 200.536 16.665C201.265 16.7057 201.989 16.8037 202.702 16.9579V22.3545L201.311 22.1425C200.823 22.0743 200.331 22.0421 199.838 22.0461C199.076 22.0402 198.317 22.1573 197.591 22.3931C196.895 22.6256 196.3 23.0912 195.907 23.7114C195.483 24.3551 195.271 25.2995 195.271 26.5368V39.2766L188.995 39.265Z" fill="url(#paint5_linear_1_1132)"/>
  <path d="M215.134 39.8587C213.089 39.8972 211.07 39.3889 209.287 38.3862C207.599 37.4216 206.212 36.007 205.282 34.3003C204.284 32.4584 203.784 30.3887 203.828 28.2947C203.783 26.1772 204.283 24.0838 205.282 22.2158C206.212 20.4989 207.598 19.0718 209.287 18.0913C211.084 17.1126 213.097 16.5998 215.144 16.5998C217.19 16.5998 219.204 17.1126 221.001 18.0913C222.683 19.0757 224.063 20.5022 224.991 22.2158C225.99 24.0836 226.495 26.1765 226.455 28.2947C226.494 30.3807 225.994 32.4414 225.002 34.2771C224.074 35.9805 222.693 37.3944 221.012 38.3631C219.223 39.3809 217.192 39.8976 215.134 39.8587ZM215.134 34.439C215.818 34.4527 216.495 34.3053 217.111 34.0086C217.727 33.712 218.265 33.2744 218.68 32.7314C219.593 31.5981 220.05 30.1269 220.053 28.3178C220.053 26.4598 219.595 24.9501 218.68 23.7885C218.262 23.2462 217.725 22.8071 217.111 22.5049C216.496 22.2027 215.821 22.0456 215.136 22.0456C214.451 22.0456 213.776 22.2027 213.161 22.5049C212.547 22.8071 212.01 23.2462 211.592 23.7885C210.674 24.9475 210.217 26.4573 210.219 28.3178C210.219 30.1167 210.677 31.5879 211.592 32.7314C212.008 33.2722 212.545 33.7076 213.16 34.0022C213.776 34.2969 214.452 34.4425 215.134 34.4275V34.439Z" fill="url(#paint6_linear_1_1132)"/>
  <path d="M229.658 46.2381V17.193H234.962L235.467 20.4464C236.171 19.2477 237.187 18.263 238.408 17.5978C239.608 16.9438 240.954 16.6044 242.32 16.611C244.135 16.5691 245.918 17.0829 247.432 18.0834C248.908 19.1026 250.074 20.51 250.801 22.1501C252.285 25.7671 252.395 29.8023 251.109 33.4945C250.588 34.8556 249.784 36.0907 248.75 37.1179C247.82 38.0251 246.713 38.7299 245.497 39.1878C244.37 39.6158 243.175 39.839 241.97 39.847C240.804 39.8572 239.649 39.6194 238.581 39.1493C237.544 38.6908 236.634 37.987 235.929 37.0986V46.2381H229.658ZM240.655 34.6971C241.349 34.7233 242.039 34.5843 242.668 34.2914C243.298 33.9985 243.848 33.5602 244.275 33.0126C245.164 31.8896 245.61 30.3593 245.612 28.4217C245.615 26.4841 245.169 24.9422 244.275 23.7961C243.852 23.2433 243.302 22.8001 242.672 22.5037C242.043 22.2072 241.351 22.0661 240.655 22.0923C239.985 22.0715 239.32 22.216 238.719 22.5132C238.118 22.8103 237.6 23.2509 237.209 23.7961C236.359 24.9345 235.932 26.4764 235.929 28.4217C235.927 30.367 236.353 31.8974 237.209 33.0126C237.603 33.5528 238.123 33.9886 238.723 34.2821C239.324 34.5757 239.987 34.7181 240.655 34.6971Z" fill="url(#paint7_linear_1_1132)"/>
  <path d="M32.2315 4.90418C30.5763 2.19574 27.0396 1.34145 24.3321 2.99609C21.6245 4.65072 20.7715 8.18769 22.4266 10.8961L42.4849 43.7182C44.1401 46.4267 47.6768 47.281 50.3843 45.6263C53.0919 43.9717 53.945 40.4347 52.2898 37.7263L32.2315 4.90418Z" fill="url(#paint8_linear_1_1132)"/>
  <path d="M32.3794 38.2124C32.0594 37.5649 31.6778 36.9404 31.3001 36.3237L22.8429 22.5123C22.1413 21.3559 21.4166 20.1995 20.3759 19.3322C19.2201 18.4401 17.7906 17.9766 16.3312 18.0209C14.8719 18.0652 13.4731 18.6145 12.3736 19.575C11.6604 20.2855 11.0435 21.0864 10.5387 21.9572C9.59818 23.4503 8.69875 24.9703 7.84044 26.5173C6.29857 29.3505 5.34646 32.1953 6.29857 35.3831C6.69541 36.7219 7.35435 37.9685 8.2371 39.0504C9.11985 40.1323 10.2088 41.0281 11.4407 41.6855L11.514 41.7241C13.6957 42.8304 16.1935 43.1272 18.4524 44.0639C21.3203 45.2472 23.9145 47.483 27.0175 47.4714C28.037 47.4614 29.0389 47.2047 29.9377 46.7235C30.8365 46.2422 31.6054 45.5505 32.1789 44.7076C33.0452 43.3893 33.371 41.7881 33.0886 40.2362C32.9465 39.5322 32.7078 38.8512 32.3794 38.2124Z" fill="url(#paint9_linear_1_1132)"/>
  <path d="M3.72375 33.4365C2.72924 34.9527 1.81182 36.5125 0.971504 38.1161C0.246823 39.496 -0.184901 40.849 0.0772175 42.4179C0.334045 43.9714 1.17748 45.367 2.43345 46.3167C3.68942 47.2664 5.26206 47.6977 6.82677 47.5215C9.09718 47.2632 11.013 45.7907 13.1215 44.9196C10.6391 44.0241 8.41336 42.5354 6.63789 40.5831C4.86028 38.6152 3.82906 36.0863 3.72375 33.4365Z" fill="url(#paint10_linear_1_1132)"/>
  <defs>
    <linearGradient id="paint0_linear_1_1132" x1="316.971" y1="91.8775" x2="98.8764" y2="35.1905" gradientUnits="userSpaceOnUse">
      <stop stop-color="#CCE0F4"/>
      <stop offset="0.18" stop-color="#7AB0DB"/>
      <stop offset="0.35" stop-color="#2F83C3"/>
      <stop offset="0.43" stop-color="#1172BA"/>
      <stop offset="0.62" stop-color="#4555A8"/>
      <stop offset="0.79" stop-color="#6F3E9A"/>
      <stop offset="0.92" stop-color="#892F91"/>
      <stop offset="1" stop-color="#932A8E"/>
    </linearGradient>
    <linearGradient id="paint1_linear_1_1132" x1="318.952" y1="84.2607" x2="100.858" y2="27.5737" gradientUnits="userSpaceOnUse">
      <stop stop-color="#CCE0F4"/>
      <stop offset="0.18" stop-color="#7AB0DB"/>
      <stop offset="0.35" stop-color="#2F83C3"/>
      <stop offset="0.43" stop-color="#1172BA"/>
      <stop offset="0.62" stop-color="#4555A8"/>
      <stop offset="0.79" stop-color="#6F3E9A"/>
      <stop offset="0.92" stop-color="#892F91"/>
      <stop offset="1" stop-color="#932A8E"/>
    </linearGradient>
    <linearGradient id="paint2_linear_1_1132" x1="319.434" y1="82.4067" x2="101.34" y2="25.7159" gradientUnits="userSpaceOnUse">
      <stop stop-color="#CCE0F4"/>
      <stop offset="0.18" stop-color="#7AB0DB"/>
      <stop offset="0.35" stop-color="#2F83C3"/>
      <stop offset="0.43" stop-color="#1172BA"/>
      <stop offset="0.62" stop-color="#4555A8"/>
      <stop offset="0.79" stop-color="#6F3E9A"/>
      <stop offset="0.92" stop-color="#892F91"/>
      <stop offset="1" stop-color="#932A8E"/>
    </linearGradient>
    <linearGradient id="paint3_linear_1_1132" x1="321.273" y1="75.3255" x2="103.182" y2="18.6385" gradientUnits="userSpaceOnUse">
      <stop stop-color="#CCE0F4"/>
      <stop offset="0.18" stop-color="#7AB0DB"/>
      <stop offset="0.35" stop-color="#2F83C3"/>
      <stop offset="0.43" stop-color="#1172BA"/>
      <stop offset="0.62" stop-color="#4555A8"/>
      <stop offset="0.79" stop-color="#6F3E9A"/>
      <stop offset="0.92" stop-color="#892F91"/>
      <stop offset="1" stop-color="#932A8E"/>
    </linearGradient>
    <linearGradient id="paint4_linear_1_1132" x1="322.417" y1="70.9273" x2="104.323" y2="14.2403" gradientUnits="userSpaceOnUse">
      <stop stop-color="#CCE0F4"/>
      <stop offset="0.18" stop-color="#7AB0DB"/>
      <stop offset="0.35" stop-color="#2F83C3"/>
      <stop offset="0.43" stop-color="#1172BA"/>
      <stop offset="0.62" stop-color="#4555A8"/>
      <stop offset="0.79" stop-color="#6F3E9A"/>
      <stop offset="0.92" stop-color="#892F91"/>
      <stop offset="1" stop-color="#932A8E"/>
    </linearGradient>
    <linearGradient id="paint5_linear_1_1132" x1="324.83" y1="61.6376" x2="106.736" y2="4.95064" gradientUnits="userSpaceOnUse">
      <stop stop-color="#CCE0F4"/>
      <stop offset="0.18" stop-color="#7AB0DB"/>
      <stop offset="0.35" stop-color="#2F83C3"/>
      <stop offset="0.43" stop-color="#1172BA"/>
      <stop offset="0.62" stop-color="#4555A8"/>
      <stop offset="0.79" stop-color="#6F3E9A"/>
      <stop offset="0.92" stop-color="#892F91"/>
      <stop offset="1" stop-color="#932A8E"/>
    </linearGradient>
    <linearGradient id="paint6_linear_1_1132" x1="326.026" y1="57.0506" x2="107.931" y2="0.36361" gradientUnits="userSpaceOnUse">
      <stop stop-color="#CCE0F4"/>
      <stop offset="0.18" stop-color="#7AB0DB"/>
      <stop offset="0.35" stop-color="#2F83C3"/>
      <stop offset="0.43" stop-color="#1172BA"/>
      <stop offset="0.62" stop-color="#4555A8"/>
      <stop offset="0.79" stop-color="#6F3E9A"/>
      <stop offset="0.92" stop-color="#892F91"/>
      <stop offset="1" stop-color="#932A8E"/>
    </linearGradient>
    <linearGradient id="paint7_linear_1_1132" x1="326.607" y1="54.8032" x2="108.513" y2="-1.88383" gradientUnits="userSpaceOnUse">
      <stop stop-color="#CCE0F4"/>
      <stop offset="0.18" stop-color="#7AB0DB"/>
      <stop offset="0.35" stop-color="#2F83C3"/>
      <stop offset="0.43" stop-color="#1172BA"/>
      <stop offset="0.62" stop-color="#4555A8"/>
      <stop offset="0.79" stop-color="#6F3E9A"/>
      <stop offset="0.92" stop-color="#892F91"/>
      <stop offset="1" stop-color="#932A8E"/>
    </linearGradient>
    <linearGradient id="paint8_linear_1_1132" x1="30.0576" y1="-11.3127" x2="41.0781" y2="42.4871" gradientUnits="userSpaceOnUse">
      <stop stop-color="#CCE0F4"/>
      <stop offset="0.18" stop-color="#7AB0DB"/>
      <stop offset="0.35" stop-color="#2F83C3"/>
      <stop offset="0.43" stop-color="#1172BA"/>
      <stop offset="0.62" stop-color="#4555A8"/>
      <stop offset="0.79" stop-color="#6F3E9A"/>
      <stop offset="0.92" stop-color="#892F91"/>
      <stop offset="1" stop-color="#932A8E"/>
    </linearGradient>
    <linearGradient id="paint9_linear_1_1132" x1="10.4385" y1="-7.29596" x2="21.4629" y2="46.5077" gradientUnits="userSpaceOnUse">
      <stop stop-color="#CCE0F4"/>
      <stop offset="0.18" stop-color="#7AB0DB"/>
      <stop offset="0.35" stop-color="#2F83C3"/>
      <stop offset="0.43" stop-color="#1172BA"/>
      <stop offset="0.62" stop-color="#4555A8"/>
      <stop offset="0.79" stop-color="#6F3E9A"/>
      <stop offset="0.92" stop-color="#892F91"/>
      <stop offset="1" stop-color="#932A8E"/>
    </linearGradient>
    <linearGradient id="paint10_linear_1_1132" x1="-3.26865" y1="-4.4859" x2="7.75575" y2="49.3139" gradientUnits="userSpaceOnUse">
      <stop stop-color="#CCE0F4"/>
      <stop offset="0.18" stop-color="#7AB0DB"/>
      <stop offset="0.35" stop-color="#2F83C3"/>
      <stop offset="0.43" stop-color="#1172BA"/>
      <stop offset="0.62" stop-color="#4555A8"/>
      <stop offset="0.79" stop-color="#6F3E9A"/>
      <stop offset="0.92" stop-color="#892F91"/>
      <stop offset="1" stop-color="#932A8E"/>
    </linearGradient>
  </defs>
</svg>

