<svg width="48" height="48" viewBox="0 0 48 48" fill="none" xmlns="http://www.w3.org/2000/svg">
<path fill-rule="evenodd" clip-rule="evenodd" d="M31.0388 1.49285C31.1369 1.5368 31.2248 1.59769 31.306 1.67882L36.4203 6.79317C36.5015 6.8743 36.5624 6.9623 36.6064 7.06037H31.4954C31.2452 7.06037 31.0388 6.85407 31.0388 6.60372V1.49285ZM40.3719 21.0766L44.6015 21.0786L42.6644 24.4335C42.6278 24.4968 42.5603 24.5358 42.4871 24.5358C42.4141 24.5358 42.3465 24.4968 42.31 24.4335L40.3719 21.0766ZM40.3745 5.23186L40.3749 3.17463C40.3739 2.20447 41.1638 1.41237 42.1352 1.41379L42.8408 1.41162C43.811 1.41068 44.6022 2.20419 44.6031 3.17435L44.6029 5.23186H40.3745ZM44.6028 6.73774L44.6017 19.5728L40.3721 19.5707L40.3743 6.73774H44.6028ZM31.4976 32.0687C31.4028 32.1576 31.3101 32.248 31.2198 32.3392L31.2193 32.3396C30.379 33.1887 29.3507 33.9442 28.1908 34.6218C27.9724 34.7492 27.8175 34.9616 27.7627 35.2169C27.7095 35.4654 27.7586 35.7008 27.9005 35.9136C27.9107 35.9289 27.9214 35.9438 27.9327 35.9583C28.5604 36.7654 29.2263 37.1822 29.8949 37.3696C30.854 37.6384 31.8464 37.4169 32.8195 37.0539C33.4792 36.8078 34.1292 36.4991 34.7511 36.3322C35.1927 36.2138 35.6152 36.1578 36.0004 36.3774L40.3607 38.864C40.3614 38.8644 40.3621 38.8649 40.3628 38.8653C40.4597 38.92 40.533 38.9997 40.5776 39.0926C40.5786 39.0947 40.5797 39.0969 40.5807 39.0991C40.6498 39.2397 40.6546 39.4098 40.5732 39.5566C40.5726 39.5576 40.572 39.5585 40.5715 39.5596C40.4382 39.8026 40.1302 39.8983 39.8872 39.7625C38.8871 39.2035 37.884 38.6414 36.8902 38.073C36.5294 37.8667 36.0691 37.9921 35.8628 38.3529C35.6565 38.7136 35.7819 39.174 36.1426 39.3803C37.1402 39.9507 38.1472 40.5151 39.151 41.0762L39.1525 41.0769C39.3961 41.2149 39.4924 41.5231 39.358 41.7688C39.2231 42.0128 38.9159 42.1051 38.6721 41.9733C38.6707 41.9725 38.6664 41.9701 38.6664 41.9701L34.7225 39.7511C34.3604 39.5473 33.9009 39.6759 33.6971 40.0381C33.4934 40.4002 33.6219 40.8597 33.9841 41.0635L37.1177 42.8267C37.1446 42.847 37.1731 42.8659 37.2032 42.883C37.4488 43.0223 37.5479 43.3315 37.4135 43.5788C37.2775 43.8229 36.9685 43.9172 36.7241 43.7832L34.4757 42.5082C34.3143 42.3224 34.1223 42.169 33.9066 42.0492C33.9027 42.0469 33.8986 42.0447 33.8945 42.0425C33.4746 41.8192 33.0115 41.7566 32.5757 41.8334C32.3974 41.4282 32.0884 41.0779 31.6708 40.8544C31.2525 40.6307 30.7885 40.5681 30.352 40.6447C30.1729 40.2398 29.8632 39.889 29.4455 39.6656C29.4449 39.6652 29.4442 39.6649 29.4436 39.6645C29.1083 39.4864 28.7445 39.4104 28.3891 39.4263C28.2426 38.9069 27.8948 38.4448 27.3857 38.172C27.385 38.1716 27.3843 38.1712 27.3836 38.1709C26.7245 37.8202 25.9561 37.8671 25.3575 38.2256C25.1962 37.7268 24.9077 37.3327 24.3993 37.1348L24.3982 37.1344C24.3031 37.0975 24.064 36.9934 23.7618 36.8593L26.0184 31.7529L26.7575 32.0939C27.5926 32.5518 28.4308 32.4618 29.3328 32.2556C29.9888 32.1056 30.6956 31.877 31.4976 32.0687ZM40.4302 32.252L42.4487 37.4539L41.503 37.8484C41.3852 37.7372 41.2521 37.6383 41.1044 37.5547C41.1066 37.5559 36.7463 35.0691 36.7463 35.0691H36.7461C35.6557 34.4475 34.3944 34.8013 33.0882 35.3281C31.9372 35.7923 30.7137 36.4362 29.5971 35.5283C30.6135 34.8832 31.5217 34.175 32.2897 33.3988C32.6039 33.0817 32.9509 32.7743 33.3207 32.5196C33.3279 32.5148 33.3351 32.51 33.3421 32.5049C34.9451 31.4117 36.0999 31.9384 37.0844 32.3407C38.0908 32.7519 38.9905 33.0089 39.8954 32.538C39.8979 32.5367 39.9004 32.5354 39.903 32.5341L40.4302 32.252ZM34.4315 45.3926L34.7372 44.8208C34.7979 44.7081 34.8471 44.591 34.8847 44.4712L35.034 44.5559C35.062 44.5774 35.0919 44.5971 35.1237 44.6149C35.1243 44.6153 35.1251 44.6157 35.1257 44.6161C35.3696 44.7546 35.4621 45.0653 35.3272 45.3112C35.1951 45.552 34.8892 45.6558 34.6509 45.5186L34.4315 45.3926ZM25.686 40.1897C25.6888 40.1845 25.6916 40.1793 25.6943 40.1742L25.9355 39.7228C26.0767 39.4587 26.4087 39.3592 26.6744 39.4992C26.92 39.6316 27.0246 39.9277 26.9254 40.181L25.9088 41.9379C25.7479 42.0399 25.5379 42.055 25.3588 41.9593L25.3575 41.9585C25.0925 41.8176 24.9927 41.486 25.135 41.221L25.1357 41.2196L25.686 40.1897ZM27.147 42.8048L28.1811 41.0177C28.3427 40.9128 28.5552 40.8981 28.7364 40.994C28.9399 41.1035 29.0471 41.3264 29.0204 41.5434L27.8769 43.7591C27.7323 44.0229 27.4026 44.128 27.1358 43.9854L27.1346 43.9847C26.8701 43.844 26.7693 43.5118 26.9114 43.2485C26.9122 43.247 26.9129 43.2456 26.9138 43.2441L27.147 42.8048ZM29.2809 44.3222L30.3526 42.2459C30.5181 42.1074 30.7592 42.0747 30.9606 42.1824C31.165 42.2917 31.2695 42.5159 31.2427 42.7346L30.2423 44.6576C30.0804 44.8492 29.8 44.91 29.5698 44.79C29.3911 44.6925 29.2864 44.5115 29.2809 44.3222ZM31.6136 45.2845L32.574 43.4384C32.7394 43.2991 32.9777 43.2644 33.1801 43.3683C33.252 43.4092 33.3141 43.4606 33.3628 43.5254C33.3647 43.528 33.3666 43.5307 33.3685 43.5333C33.488 43.7041 33.5082 43.927 33.4104 44.1086C33.41 44.1093 33.4096 44.1101 33.4092 44.1108C33.4092 44.1108 32.7585 45.328 32.7575 45.3297L32.6405 45.5487C32.499 45.8132 32.166 45.9126 31.9 45.7714C31.7154 45.6726 31.6127 45.4812 31.6136 45.2845ZM44.1192 37.5964C44.1186 37.5948 41.5305 30.9248 41.5305 30.9248C41.5282 30.9185 41.5257 30.9124 41.5234 30.9062L41.1284 29.8884C41.1186 29.8622 41.1295 29.8319 41.1558 29.8219C41.1569 29.8214 41.158 29.8209 41.1591 29.8206L42.7978 29.1831C42.8242 29.1729 42.853 29.188 42.864 29.2141L42.8646 29.2154L46.1652 37.7298C46.1751 37.7561 46.1653 37.7871 46.1392 37.7971L46.1376 37.7977L44.5002 38.4346C44.4741 38.4444 44.4439 38.4334 44.4339 38.4073C44.4335 38.4064 44.4331 38.4054 44.4327 38.4045L44.1192 37.5964ZM42.3051 30.7968C42.5539 30.7968 42.754 30.5942 42.754 30.3479C42.754 30.0991 42.5539 29.8964 42.3051 29.8964C42.0563 29.8964 41.8536 30.0991 41.8536 30.3479C41.8536 30.5942 42.0563 30.7968 42.3051 30.7968ZM24.9511 30.4426C24.9506 30.4438 22.0829 36.933 22.0829 36.933C22.0818 36.9355 22.0807 36.938 22.0795 36.9406L21.7163 37.7625C21.716 37.7631 21.7158 37.7638 21.7155 37.7645C21.7051 37.7879 21.6771 37.7974 21.6536 37.787C21.6526 37.7865 21.6517 37.786 21.6506 37.7856L20.0416 37.076L20.0401 37.0753C20.0147 37.0642 20.0055 37.0336 20.0156 37.008C20.0164 37.0062 23.709 28.6535 23.709 28.6535C23.7209 28.6272 23.7514 28.6144 23.7781 28.6248C23.7799 28.6256 25.3867 29.3373 25.3867 29.3373L25.3874 29.3376C25.4112 29.3481 25.4225 29.3762 25.4118 29.4002C25.4114 29.4011 25.411 29.4019 25.4107 29.4027L24.9511 30.4426ZM24.2162 30.2614C24.4649 30.2614 24.665 30.0587 24.665 29.8125C24.665 29.5636 24.4649 29.361 24.2162 29.361C23.9673 29.361 23.7647 29.5636 23.7647 29.8125C23.7647 30.0587 23.9673 30.2614 24.2162 30.2614ZM26.0581 27.9893C26.0572 27.9888 24.3529 27.233 24.3511 27.2321C24.3416 27.2284 24.3322 27.2246 24.3228 27.2209C23.5575 26.924 22.6788 27.2768 22.3367 28.0332C22.3351 28.037 22.3334 28.0408 22.3317 28.0446C22.3317 28.0446 18.6253 36.4295 18.6246 36.4314C18.621 36.4399 18.6175 36.4485 18.6141 36.4571C18.3103 37.2301 18.6699 38.118 19.434 38.4539L21.0401 39.1621L21.043 39.1634C21.8275 39.5115 22.749 39.1545 23.0937 38.3712L23.0946 38.3692L23.1531 38.2367C23.4847 38.3838 23.7475 38.4972 23.853 38.5381C23.9114 38.5609 23.9062 38.6316 23.9247 38.6889C24.0149 38.9679 24.1831 39.2108 24.405 39.3919L24.3578 39.48L23.8086 40.5081C23.8086 40.5081 23.8015 40.5214 23.7991 40.5261C23.2767 41.5214 23.657 42.7587 24.6489 43.2873L24.651 43.2884C24.8724 43.4064 25.1064 43.4798 25.3423 43.5112C25.3466 44.2404 25.7399 44.9478 26.4263 45.3136L26.4294 45.3152C26.9681 45.6018 27.5763 45.6227 28.1065 45.4256C28.2868 45.7036 28.537 45.942 28.8485 46.1119C28.8569 46.1165 28.8654 46.121 28.8739 46.1255C29.3487 46.3728 29.8804 46.415 30.3635 46.2832C30.4224 46.3902 30.491 46.4924 30.5689 46.5881H2.74428C2.24028 46.5881 1.83105 46.1788 1.83105 45.6782V2.32494C1.83105 1.82094 2.24028 1.41162 2.74428 1.41162H29.5351C29.5336 1.43854 29.5329 1.46565 29.5329 1.49285V6.60372C29.5329 7.67948 30.4197 8.56626 31.4954 8.56626H36.6064C36.6335 8.56626 36.6606 8.5655 36.6875 8.56409V30.5814C35.5831 30.2254 34.3015 30.1037 32.6809 31.1373C32.4746 30.8752 32.1832 30.6842 31.8475 30.604C30.7933 30.3521 29.8595 30.5903 28.9971 30.7875C28.4673 30.9088 27.972 31.0425 27.4816 30.7735C27.4511 30.7568 27.42 30.7411 27.3885 30.7265L26.6494 30.3855C26.642 30.3821 26.6345 30.3788 26.6272 30.3755L26.787 30.0138L26.788 30.0114C27.1271 29.2479 26.7934 28.3537 26.0581 27.9893ZM5.60207 30.1403H20.2144C20.6299 30.1403 20.9673 29.8029 20.9673 29.3873C20.9673 28.9717 20.6299 28.6344 20.2144 28.6344H5.60207C5.18654 28.6344 4.84913 28.9717 4.84913 29.3873C4.84913 29.8029 5.18654 30.1403 5.60207 30.1403ZM5.60207 22.7742H27.9048C28.3204 22.7742 28.6578 22.4368 28.6578 22.0212C28.6578 21.6056 28.3204 21.2683 27.9048 21.2683H5.60207C5.18654 21.2683 4.84913 21.6056 4.84913 22.0212C4.84913 22.4368 5.18654 22.7742 5.60207 22.7742ZM6.63237 11.2276V19.3506C6.63237 19.7665 6.9695 20.1036 7.38531 20.1036H18.0912C18.5071 20.1036 18.8441 19.7665 18.8441 19.3506V11.2276C18.9031 11.2398 18.9639 11.2448 19.0249 11.2425L22.0884 11.1238C22.4011 11.1117 22.6738 10.9074 22.7732 10.6107C22.8726 10.3139 22.7781 9.98659 22.5358 9.78847L13.2149 2.1687C12.9376 1.94207 12.539 1.94207 12.2617 2.1687L2.9408 9.78847C2.69844 9.98659 2.60395 10.3139 2.70334 10.6107C2.80282 10.9074 3.07548 11.1117 3.38814 11.1238L6.45157 11.2425C6.51265 11.2448 6.57336 11.2398 6.63237 11.2276ZM17.3383 10.1076V18.5977H16.0185V13.6286C16.0185 12.4963 15.1007 11.5785 13.9684 11.5785H11.4297C10.2975 11.5785 9.37967 12.4963 9.37967 13.6286V18.5977H8.13825V10.1076L12.7383 6.34715L17.3383 10.1076ZM10.8855 18.5977V13.6286C10.8855 13.328 11.1292 13.0844 11.4297 13.0844H13.9684C14.269 13.0844 14.5127 13.328 14.5127 13.6286V18.5977H10.8855ZM13.2149 4.79176C12.9376 4.56503 12.539 4.56503 12.2617 4.79176L6.22494 9.72663L5.43322 9.69605L12.7383 3.72419L20.0434 9.69605L19.2516 9.72663L13.2149 4.79176ZM5.60207 33.8233H18.582C18.9975 33.8233 19.335 33.486 19.335 33.0704C19.335 32.6548 18.9975 32.3174 18.582 32.3174H5.60207C5.18654 32.3174 4.84913 32.6548 4.84913 33.0704C4.84913 33.486 5.18654 33.8233 5.60207 33.8233ZM5.60207 37.5064H17.0005C17.416 37.5064 17.7534 37.169 17.7534 36.7535C17.7534 36.3379 17.416 36.0005 17.0005 36.0005H5.60207C5.18654 36.0005 4.84913 36.3379 4.84913 36.7535C4.84913 37.169 5.18654 37.5064 5.60207 37.5064ZM5.60207 44.8725H22.6343C23.0498 44.8725 23.3872 44.5351 23.3872 44.1196C23.3872 43.704 23.0498 43.3666 22.6343 43.3666H5.60207C5.18654 43.3666 4.84913 43.704 4.84913 44.1196C4.84913 44.5351 5.18654 44.8725 5.60207 44.8725ZM5.60207 26.4572H27.9048C28.3204 26.4572 28.6578 26.1199 28.6578 25.7042C28.6578 25.2887 28.3204 24.9513 27.9048 24.9513H5.60207C5.18654 24.9513 4.84913 25.2887 4.84913 25.7042C4.84913 26.1199 5.18654 26.4572 5.60207 26.4572ZM5.60207 41.1894H18.8712C19.2869 41.1894 19.6242 40.8521 19.6242 40.4365C19.6242 40.0209 19.2869 39.6835 18.8712 39.6835H5.60207C5.18654 39.6835 4.84913 40.0209 4.84913 40.4365C4.84913 40.8521 5.18654 41.1894 5.60207 41.1894Z" fill="url(#paint0_linear_1_1157)"/>
<defs>
<linearGradient id="paint0_linear_1_1157" x1="24" y1="1.41162" x2="24" y2="46.5881" gradientUnits="userSpaceOnUse">
<stop stop-color="#1974BB"/>
<stop offset="1" stop-color="#8E2C8F"/>
</linearGradient>
</defs>
</svg>
