<svg width="56" height="56" viewBox="0 0 56 56" fill="none" xmlns="http://www.w3.org/2000/svg">
<path d="M4.81376 11.5609H4.8411C5.26394 11.5609 5.60672 11.2182 5.60672 10.7953C5.60672 10.3725 5.26394 10.0297 4.8411 10.0297H4.81376C4.39091 10.0297 4.04813 10.3725 4.04813 10.7953C4.04813 11.2182 4.39091 11.5609 4.81376 11.5609ZM15.1458 10.0297H15.0927C14.6699 10.0297 14.3271 10.3725 14.3271 10.7953C14.3271 11.2182 14.6699 11.5609 15.0927 11.5609H15.1458C15.5686 11.5609 15.9114 11.2182 15.9114 10.7953C15.9114 10.3725 15.5686 10.0297 15.1458 10.0297ZM30.6027 10.0297H30.5497C30.1268 10.0297 29.7841 10.3725 29.7841 10.7953C29.7841 11.2182 30.1268 11.5609 30.5497 11.5609H30.6027C31.0256 11.5609 31.3684 11.2182 31.3684 10.7953C31.3684 10.3725 31.0256 10.0297 30.6027 10.0297ZM9.94027 11.5609H9.99332C10.4162 11.5609 10.7589 11.2182 10.7589 10.7953C10.7589 10.3725 10.4162 10.0297 9.99332 10.0297H9.94027C9.51743 10.0297 9.17465 10.3725 9.17465 10.7953C9.17465 11.2182 9.51743 11.5609 9.94027 11.5609ZM25.3973 11.5609H25.4504C25.8733 11.5609 26.216 11.2182 26.216 10.7953C26.216 10.3725 25.8733 10.0297 25.4504 10.0297H25.3973C24.9744 10.0297 24.6316 10.3725 24.6316 10.7953C24.6316 11.2182 24.9744 11.5609 25.3973 11.5609ZM46.0597 10.0297H46.0067C45.5838 10.0297 45.241 10.3725 45.241 10.7953C45.241 11.2182 45.5838 11.5609 46.0067 11.5609H46.0597C46.4826 11.5609 46.8253 11.2182 46.8253 10.7953C46.8253 10.3725 46.4826 10.0297 46.0597 10.0297ZM40.8542 11.5609H40.9074C41.3302 11.5609 41.673 11.2182 41.673 10.7953C41.673 10.3725 41.3302 10.0297 40.9074 10.0297H40.8542C40.4314 10.0297 40.0886 10.3725 40.0886 10.7953C40.0886 11.2182 40.4314 11.5609 40.8542 11.5609ZM20.2449 11.5609H20.2981C20.7209 11.5609 21.0637 11.2182 21.0637 10.7953C21.0637 10.3725 20.7209 10.0297 20.2981 10.0297H20.2449C19.8221 10.0297 19.4793 10.3725 19.4793 10.7953C19.4793 11.2182 19.822 11.5609 20.2449 11.5609ZM51.159 11.5609H51.1863C51.6092 11.5609 51.952 11.2182 51.952 10.7953C51.952 10.3725 51.6092 10.0297 51.1863 10.0297H51.159C50.7362 10.0297 50.3934 10.3725 50.3934 10.7953C50.3934 11.2182 50.7362 11.5609 51.159 11.5609ZM15.1458 49.3346H15.0927C14.6699 49.3346 14.3271 49.6774 14.3271 50.1002C14.3271 50.523 14.6699 50.8658 15.0927 50.8658H15.1458C15.5686 50.8658 15.9114 50.523 15.9114 50.1002C15.9114 49.6774 15.5686 49.3346 15.1458 49.3346ZM9.99332 49.3346H9.94027C9.51743 49.3346 9.17465 49.6774 9.17465 50.1002C9.17465 50.523 9.51743 50.8658 9.94027 50.8658H9.99332C10.4162 50.8658 10.7589 50.523 10.7589 50.1002C10.7589 49.6774 10.4162 49.3346 9.99332 49.3346ZM46.0597 49.3346H46.0067C45.5838 49.3346 45.241 49.6774 45.241 50.1002C45.241 50.523 45.5838 50.8658 46.0067 50.8658H46.0597C46.4826 50.8658 46.8253 50.523 46.8253 50.1002C46.8253 49.6774 46.4826 49.3346 46.0597 49.3346ZM25.4504 49.3346H25.3973C24.9744 49.3346 24.6316 49.6774 24.6316 50.1002C24.6316 50.523 24.9744 50.8658 25.3973 50.8658H25.4504C25.8733 50.8658 26.216 50.523 26.216 50.1002C26.216 49.6774 25.8734 49.3346 25.4504 49.3346ZM30.6027 49.3346H30.5497C30.1268 49.3346 29.7841 49.6774 29.7841 50.1002C29.7841 50.523 30.1268 50.8658 30.5497 50.8658H30.6027C31.0256 50.8658 31.3684 50.523 31.3684 50.1002C31.3684 49.6774 31.0256 49.3346 30.6027 49.3346ZM35.7551 49.3346H35.702C35.2792 49.3346 34.9364 49.6774 34.9364 50.1002C34.9364 50.523 35.2792 50.8658 35.702 50.8658H35.7551C36.1779 50.8658 36.5207 50.523 36.5207 50.1002C36.5207 49.6774 36.178 49.3346 35.7551 49.3346ZM40.9075 49.3346H40.8543C40.4315 49.3346 40.0887 49.6774 40.0887 50.1002C40.0887 50.523 40.4315 50.8658 40.8543 50.8658H40.9075C41.3303 50.8658 41.6731 50.523 41.6731 50.1002C41.6731 49.6774 41.3303 49.3346 40.9075 49.3346ZM51.1863 49.3346H51.159C50.7362 49.3346 50.3934 49.6774 50.3934 50.1002C50.3934 50.523 50.7362 50.8658 51.159 50.8658H51.1863C51.6092 50.8658 51.952 50.523 51.952 50.1002C51.952 49.6774 51.6092 49.3346 51.1863 49.3346ZM45.8561 25.3907V17.2029C45.8561 16.901 45.6112 16.6561 45.3092 16.6561H44.2232V8.82919C44.2232 8.40634 43.8804 8.06356 43.4576 8.06356C43.0347 8.06356 42.692 8.40634 42.692 8.82919V16.6561H41.606C41.304 16.6561 41.0591 16.901 41.0591 17.2029V25.3907C41.0591 25.6927 41.304 25.9376 41.606 25.9376H42.692V33.7644C42.692 34.1872 43.0347 34.53 43.4576 34.53C43.8804 34.53 44.2232 34.1872 44.2232 33.7644V25.9376H45.3092C45.6113 25.9376 45.8561 25.6927 45.8561 25.3907ZM30.3985 31.1908V21.1833C30.3985 20.8813 30.1536 20.6364 29.8517 20.6364H28.7657V13.9807C28.7657 13.5579 28.4229 13.2151 28.0001 13.2151C27.5772 13.2151 27.2344 13.5579 27.2344 13.9807V20.6364H26.1484C25.8465 20.6364 25.6016 20.8813 25.6016 21.1833V31.1908C25.6016 31.4928 25.8465 31.7377 26.1484 31.7377H27.2344V35.5908C27.2344 36.0137 27.5772 36.3565 28.0001 36.3565C28.4229 36.3565 28.7657 36.0137 28.7657 35.5908V31.7377H29.8517C30.1536 31.7377 30.3985 31.4928 30.3985 31.1908ZM37.5804 6.86372H36.4944V3.67773C36.4944 3.25489 36.1517 2.91211 35.7288 2.91211C35.306 2.91211 34.9632 3.25489 34.9632 3.67773V6.86372H33.8772C33.5752 6.86372 33.3303 7.10861 33.3303 7.41059V22.6388C33.3303 22.9407 33.5752 23.1856 33.8772 23.1856H34.9632V28.613C34.9632 29.0359 35.306 29.3787 35.7288 29.3787C36.1517 29.3787 36.4944 29.0359 36.4944 28.613V23.1856H37.5804C37.8824 23.1856 38.1273 22.9407 38.1273 22.6388V7.41059C38.1273 7.10861 37.8825 6.86372 37.5804 6.86372ZM6.66525 35.6781H5.57927V30.3165C5.57927 29.8936 5.23649 29.5508 4.81365 29.5508C4.3908 29.5508 4.04802 29.8936 4.04802 30.3165V35.6781H2.96204C2.66005 35.6781 2.41516 35.923 2.41516 36.225V46.3475C2.41516 46.6495 2.66005 46.8944 2.96204 46.8944H4.04802V52.3218C4.04802 52.7447 4.3908 53.0874 4.81365 53.0874C5.23649 53.0874 5.57927 52.7447 5.57927 52.3218V50.3004C5.59655 50.2365 5.60661 50.1695 5.60661 50.1002C5.60661 50.0309 5.59655 49.9639 5.57927 49.9V46.8945H6.66525C6.96735 46.8945 7.21213 46.6496 7.21213 46.3477V36.2251C7.21213 35.9229 6.96735 35.6781 6.66525 35.6781ZM53.038 21.7883H51.952V18.7499C51.952 18.3271 51.6092 17.9843 51.1863 17.9843C50.7635 17.9843 50.4207 18.3271 50.4207 18.7499V21.7883H49.3347C49.0326 21.7883 48.7879 22.0332 48.7879 22.3351V33.8169C48.7879 34.1189 49.0326 34.3638 49.3347 34.3638H50.4207V41.883C50.4207 42.3058 50.7635 42.6486 51.1863 42.6486C51.6092 42.6486 51.952 42.3058 51.952 41.883V34.3638H53.038C53.3399 34.3638 53.5848 34.1189 53.5848 33.8169V22.3351C53.5848 22.033 53.34 21.7883 53.038 21.7883ZM14.941 39.8088V34.3727C14.941 34.0707 14.6961 33.8259 14.3941 33.8259H13.3081V27.8729C13.3081 27.4501 12.9654 27.1073 12.5425 27.1073C12.1197 27.1073 11.7769 27.4501 11.7769 27.8729V33.8259H10.6909C10.3889 33.8259 10.144 34.0707 10.144 34.3727V39.8088C10.144 40.1108 10.3889 40.3557 10.6909 40.3557H11.7769V43.4833C11.7769 43.9062 12.1197 44.249 12.5425 44.249C12.9654 44.249 13.3081 43.9062 13.3081 43.4833V40.3557H14.3941C14.6961 40.3557 14.941 40.1108 14.941 39.8088ZM22.1229 24.2868H21.0369V14.9828C21.0369 14.56 20.6941 14.2172 20.2713 14.2172C19.8484 14.2172 19.5057 14.56 19.5057 14.9828V24.2868H18.4197C18.1177 24.2868 17.8728 24.5317 17.8728 24.8337V46.649C17.8728 46.951 18.1177 47.1959 18.4197 47.1959H19.5057V49.9037C19.489 49.9664 19.4793 50.0321 19.4793 50.1001C19.4793 50.5229 19.8221 50.8657 20.2449 50.8657H20.2981C20.7209 50.8657 21.0637 50.5229 21.0637 50.1001C21.0637 50.0315 21.0539 49.9653 21.0369 49.902V47.1959H22.1229C22.4249 47.1959 22.6698 46.951 22.6698 46.649V24.8337C22.6698 24.5317 22.4249 24.2868 22.1229 24.2868Z" fill="url(#paint0_linear_1_1164)"/>
<defs>
<linearGradient id="paint0_linear_1_1164" x1="28" y1="2.91211" x2="28" y2="53.0874" gradientUnits="userSpaceOnUse">
<stop stop-color="#1974BA"/>
<stop offset="1" stop-color="#8E2D90"/>
</linearGradient>
</defs>
</svg>
