<svg width="36" height="36" viewBox="0 0 36 36" fill="none" xmlns="http://www.w3.org/2000/svg">
<g clip-path="url(#clip0_purple_arrow)">
<path d="M7.86805e-07 18.0002C1.22133e-06 27.941 8.05922 36.0002 18 36.0002C27.9408 36.0002 36 27.941 36 18.0002C36 8.05946 27.9408 0.000244493 18 0.000244927C8.05922 0.000245362 3.5228e-07 8.05947 7.86805e-07 18.0002ZM19.1208 9.06634L22.1998 12.1453C22.4206 12.3662 22.5709 12.6475 22.6319 12.9539C22.6928 13.2602 22.6615 13.5777 22.542 13.8662C22.4225 14.1547 22.2201 14.4014 21.9605 14.5749C21.7008 14.7484 21.3955 14.8411 21.0832 14.8411C20.8761 14.8415 20.6711 14.8008 20.4798 14.7215C20.2885 14.6423 20.1148 14.5259 19.9688 14.3792L19.6263 14.0367L19.6263 25.8176C19.6176 26.2307 19.4474 26.624 19.1521 26.9132C18.8568 27.2023 18.46 27.3642 18.0468 27.3642C17.6335 27.3642 17.2367 27.2023 16.9414 26.9132C16.6462 26.624 16.4759 26.2307 16.4672 25.8176L16.4672 13.9552L16.0313 14.3883C15.8846 14.535 15.7104 14.6513 15.5188 14.7307C15.3272 14.8101 15.1218 14.8509 14.9143 14.8509C14.7069 14.8509 14.5015 14.8101 14.3099 14.7307C14.1182 14.6513 13.9441 14.535 13.7974 14.3883C13.6507 14.2416 13.5344 14.0675 13.455 13.8758C13.3756 13.6842 13.3348 13.4788 13.3348 13.2714C13.3348 13.0639 13.3756 12.8585 13.455 12.6669C13.5344 12.4753 13.6507 12.3011 13.7974 12.1545L16.8855 9.06634C17.0322 8.91962 17.2063 8.80324 17.398 8.72383C17.5896 8.64443 17.795 8.60356 18.0025 8.60356C18.2099 8.60356 18.4153 8.64443 18.607 8.72383C18.7986 8.80324 18.9727 8.91962 19.1194 9.06634L19.1208 9.06634Z" fill="#932A8E"/>
</g>
<defs>
<clipPath id="clip0_purple_arrow">
<rect width="36" height="36" fill="white" transform="translate(1.57361e-06 36) rotate(-90)"/>
</clipPath>
</defs>
</svg>

