<svg xmlns="http://www.w3.org/2000/svg" width="27" height="28" viewBox="0 0 27 28" fill="none">
<path d="M25.8906 16.5617C25.3206 15.675 24.7506 14.82 24.1806 13.9333C24.0539 13.7433 24.0539 13.6167 24.1806 13.4267C24.7506 12.5717 25.2889 11.7167 25.8589 10.8617C26.5239 9.84834 26.1756 8.86667 25.0356 8.455C24.0856 8.10667 23.1356 7.72667 22.1856 7.37834C21.9956 7.315 21.9006 7.18833 21.9006 6.96667C21.8689 5.92167 21.8056 4.87667 21.7423 3.86334C21.6789 2.755 20.8239 2.12167 19.7473 2.40667C18.7339 2.66 17.7206 2.945 16.7389 3.23C16.5173 3.29333 16.3906 3.23 16.2323 3.07167C15.5989 2.24833 14.9339 1.45667 14.3006 0.665001C13.6039 -0.221667 12.5273 -0.221667 11.7989 0.665001C11.1656 1.45667 10.5006 2.24833 9.89894 3.04C9.74061 3.26167 9.58227 3.29333 9.32894 3.23C8.34727 2.945 7.36561 2.69167 6.66894 2.50167C5.30727 2.185 4.48394 2.72333 4.42061 3.86334C4.35727 4.90834 4.29394 5.95334 4.26227 7.03C4.26227 7.25167 4.16727 7.34667 3.97727 7.44167C2.99561 7.82167 2.01394 8.20167 1.03227 8.58167C0.0189421 8.99334 -0.297725 9.975 0.30394 10.8933C0.873941 11.78 1.44394 12.635 2.01394 13.5217C2.1406 13.7117 2.1406 13.8383 2.01394 14.06C1.41227 14.9467 0.842272 15.8333 0.272272 16.7517C-0.266061 17.6067 0.0822697 18.62 1.03227 19C2.01394 19.38 3.02727 19.76 4.00893 20.14C4.2306 20.2033 4.29393 20.33 4.29393 20.5517C4.3256 21.565 4.45227 22.5467 4.45227 23.56C4.45227 24.5733 5.33893 25.4917 6.57393 25.1117C7.5556 24.795 8.53726 24.5733 9.51893 24.2883C9.70893 24.225 9.8356 24.2567 9.96226 24.4467C10.6273 25.27 11.2606 26.0617 11.9256 26.885C12.6539 27.7717 13.6989 27.7717 14.3956 26.885C15.0606 26.0617 15.6939 25.27 16.3589 24.4467C16.4856 24.2883 16.5806 24.225 16.8023 24.2883C17.8156 24.5733 18.8289 24.8267 19.8423 25.1117C20.8873 25.3967 21.7739 24.7633 21.8056 23.6867C21.8689 22.6417 21.9323 21.5967 21.9639 20.52C21.9639 20.2667 22.0906 20.1717 22.2806 20.1083C23.2306 19.76 24.2123 19.38 25.1623 19C26.1756 18.4933 26.4923 17.48 25.8906 16.5617ZM18.3223 11.3683L11.9889 17.7017C11.8306 17.86 11.6089 17.9867 11.3873 18.0183C11.3239 18.0183 11.2289 18.05 11.1656 18.05C10.8806 18.05 10.5639 17.9233 10.3423 17.7017L7.74561 15.105C7.30228 14.6617 7.30228 13.9333 7.74561 13.49C8.18894 13.0467 8.91728 13.0467 9.36061 13.49L11.1339 15.2633L16.6439 9.75334C17.0873 9.31001 17.8156 9.31001 18.2589 9.75334C18.7656 10.1967 18.7656 10.925 18.3223 11.3683Z" fill="url(#paint0_linear_2009_852)"/>
<defs>
<linearGradient id="paint0_linear_2009_852" x1="13.0973" y1="0" x2="13.0973" y2="27.55" gradientUnits="userSpaceOnUse">
<stop stop-color="#335FCC"/>
<stop offset="1" stop-color="#9A2EA9"/>
</linearGradient>
</defs>
</svg>
