<svg width="621" height="405" viewBox="0 0 621 405" fill="none" xmlns="http://www.w3.org/2000/svg">
<g filter="url(#filter0_dddd_206_486)">
<rect x="28.0071" y="13.0033" width="467.961" height="166.3" rx="15" fill="#0C091D"/>
<g clip-path="url(#clip0_206_486)">
<mask id="mask0_206_486" style="mask-type:luminance" maskUnits="userSpaceOnUse" x="28" y="13" width="432" height="103">
<path d="M459.116 13.0033H28.0071V115.029H459.116V13.0033Z" fill="white"/>
</mask>
<g mask="url(#mask0_206_486)">
<g opacity="0.1">
<path d="M988.707 66.7127H358.171C303.717 66.7127 259.574 110.869 259.574 165.338V174.672" stroke="url(#paint0_linear_206_486)"/>
<path d="M1023.09 71.9391H392.553C338.099 71.9391 293.955 116.095 293.955 170.564V179.898" stroke="url(#paint1_linear_206_486)"/>
<path d="M1057.49 77.169H426.958C372.504 77.169 328.36 121.325 328.36 175.794V185.128" stroke="url(#paint2_linear_206_486)"/>
<path d="M1091.88 82.3954H461.348C406.894 82.3954 362.75 126.551 362.75 181.02V190.354" stroke="url(#paint3_linear_206_486)"/>
<path d="M1126.27 87.6252H495.735C441.281 87.6252 397.138 131.781 397.138 186.25V195.585" stroke="url(#paint4_linear_206_486)"/>
<path d="M1160.65 92.8516H530.119C475.665 92.8516 431.521 137.008 431.521 191.477V200.811" stroke="url(#paint5_linear_206_486)"/>
<path d="M-503.976 66.7127H126.558C181.013 66.7127 225.156 110.869 225.156 165.338L225.156 174.672" stroke="url(#paint6_linear_206_486)"/>
<path d="M-538.358 71.9391H92.1765C146.63 71.9391 190.774 116.095 190.774 170.564V179.898" stroke="url(#paint7_linear_206_486)"/>
<path d="M-572.763 77.169H57.7716C112.226 77.169 156.369 121.325 156.369 175.794V185.128" stroke="url(#paint8_linear_206_486)"/>
<path d="M-607.153 82.3954H23.3818C77.8357 82.3954 121.979 126.551 121.979 181.02V190.354" stroke="url(#paint9_linear_206_486)"/>
<path d="M-641.539 87.6252H-11.005C43.4489 87.6252 87.5926 131.781 87.5926 186.25V195.585" stroke="url(#paint10_linear_206_486)"/>
<path d="M-675.925 92.8516H-45.3899C9.06423 92.8516 53.2079 137.008 53.2079 191.477V200.811" stroke="url(#paint11_linear_206_486)"/>
<path d="M988.707 61.4782H358.171C303.717 61.4782 259.574 17.3223 259.574 -37.1468V-46.481" stroke="url(#paint12_linear_206_486)"/>
<path d="M1023.09 56.2522H392.553C338.099 56.2522 293.955 12.0964 293.955 -42.3727V-51.7069" stroke="url(#paint13_linear_206_486)"/>
<path d="M1057.49 51.0218H426.958C372.504 51.0218 328.36 6.86592 328.36 -47.6031V-56.9373" stroke="url(#paint14_linear_206_486)"/>
<path d="M1091.88 45.7957H461.348C406.894 45.7957 362.75 1.6398 362.75 -52.8293V-62.1637" stroke="url(#paint15_linear_206_486)"/>
<path d="M1126.27 40.5655H495.735C441.281 40.5655 397.138 -3.59039 397.138 -58.0595V-67.3935" stroke="url(#paint16_linear_206_486)"/>
<path d="M1160.65 35.3394H530.119C475.665 35.3394 431.521 -8.81653 431.521 -63.2853V-72.6199" stroke="url(#paint17_linear_206_486)"/>
<path d="M-503.976 61.4782H126.558C181.013 61.4782 225.156 17.3223 225.156 -37.1468L225.156 -46.481" stroke="url(#paint18_linear_206_486)"/>
<path d="M-538.358 56.2522H92.1765C146.63 56.2522 190.774 12.0964 190.774 -42.3727V-51.7069" stroke="url(#paint19_linear_206_486)"/>
<path d="M-572.763 51.0218H57.7716C112.226 51.0218 156.369 6.86593 156.369 -47.6031V-56.9373" stroke="url(#paint20_linear_206_486)"/>
<path d="M-607.153 45.7957H23.3818C77.8357 45.7957 121.979 1.6398 121.979 -52.8293V-62.1637" stroke="url(#paint21_linear_206_486)"/>
<path d="M-641.539 40.5655H-11.005C43.4489 40.5655 87.5926 -3.59039 87.5926 -58.0595V-67.3935" stroke="url(#paint22_linear_206_486)"/>
<path d="M-675.925 35.3394H-45.3899C9.06423 35.3394 53.2079 -8.81653 53.2079 -63.2853V-72.6199" stroke="url(#paint23_linear_206_486)"/>
</g>
<path d="M28.9839 64.0162H457.799" stroke="url(#paint24_linear_206_486)"/>
<g filter="url(#filter1_f_206_486)">
<path d="M75.2655 65.7169C76.2043 65.7169 76.9654 64.9556 76.9654 64.0165C76.9654 63.0774 76.2043 62.3161 75.2655 62.3161C74.3266 62.3161 73.5655 63.0774 73.5655 64.0165C73.5655 64.9556 74.3266 65.7169 75.2655 65.7169Z" fill="white"/>
</g>
<path d="M75.2655 65.7169C76.2043 65.7169 76.9654 64.9556 76.9654 64.0165C76.9654 63.0774 76.2043 62.3161 75.2655 62.3161C74.3266 62.3161 73.5655 63.0774 73.5655 64.0165C73.5655 64.9556 74.3266 65.7169 75.2655 65.7169Z" fill="white"/>
<g filter="url(#filter2_f_206_486)">
<path d="M130.344 65.7169C131.283 65.7169 132.044 64.9556 132.044 64.0165C132.044 63.0774 131.283 62.3161 130.344 62.3161C129.405 62.3161 128.644 63.0774 128.644 64.0165C128.644 64.9556 129.405 65.7169 130.344 65.7169Z" fill="white"/>
</g>
<path d="M130.344 65.7169C131.283 65.7169 132.044 64.9556 132.044 64.0165C132.044 63.0774 131.283 62.3161 130.344 62.3161C129.405 62.3161 128.644 63.0774 128.644 64.0165C128.644 64.9556 129.405 65.7169 130.344 65.7169Z" fill="white"/>
<g filter="url(#filter3_f_206_486)">
<path d="M185.423 65.7169C186.362 65.7169 187.123 64.9556 187.123 64.0165C187.123 63.0774 186.362 62.3161 185.423 62.3161C184.484 62.3161 183.723 63.0774 183.723 64.0165C183.723 64.9556 184.484 65.7169 185.423 65.7169Z" fill="white"/>
</g>
<path d="M185.423 65.7169C186.362 65.7169 187.123 64.9556 187.123 64.0165C187.123 63.0774 186.362 62.3161 185.423 62.3161C184.484 62.3161 183.723 63.0774 183.723 64.0165C183.723 64.9556 184.484 65.7169 185.423 65.7169Z" fill="white"/>
<g filter="url(#filter4_f_206_486)">
<path d="M243.562 68.7776C246.19 68.7776 248.321 66.646 248.321 64.0164C248.321 61.3869 246.19 59.2552 243.562 59.2552C240.933 59.2552 238.802 61.3869 238.802 64.0164C238.802 66.646 240.933 68.7776 243.562 68.7776Z" fill="white"/>
</g>
<path d="M243.562 68.7776C246.19 68.7776 248.321 66.646 248.321 64.0164C248.321 61.3869 246.19 59.2552 243.562 59.2552C240.933 59.2552 238.802 61.3869 238.802 64.0164C238.802 66.646 240.933 68.7776 243.562 68.7776Z" fill="white"/>
<g filter="url(#filter5_f_206_486)">
<path d="M301.7 65.7169C302.639 65.7169 303.4 64.9556 303.4 64.0165C303.4 63.0774 302.639 62.3161 301.7 62.3161C300.761 62.3161 300 63.0774 300 64.0165C300 64.9556 300.761 65.7169 301.7 65.7169Z" fill="white"/>
</g>
<path d="M301.7 65.7169C302.639 65.7169 303.4 64.9556 303.4 64.0165C303.4 63.0774 302.639 62.3161 301.7 62.3161C300.761 62.3161 300 63.0774 300 64.0165C300 64.9556 300.761 65.7169 301.7 65.7169Z" fill="white"/>
<g filter="url(#filter6_f_206_486)">
<path d="M356.778 65.7169C357.717 65.7169 358.478 64.9556 358.478 64.0165C358.478 63.0774 357.717 62.3161 356.778 62.3161C355.839 62.3161 355.078 63.0774 355.078 64.0165C355.078 64.9556 355.839 65.7169 356.778 65.7169Z" fill="white"/>
</g>
<path d="M356.778 65.7169C357.717 65.7169 358.478 64.9556 358.478 64.0165C358.478 63.0774 357.717 62.3161 356.778 62.3161C355.839 62.3161 355.078 63.0774 355.078 64.0165C355.078 64.9556 355.839 65.7169 356.778 65.7169Z" fill="white"/>
<g filter="url(#filter7_f_206_486)">
<path d="M411.858 65.7169C412.796 65.7169 413.557 64.9556 413.557 64.0165C413.557 63.0774 412.796 62.3161 411.858 62.3161C410.919 62.3161 410.158 63.0774 410.158 64.0165C410.158 64.9556 410.919 65.7169 411.858 65.7169Z" fill="white"/>
</g>
<path d="M411.858 65.7169C412.796 65.7169 413.557 64.9556 413.557 64.0165C413.557 63.0774 412.796 62.3161 411.858 62.3161C410.919 62.3161 410.158 63.0774 410.158 64.0165C410.158 64.9556 410.919 65.7169 411.858 65.7169Z" fill="white"/>
<path d="M456.396 46.0116H28.0071V114.709H456.396V46.0116Z" fill="url(#paint25_linear_206_486)"/>
</g>
</g>
<path d="M177.274 114.029V111.244H179.482V100.009H177.274V97.2246H185.916C186.94 97.2246 187.829 97.4007 188.581 97.7527C189.349 98.0888 189.941 98.577 190.357 99.2171C190.789 99.8413 191.005 100.593 191.005 101.474V101.714C191.005 102.482 190.861 103.114 190.573 103.61C190.285 104.09 189.941 104.466 189.541 104.739C189.157 104.995 188.789 105.179 188.437 105.291V105.723C188.789 105.819 189.173 106.003 189.589 106.275C190.005 106.531 190.357 106.907 190.645 107.403C190.949 107.899 191.101 108.547 191.101 109.348V109.588C191.101 110.516 190.885 111.316 190.453 111.988C190.021 112.645 189.421 113.149 188.653 113.501C187.901 113.853 187.02 114.029 186.012 114.029H177.274ZM182.651 111.148H185.628C186.316 111.148 186.868 110.98 187.284 110.644C187.717 110.308 187.933 109.828 187.933 109.204V108.964C187.933 108.339 187.725 107.859 187.308 107.523C186.892 107.187 186.332 107.019 185.628 107.019H182.651V111.148ZM182.651 104.138H185.58C186.236 104.138 186.772 103.97 187.188 103.634C187.621 103.298 187.837 102.834 187.837 102.242V102.002C187.837 101.394 187.629 100.93 187.212 100.609C186.796 100.273 186.252 100.105 185.58 100.105H182.651V104.138ZM198.329 114.221C197.4 114.221 196.584 114.013 195.88 113.597C195.192 113.165 194.656 112.573 194.272 111.82C193.888 111.068 193.696 110.204 193.696 109.228V102.122H196.72V108.988C196.72 109.884 196.936 110.556 197.368 111.004C197.817 111.452 198.449 111.676 199.265 111.676C200.193 111.676 200.913 111.372 201.425 110.764C201.938 110.14 202.194 109.276 202.194 108.171V102.122H205.218V114.029H202.242V112.468H201.81C201.618 112.869 201.257 113.261 200.729 113.645C200.201 114.029 199.401 114.221 198.329 114.221ZM209.881 118.83V116.189H216.362C216.81 116.189 217.035 115.949 217.035 115.469V112.468H216.602C216.474 112.741 216.274 113.013 216.002 113.285C215.73 113.557 215.362 113.781 214.898 113.957C214.434 114.133 213.842 114.221 213.122 114.221C212.193 114.221 211.377 114.013 210.673 113.597C209.985 113.165 209.449 112.573 209.064 111.82C208.68 111.068 208.488 110.204 208.488 109.228V102.122H211.513V108.988C211.513 109.884 211.729 110.556 212.161 111.004C212.609 111.452 213.242 111.676 214.058 111.676C214.986 111.676 215.706 111.372 216.218 110.764C216.73 110.14 216.987 109.276 216.987 108.171V102.122H220.011V116.141C220.011 116.958 219.771 117.606 219.291 118.086C218.811 118.582 218.171 118.83 217.371 118.83H209.881ZM231.441 114.029V104.618H228.416V102.122H231.441V99.9133C231.441 99.0971 231.681 98.4489 232.161 97.9688C232.657 97.4727 233.297 97.2246 234.082 97.2246H237.202V99.7212H235.138C234.69 99.7212 234.466 99.9613 234.466 100.441V102.122H237.587V104.618H234.466V114.029H231.441ZM239.928 114.029V102.122H242.905V103.466H243.337C243.513 102.986 243.801 102.634 244.201 102.41C244.617 102.186 245.098 102.074 245.642 102.074H247.082V104.763H245.594C244.825 104.763 244.193 104.971 243.697 105.387C243.201 105.787 242.953 106.411 242.953 107.259V114.029H239.928ZM252.862 114.365C252.014 114.365 251.253 114.221 250.581 113.933C249.909 113.629 249.373 113.197 248.973 112.637C248.589 112.06 248.397 111.364 248.397 110.548C248.397 109.732 248.589 109.052 248.973 108.507C249.373 107.947 249.917 107.531 250.605 107.259C251.31 106.971 252.11 106.827 253.006 106.827H256.271V106.155C256.271 105.595 256.095 105.139 255.743 104.787C255.391 104.418 254.83 104.234 254.062 104.234C253.31 104.234 252.75 104.41 252.382 104.763C252.014 105.099 251.774 105.539 251.662 106.083L248.877 105.147C249.069 104.538 249.373 103.986 249.789 103.49C250.221 102.978 250.789 102.57 251.494 102.266C252.214 101.946 253.086 101.786 254.11 101.786C255.679 101.786 256.919 102.178 257.831 102.962C258.743 103.746 259.2 104.883 259.2 106.371V110.812C259.2 111.292 259.424 111.532 259.872 111.532H260.832V114.029H258.815C258.223 114.029 257.735 113.885 257.351 113.597C256.967 113.309 256.775 112.925 256.775 112.444V112.42H256.319C256.255 112.613 256.111 112.869 255.887 113.189C255.663 113.493 255.311 113.765 254.83 114.005C254.35 114.245 253.694 114.365 252.862 114.365ZM253.39 111.916C254.238 111.916 254.926 111.684 255.455 111.22C255.999 110.74 256.271 110.108 256.271 109.324V109.084H253.222C252.662 109.084 252.222 109.204 251.902 109.444C251.582 109.684 251.422 110.02 251.422 110.452C251.422 110.884 251.59 111.236 251.926 111.508C252.262 111.78 252.75 111.916 253.39 111.916ZM268.402 114.365C267.25 114.365 266.202 114.125 265.258 113.645C264.329 113.165 263.593 112.468 263.049 111.556C262.505 110.644 262.233 109.54 262.233 108.243V107.907C262.233 106.611 262.505 105.507 263.049 104.594C263.593 103.682 264.329 102.986 265.258 102.506C266.202 102.026 267.25 101.786 268.402 101.786C269.539 101.786 270.515 101.986 271.331 102.386C272.147 102.786 272.804 103.338 273.3 104.042C273.812 104.731 274.148 105.515 274.308 106.395L271.379 107.019C271.315 106.539 271.171 106.107 270.947 105.723C270.723 105.339 270.403 105.035 269.987 104.811C269.587 104.586 269.083 104.474 268.474 104.474C267.866 104.474 267.314 104.61 266.818 104.883C266.338 105.139 265.954 105.531 265.666 106.059C265.394 106.571 265.258 107.203 265.258 107.955V108.195C265.258 108.948 265.394 109.588 265.666 110.116C265.954 110.628 266.338 111.02 266.818 111.292C267.314 111.548 267.866 111.676 268.474 111.676C269.387 111.676 270.075 111.444 270.539 110.98C271.019 110.5 271.323 109.876 271.451 109.108L274.38 109.804C274.172 110.652 273.812 111.428 273.3 112.132C272.804 112.821 272.147 113.365 271.331 113.765C270.515 114.165 269.539 114.365 268.402 114.365ZM281.038 114.029C280.254 114.029 279.613 113.789 279.117 113.309C278.637 112.813 278.397 112.156 278.397 111.34V104.618H275.42V102.122H278.397V98.4249H281.422V102.122H284.687V104.618H281.422V110.812C281.422 111.292 281.646 111.532 282.094 111.532H284.399V114.029H281.038ZM287.425 114.029V102.122H290.449V114.029H287.425ZM288.937 100.73C288.393 100.73 287.929 100.553 287.545 100.201C287.177 99.8493 286.993 99.3852 286.993 98.809C286.993 98.2329 287.177 97.7688 287.545 97.4167C287.929 97.0646 288.393 96.8885 288.937 96.8885C289.497 96.8885 289.961 97.0646 290.329 97.4167C290.697 97.7688 290.882 98.2329 290.882 98.809C290.882 99.3852 290.697 99.8493 290.329 100.201C289.961 100.553 289.497 100.73 288.937 100.73ZM299.467 114.365C298.282 114.365 297.218 114.125 296.274 113.645C295.33 113.165 294.585 112.468 294.041 111.556C293.497 110.644 293.225 109.548 293.225 108.267V107.883C293.225 106.603 293.497 105.507 294.041 104.594C294.585 103.682 295.33 102.986 296.274 102.506C297.218 102.026 298.282 101.786 299.467 101.786C300.651 101.786 301.715 102.026 302.66 102.506C303.604 102.986 304.348 103.682 304.892 104.594C305.436 105.507 305.708 106.603 305.708 107.883V108.267C305.708 109.548 305.436 110.644 304.892 111.556C304.348 112.468 303.604 113.165 302.66 113.645C301.715 114.125 300.651 114.365 299.467 114.365ZM299.467 111.676C300.395 111.676 301.163 111.38 301.771 110.788C302.379 110.18 302.684 109.316 302.684 108.195V107.955C302.684 106.835 302.379 105.979 301.771 105.387C301.179 104.779 300.411 104.474 299.467 104.474C298.538 104.474 297.77 104.779 297.162 105.387C296.554 105.979 296.25 106.835 296.25 107.955V108.195C296.25 109.316 296.554 110.18 297.162 110.788C297.77 111.38 298.538 111.676 299.467 111.676ZM308.5 114.029V102.122H311.477V103.682H311.909C312.101 103.266 312.461 102.874 312.989 102.506C313.518 102.122 314.318 101.93 315.39 101.93C316.318 101.93 317.126 102.146 317.815 102.578C318.519 102.994 319.063 103.578 319.447 104.33C319.831 105.067 320.023 105.931 320.023 106.923V114.029H316.998V107.163C316.998 106.267 316.774 105.595 316.326 105.147C315.894 104.699 315.27 104.474 314.454 104.474C313.526 104.474 312.805 104.787 312.293 105.411C311.781 106.019 311.525 106.875 311.525 107.979V114.029H308.5ZM326.99 114.365C326.142 114.365 325.382 114.221 324.709 113.933C324.037 113.629 323.501 113.197 323.101 112.637C322.717 112.06 322.525 111.364 322.525 110.548C322.525 109.732 322.717 109.052 323.101 108.507C323.501 107.947 324.045 107.531 324.733 107.259C325.438 106.971 326.238 106.827 327.134 106.827H330.399V106.155C330.399 105.595 330.223 105.139 329.871 104.787C329.519 104.418 328.959 104.234 328.19 104.234C327.438 104.234 326.878 104.41 326.51 104.763C326.142 105.099 325.902 105.539 325.79 106.083L323.005 105.147C323.197 104.538 323.501 103.986 323.917 103.49C324.349 102.978 324.918 102.57 325.622 102.266C326.342 101.946 327.214 101.786 328.238 101.786C329.807 101.786 331.047 102.178 331.959 102.962C332.872 103.746 333.328 104.883 333.328 106.371V110.812C333.328 111.292 333.552 111.532 334 111.532H334.96V114.029H332.944C332.351 114.029 331.863 113.885 331.479 113.597C331.095 113.309 330.903 112.925 330.903 112.444V112.42H330.447C330.383 112.613 330.239 112.869 330.015 113.189C329.791 113.493 329.439 113.765 328.959 114.005C328.478 114.245 327.822 114.365 326.99 114.365ZM327.518 111.916C328.366 111.916 329.055 111.684 329.583 111.22C330.127 110.74 330.399 110.108 330.399 109.324V109.084H327.35C326.79 109.084 326.35 109.204 326.03 109.444C325.71 109.684 325.55 110.02 325.55 110.452C325.55 110.884 325.718 111.236 326.054 111.508C326.39 111.78 326.878 111.916 327.518 111.916ZM337.172 114.029V97.2246H340.196V114.029H337.172ZM228.665 149.038C227.881 149.038 227.241 148.798 226.745 148.318C226.264 147.821 226.024 147.165 226.024 146.349V139.627H223.048V137.131H226.024V133.434H229.049V137.131H232.314V139.627H229.049V145.821C229.049 146.301 229.273 146.541 229.721 146.541H232.026V149.038H228.665ZM240.295 149.374C239.111 149.374 238.047 149.134 237.103 148.654C236.158 148.174 235.414 147.477 234.87 146.565C234.326 145.653 234.054 144.557 234.054 143.276V142.892C234.054 141.612 234.326 140.516 234.87 139.603C235.414 138.691 236.158 137.995 237.103 137.515C238.047 137.035 239.111 136.795 240.295 136.795C241.48 136.795 242.544 137.035 243.488 137.515C244.433 137.995 245.177 138.691 245.721 139.603C246.265 140.516 246.537 141.612 246.537 142.892V143.276C246.537 144.557 246.265 145.653 245.721 146.565C245.177 147.477 244.433 148.174 243.488 148.654C242.544 149.134 241.48 149.374 240.295 149.374ZM240.295 146.685C241.224 146.685 241.992 146.389 242.6 145.797C243.208 145.189 243.512 144.325 243.512 143.204V142.964C243.512 141.844 243.208 140.988 242.6 140.396C242.008 139.787 241.24 139.483 240.295 139.483C239.367 139.483 238.599 139.787 237.991 140.396C237.383 140.988 237.079 141.844 237.079 142.964V143.204C237.079 144.325 237.383 145.189 237.991 145.797C238.599 146.389 239.367 146.685 240.295 146.685ZM249.329 149.038V132.233H252.354V141.524H252.786L256.723 137.131H260.66L255.163 142.892L260.852 149.038H256.963L252.786 144.309H252.354V149.038H249.329ZM267.578 149.374C266.394 149.374 265.345 149.126 264.433 148.63C263.537 148.118 262.833 147.405 262.321 146.493C261.825 145.565 261.576 144.477 261.576 143.228V142.94C261.576 141.692 261.825 140.612 262.321 139.699C262.817 138.771 263.513 138.059 264.409 137.563C265.305 137.051 266.346 136.795 267.53 136.795C268.698 136.795 269.715 137.059 270.579 137.587C271.443 138.099 272.115 138.819 272.595 139.747C273.075 140.66 273.315 141.724 273.315 142.94V143.972H264.649C264.681 144.789 264.985 145.453 265.561 145.965C266.138 146.477 266.842 146.733 267.674 146.733C268.522 146.733 269.146 146.549 269.546 146.181C269.947 145.813 270.251 145.405 270.459 144.957L272.931 146.253C272.707 146.669 272.379 147.125 271.947 147.621C271.531 148.101 270.971 148.518 270.267 148.87C269.562 149.206 268.666 149.374 267.578 149.374ZM264.673 141.716H270.243C270.179 141.028 269.899 140.476 269.402 140.059C268.922 139.643 268.29 139.435 267.506 139.435C266.69 139.435 266.042 139.643 265.561 140.059C265.081 140.476 264.785 141.028 264.673 141.716ZM276.008 149.038V137.131H278.984V138.691H279.417C279.609 138.275 279.969 137.883 280.497 137.515C281.025 137.131 281.825 136.939 282.897 136.939C283.826 136.939 284.634 137.155 285.322 137.587C286.026 138.003 286.57 138.587 286.954 139.339C287.339 140.075 287.531 140.94 287.531 141.932V149.038H284.506V142.172C284.506 141.276 284.282 140.604 283.834 140.155C283.402 139.707 282.777 139.483 281.961 139.483C281.033 139.483 280.313 139.795 279.801 140.42C279.289 141.028 279.032 141.884 279.032 142.988V149.038H276.008ZM295.746 149.374C294.193 149.374 292.921 149.038 291.929 148.366C290.937 147.693 290.336 146.733 290.128 145.485L292.913 144.765C293.025 145.325 293.209 145.765 293.465 146.085C293.737 146.405 294.065 146.637 294.449 146.781C294.85 146.909 295.282 146.973 295.746 146.973C296.45 146.973 296.97 146.853 297.306 146.613C297.642 146.357 297.81 146.045 297.81 145.677C297.81 145.309 297.65 145.029 297.33 144.837C297.01 144.629 296.498 144.461 295.794 144.333L295.122 144.213C294.289 144.052 293.529 143.836 292.841 143.564C292.153 143.276 291.601 142.884 291.185 142.388C290.768 141.892 290.56 141.252 290.56 140.468C290.56 139.283 290.993 138.379 291.857 137.755C292.721 137.115 293.857 136.795 295.266 136.795C296.594 136.795 297.698 137.091 298.578 137.683C299.459 138.275 300.035 139.051 300.307 140.011L297.498 140.876C297.37 140.268 297.106 139.835 296.706 139.579C296.322 139.323 295.842 139.195 295.266 139.195C294.689 139.195 294.249 139.299 293.945 139.507C293.641 139.699 293.489 139.971 293.489 140.324C293.489 140.708 293.649 140.996 293.969 141.188C294.289 141.364 294.721 141.5 295.266 141.596L295.938 141.716C296.834 141.876 297.642 142.092 298.362 142.364C299.099 142.62 299.675 142.996 300.091 143.492C300.523 143.972 300.739 144.629 300.739 145.461C300.739 146.709 300.283 147.677 299.371 148.366C298.474 149.038 297.266 149.374 295.746 149.374Z" fill="white"/>
</g>
<defs>
<filter id="filter0_dddd_206_486" x="0" y="0" width="621" height="404.36" filterUnits="userSpaceOnUse" color-interpolation-filters="sRGB">
<feFlood flood-opacity="0" result="BackgroundImageFix"/>
<feColorMatrix in="SourceAlpha" type="matrix" values="0 0 0 0 0 0 0 0 0 0 0 0 0 0 0 0 0 0 127 0" result="hardAlpha"/>
<feOffset dx="4" dy="10"/>
<feGaussianBlur stdDeviation="11.5"/>
<feColorMatrix type="matrix" values="0 0 0 0 0 0 0 0 0 0 0 0 0 0 0 0 0 0 0.1 0"/>
<feBlend mode="normal" in2="BackgroundImageFix" result="effect1_dropShadow_206_486"/>
<feColorMatrix in="SourceAlpha" type="matrix" values="0 0 0 0 0 0 0 0 0 0 0 0 0 0 0 0 0 0 127 0" result="hardAlpha"/>
<feOffset dx="14" dy="40"/>
<feGaussianBlur stdDeviation="21"/>
<feColorMatrix type="matrix" values="0 0 0 0 0 0 0 0 0 0 0 0 0 0 0 0 0 0 0.09 0"/>
<feBlend mode="normal" in2="effect1_dropShadow_206_486" result="effect2_dropShadow_206_486"/>
<feColorMatrix in="SourceAlpha" type="matrix" values="0 0 0 0 0 0 0 0 0 0 0 0 0 0 0 0 0 0 127 0" result="hardAlpha"/>
<feOffset dx="32" dy="89"/>
<feGaussianBlur stdDeviation="28.5"/>
<feColorMatrix type="matrix" values="0 0 0 0 0 0 0 0 0 0 0 0 0 0 0 0 0 0 0.05 0"/>
<feBlend mode="normal" in2="effect2_dropShadow_206_486" result="effect3_dropShadow_206_486"/>
<feColorMatrix in="SourceAlpha" type="matrix" values="0 0 0 0 0 0 0 0 0 0 0 0 0 0 0 0 0 0 127 0" result="hardAlpha"/>
<feOffset dx="58" dy="158"/>
<feGaussianBlur stdDeviation="33.5"/>
<feColorMatrix type="matrix" values="0 0 0 0 0 0 0 0 0 0 0 0 0 0 0 0 0 0 0.01 0"/>
<feBlend mode="normal" in2="effect3_dropShadow_206_486" result="effect4_dropShadow_206_486"/>
<feBlend mode="normal" in="SourceGraphic" in2="effect4_dropShadow_206_486" result="shape"/>
</filter>
<filter id="filter1_f_206_486" x="59.562" y="48.3125" width="31.4074" height="31.4079" filterUnits="userSpaceOnUse" color-interpolation-filters="sRGB">
<feFlood flood-opacity="0" result="BackgroundImageFix"/>
<feBlend mode="normal" in="SourceGraphic" in2="BackgroundImageFix" result="shape"/>
<feGaussianBlur stdDeviation="7" result="effect1_foregroundBlur_206_486"/>
</filter>
<filter id="filter2_f_206_486" x="114.64" y="48.3125" width="31.4074" height="31.4079" filterUnits="userSpaceOnUse" color-interpolation-filters="sRGB">
<feFlood flood-opacity="0" result="BackgroundImageFix"/>
<feBlend mode="normal" in="SourceGraphic" in2="BackgroundImageFix" result="shape"/>
<feGaussianBlur stdDeviation="7" result="effect1_foregroundBlur_206_486"/>
</filter>
<filter id="filter3_f_206_486" x="169.72" y="48.3125" width="31.4074" height="31.4079" filterUnits="userSpaceOnUse" color-interpolation-filters="sRGB">
<feFlood flood-opacity="0" result="BackgroundImageFix"/>
<feBlend mode="normal" in="SourceGraphic" in2="BackgroundImageFix" result="shape"/>
<feGaussianBlur stdDeviation="7" result="effect1_foregroundBlur_206_486"/>
</filter>
<filter id="filter4_f_206_486" x="224.798" y="45.2517" width="37.5271" height="37.5295" filterUnits="userSpaceOnUse" color-interpolation-filters="sRGB">
<feFlood flood-opacity="0" result="BackgroundImageFix"/>
<feBlend mode="normal" in="SourceGraphic" in2="BackgroundImageFix" result="shape"/>
<feGaussianBlur stdDeviation="7" result="effect1_foregroundBlur_206_486"/>
</filter>
<filter id="filter5_f_206_486" x="285.996" y="48.3125" width="31.4074" height="31.4079" filterUnits="userSpaceOnUse" color-interpolation-filters="sRGB">
<feFlood flood-opacity="0" result="BackgroundImageFix"/>
<feBlend mode="normal" in="SourceGraphic" in2="BackgroundImageFix" result="shape"/>
<feGaussianBlur stdDeviation="7" result="effect1_foregroundBlur_206_486"/>
</filter>
<filter id="filter6_f_206_486" x="341.075" y="48.3125" width="31.4074" height="31.4079" filterUnits="userSpaceOnUse" color-interpolation-filters="sRGB">
<feFlood flood-opacity="0" result="BackgroundImageFix"/>
<feBlend mode="normal" in="SourceGraphic" in2="BackgroundImageFix" result="shape"/>
<feGaussianBlur stdDeviation="7" result="effect1_foregroundBlur_206_486"/>
</filter>
<filter id="filter7_f_206_486" x="396.154" y="48.3125" width="31.4074" height="31.4079" filterUnits="userSpaceOnUse" color-interpolation-filters="sRGB">
<feFlood flood-opacity="0" result="BackgroundImageFix"/>
<feBlend mode="normal" in="SourceGraphic" in2="BackgroundImageFix" result="shape"/>
<feGaussianBlur stdDeviation="7" result="effect1_foregroundBlur_206_486"/>
</filter>
<linearGradient id="paint0_linear_206_486" x1="1017.57" y1="33.9559" x2="973.016" y2="338.624" gradientUnits="userSpaceOnUse">
<stop/>
<stop offset="0.255" stop-color="#666666"/>
<stop offset="0.35" stop-color="white"/>
<stop offset="0.52" stop-color="#939393"/>
<stop offset="0.62" stop-color="#0E0E0E"/>
<stop offset="0.805" stop-color="#5E5E5E"/>
</linearGradient>
<linearGradient id="paint1_linear_206_486" x1="1051.95" y1="39.1822" x2="1007.4" y2="343.85" gradientUnits="userSpaceOnUse">
<stop/>
<stop offset="0.255" stop-color="#666666"/>
<stop offset="0.35" stop-color="white"/>
<stop offset="0.52" stop-color="#939393"/>
<stop offset="0.62" stop-color="#0E0E0E"/>
<stop offset="0.805" stop-color="#5E5E5E"/>
</linearGradient>
<linearGradient id="paint2_linear_206_486" x1="1086.35" y1="44.4121" x2="1041.8" y2="349.08" gradientUnits="userSpaceOnUse">
<stop/>
<stop offset="0.255" stop-color="#666666"/>
<stop offset="0.35" stop-color="white"/>
<stop offset="0.52" stop-color="#939393"/>
<stop offset="0.62" stop-color="#0E0E0E"/>
<stop offset="0.805" stop-color="#5E5E5E"/>
</linearGradient>
<linearGradient id="paint3_linear_206_486" x1="1120.75" y1="49.6384" x2="1076.2" y2="354.306" gradientUnits="userSpaceOnUse">
<stop/>
<stop offset="0.255" stop-color="#666666"/>
<stop offset="0.35" stop-color="white"/>
<stop offset="0.52" stop-color="#939393"/>
<stop offset="0.62" stop-color="#0E0E0E"/>
<stop offset="0.805" stop-color="#5E5E5E"/>
</linearGradient>
<linearGradient id="paint4_linear_206_486" x1="1155.13" y1="54.8685" x2="1110.58" y2="359.537" gradientUnits="userSpaceOnUse">
<stop/>
<stop offset="0.255" stop-color="#666666"/>
<stop offset="0.35" stop-color="white"/>
<stop offset="0.52" stop-color="#939393"/>
<stop offset="0.62" stop-color="#0E0E0E"/>
<stop offset="0.805" stop-color="#5E5E5E"/>
</linearGradient>
<linearGradient id="paint5_linear_206_486" x1="1189.51" y1="60.0947" x2="1144.96" y2="364.763" gradientUnits="userSpaceOnUse">
<stop/>
<stop offset="0.255" stop-color="#666666"/>
<stop offset="0.35" stop-color="white"/>
<stop offset="0.52" stop-color="#939393"/>
<stop offset="0.62" stop-color="#0E0E0E"/>
<stop offset="0.805" stop-color="#5E5E5E"/>
</linearGradient>
<linearGradient id="paint6_linear_206_486" x1="-532.837" y1="33.9559" x2="-488.289" y2="338.624" gradientUnits="userSpaceOnUse">
<stop/>
<stop offset="0.255" stop-color="#666666"/>
<stop offset="0.35" stop-color="white"/>
<stop offset="0.52" stop-color="#939393"/>
<stop offset="0.62" stop-color="#0E0E0E"/>
<stop offset="0.805" stop-color="#5E5E5E"/>
</linearGradient>
<linearGradient id="paint7_linear_206_486" x1="-567.22" y1="39.1822" x2="-522.671" y2="343.85" gradientUnits="userSpaceOnUse">
<stop/>
<stop offset="0.255" stop-color="#666666"/>
<stop offset="0.35" stop-color="white"/>
<stop offset="0.52" stop-color="#939393"/>
<stop offset="0.62" stop-color="#0E0E0E"/>
<stop offset="0.805" stop-color="#5E5E5E"/>
</linearGradient>
<linearGradient id="paint8_linear_206_486" x1="-601.624" y1="44.4121" x2="-557.075" y2="349.08" gradientUnits="userSpaceOnUse">
<stop/>
<stop offset="0.255" stop-color="#666666"/>
<stop offset="0.35" stop-color="white"/>
<stop offset="0.52" stop-color="#939393"/>
<stop offset="0.62" stop-color="#0E0E0E"/>
<stop offset="0.805" stop-color="#5E5E5E"/>
</linearGradient>
<linearGradient id="paint9_linear_206_486" x1="-636.015" y1="49.6384" x2="-591.465" y2="354.306" gradientUnits="userSpaceOnUse">
<stop/>
<stop offset="0.255" stop-color="#666666"/>
<stop offset="0.35" stop-color="white"/>
<stop offset="0.52" stop-color="#939393"/>
<stop offset="0.62" stop-color="#0E0E0E"/>
<stop offset="0.805" stop-color="#5E5E5E"/>
</linearGradient>
<linearGradient id="paint10_linear_206_486" x1="-670.403" y1="54.8685" x2="-625.852" y2="359.537" gradientUnits="userSpaceOnUse">
<stop/>
<stop offset="0.255" stop-color="#666666"/>
<stop offset="0.35" stop-color="white"/>
<stop offset="0.52" stop-color="#939393"/>
<stop offset="0.62" stop-color="#0E0E0E"/>
<stop offset="0.805" stop-color="#5E5E5E"/>
</linearGradient>
<linearGradient id="paint11_linear_206_486" x1="-704.784" y1="60.0947" x2="-660.234" y2="364.763" gradientUnits="userSpaceOnUse">
<stop/>
<stop offset="0.255" stop-color="#666666"/>
<stop offset="0.35" stop-color="white"/>
<stop offset="0.52" stop-color="#939393"/>
<stop offset="0.62" stop-color="#0E0E0E"/>
<stop offset="0.805" stop-color="#5E5E5E"/>
</linearGradient>
<linearGradient id="paint12_linear_206_486" x1="1017.57" y1="94.2351" x2="973.016" y2="-210.433" gradientUnits="userSpaceOnUse">
<stop/>
<stop offset="0.255" stop-color="#666666"/>
<stop offset="0.35" stop-color="white"/>
<stop offset="0.52" stop-color="#939393"/>
<stop offset="0.62" stop-color="#0E0E0E"/>
<stop offset="0.805" stop-color="#5E5E5E"/>
</linearGradient>
<linearGradient id="paint13_linear_206_486" x1="1051.95" y1="89.0089" x2="1007.4" y2="-215.659" gradientUnits="userSpaceOnUse">
<stop/>
<stop offset="0.255" stop-color="#666666"/>
<stop offset="0.35" stop-color="white"/>
<stop offset="0.52" stop-color="#939393"/>
<stop offset="0.62" stop-color="#0E0E0E"/>
<stop offset="0.805" stop-color="#5E5E5E"/>
</linearGradient>
<linearGradient id="paint14_linear_206_486" x1="1086.35" y1="83.7788" x2="1041.8" y2="-220.889" gradientUnits="userSpaceOnUse">
<stop/>
<stop offset="0.255" stop-color="#666666"/>
<stop offset="0.35" stop-color="white"/>
<stop offset="0.52" stop-color="#939393"/>
<stop offset="0.62" stop-color="#0E0E0E"/>
<stop offset="0.805" stop-color="#5E5E5E"/>
</linearGradient>
<linearGradient id="paint15_linear_206_486" x1="1120.75" y1="78.5525" x2="1076.2" y2="-226.116" gradientUnits="userSpaceOnUse">
<stop/>
<stop offset="0.255" stop-color="#666666"/>
<stop offset="0.35" stop-color="white"/>
<stop offset="0.52" stop-color="#939393"/>
<stop offset="0.62" stop-color="#0E0E0E"/>
<stop offset="0.805" stop-color="#5E5E5E"/>
</linearGradient>
<linearGradient id="paint16_linear_206_486" x1="1155.13" y1="73.3224" x2="1110.58" y2="-231.345" gradientUnits="userSpaceOnUse">
<stop/>
<stop offset="0.255" stop-color="#666666"/>
<stop offset="0.35" stop-color="white"/>
<stop offset="0.52" stop-color="#939393"/>
<stop offset="0.62" stop-color="#0E0E0E"/>
<stop offset="0.805" stop-color="#5E5E5E"/>
</linearGradient>
<linearGradient id="paint17_linear_206_486" x1="1189.51" y1="68.0963" x2="1144.96" y2="-236.572" gradientUnits="userSpaceOnUse">
<stop/>
<stop offset="0.255" stop-color="#666666"/>
<stop offset="0.35" stop-color="white"/>
<stop offset="0.52" stop-color="#939393"/>
<stop offset="0.62" stop-color="#0E0E0E"/>
<stop offset="0.805" stop-color="#5E5E5E"/>
</linearGradient>
<linearGradient id="paint18_linear_206_486" x1="-532.837" y1="94.2351" x2="-488.289" y2="-210.433" gradientUnits="userSpaceOnUse">
<stop/>
<stop offset="0.255" stop-color="#666666"/>
<stop offset="0.35" stop-color="white"/>
<stop offset="0.52" stop-color="#939393"/>
<stop offset="0.62" stop-color="#0E0E0E"/>
<stop offset="0.805" stop-color="#5E5E5E"/>
</linearGradient>
<linearGradient id="paint19_linear_206_486" x1="-567.22" y1="89.0089" x2="-522.671" y2="-215.659" gradientUnits="userSpaceOnUse">
<stop/>
<stop offset="0.255" stop-color="#666666"/>
<stop offset="0.35" stop-color="white"/>
<stop offset="0.52" stop-color="#939393"/>
<stop offset="0.62" stop-color="#0E0E0E"/>
<stop offset="0.805" stop-color="#5E5E5E"/>
</linearGradient>
<linearGradient id="paint20_linear_206_486" x1="-601.624" y1="83.7788" x2="-557.076" y2="-220.889" gradientUnits="userSpaceOnUse">
<stop/>
<stop offset="0.255" stop-color="#666666"/>
<stop offset="0.35" stop-color="white"/>
<stop offset="0.52" stop-color="#939393"/>
<stop offset="0.62" stop-color="#0E0E0E"/>
<stop offset="0.805" stop-color="#5E5E5E"/>
</linearGradient>
<linearGradient id="paint21_linear_206_486" x1="-636.015" y1="78.5525" x2="-591.465" y2="-226.116" gradientUnits="userSpaceOnUse">
<stop/>
<stop offset="0.255" stop-color="#666666"/>
<stop offset="0.35" stop-color="white"/>
<stop offset="0.52" stop-color="#939393"/>
<stop offset="0.62" stop-color="#0E0E0E"/>
<stop offset="0.805" stop-color="#5E5E5E"/>
</linearGradient>
<linearGradient id="paint22_linear_206_486" x1="-670.403" y1="73.3224" x2="-625.852" y2="-231.345" gradientUnits="userSpaceOnUse">
<stop/>
<stop offset="0.255" stop-color="#666666"/>
<stop offset="0.35" stop-color="white"/>
<stop offset="0.52" stop-color="#939393"/>
<stop offset="0.62" stop-color="#0E0E0E"/>
<stop offset="0.805" stop-color="#5E5E5E"/>
</linearGradient>
<linearGradient id="paint23_linear_206_486" x1="-704.784" y1="68.0963" x2="-660.234" y2="-236.572" gradientUnits="userSpaceOnUse">
<stop/>
<stop offset="0.255" stop-color="#666666"/>
<stop offset="0.35" stop-color="white"/>
<stop offset="0.52" stop-color="#939393"/>
<stop offset="0.62" stop-color="#0E0E0E"/>
<stop offset="0.805" stop-color="#5E5E5E"/>
</linearGradient>
<linearGradient id="paint24_linear_206_486" x1="-nan" y1="-nan" x2="-nan" y2="-nan" gradientUnits="userSpaceOnUse">
<stop/>
<stop offset="0.500136" stop-color="white"/>
<stop offset="1"/>
</linearGradient>
<linearGradient id="paint25_linear_206_486" x1="234.722" y1="94.3035" x2="234.042" y2="56.8944" gradientUnits="userSpaceOnUse">
<stop stop-color="#0D0D0E"/>
<stop offset="1" stop-color="#0D0D0E" stop-opacity="0"/>
</linearGradient>
<clipPath id="clip0_206_486">
<rect width="431" height="102" fill="white" transform="translate(28.0071 13.0033) scale(1.00025)"/>
</clipPath>
</defs>
</svg>
