<svg width="102" height="89" viewBox="0 0 102 89" fill="none" xmlns="http://www.w3.org/2000/svg">
<path d="M58.9984 8.97647C55.9686 4.01882 49.4949 2.45511 44.539 5.48381C39.583 8.51252 38.0214 14.9867 41.0512 19.9444L77.7667 80.0233C80.7964 84.9809 87.2701 86.5446 92.2261 83.5159C97.182 80.4872 98.7436 74.013 95.7139 69.0553L58.9984 8.97647Z" fill="white"/>
<path d="M59.269 69.9452C58.6834 68.7598 57.9849 67.6168 57.2934 66.4879L41.813 41.2071C40.5289 39.0903 39.2024 36.9736 37.2974 35.3861C35.1818 33.7531 32.5652 32.9047 29.8939 32.9858C27.2226 33.0668 24.6622 34.0723 22.6496 35.8306C21.3442 37.1309 20.2151 38.5969 19.291 40.191C17.5694 42.924 15.9231 45.7063 14.352 48.538C11.5297 53.724 9.78693 58.9311 11.5297 64.7663C12.2561 67.2168 13.4622 69.4986 15.0781 71.479C16.6939 73.4594 18.6872 75.099 20.9421 76.3024L21.0762 76.373C25.0697 78.398 29.6418 78.9413 33.7765 80.6558C39.026 82.822 43.7746 86.9143 49.4544 86.8931C51.3205 86.8748 53.1545 86.4051 54.7997 85.5241C56.4448 84.6432 57.8524 83.3771 58.9021 81.8341C60.4879 79.4211 61.0841 76.4903 60.5673 73.6495C60.3071 72.3608 59.8702 71.1143 59.269 69.9452Z" fill="white"/>
<path d="M6.8161 61.2041C4.99571 63.9794 3.31644 66.8346 1.77828 69.7698C0.451795 72.2958 -0.33845 74.7723 0.141342 77.644C0.611448 80.4877 2.15531 83.0423 4.45429 84.7806C6.75326 86.519 9.63188 87.3084 12.496 86.9859C16.6518 86.5131 20.1586 83.8178 24.0181 82.2232C19.4743 80.5841 15.4001 77.8591 12.1503 74.2855C8.89644 70.6834 7.00886 66.0544 6.8161 61.2041Z" fill="white"/>
</svg>
