<svg width="37" height="32" viewBox="0 0 37 32" fill="none" xmlns="http://www.w3.org/2000/svg">
<path d="M21.2127 3.22738C20.1234 1.44486 17.7958 0.882625 16.0138 1.9716C14.2319 3.06057 13.6705 5.38838 14.7598 7.1709L27.9609 28.7723C29.0502 30.5548 31.3778 31.1171 33.1598 30.0281C34.9417 28.9391 35.5031 26.6113 34.4138 24.8288L21.2127 3.22738Z" fill="url(#paint0_linear_1_1434)"/>
<path d="M21.3102 25.1491C21.0996 24.7229 20.8484 24.3119 20.5998 23.906L15.0339 14.8163C14.5721 14.0552 14.0952 13.2941 13.4102 12.7233C12.6496 12.1362 11.7088 11.8312 10.7483 11.8603C9.78786 11.8895 8.86727 12.251 8.14363 12.8832C7.67428 13.3507 7.26829 13.8778 6.93606 14.451C6.31705 15.4336 5.72511 16.434 5.16023 17.4521C4.14546 19.3167 3.51885 21.189 4.14546 23.287C4.40664 24.1681 4.84031 24.9885 5.42128 25.7006C6.00225 26.4126 6.71894 27.0021 7.52969 27.4348L7.5779 27.4602C9.01378 28.1883 10.6577 28.3836 12.1443 29.0001C14.0318 29.7789 15.7391 31.2503 17.7813 31.2427C18.4523 31.2361 19.1117 31.0672 19.7032 30.7505C20.2947 30.4337 20.8008 29.9785 21.1782 29.4238C21.7484 28.5562 21.9628 27.5024 21.777 26.481C21.6834 26.0176 21.5263 25.5694 21.3102 25.1491Z" fill="url(#paint1_linear_1_1434)"/>
<path d="M2.45073 22.0059C1.79621 23.0037 1.19243 24.0303 0.639381 25.0857C0.162443 25.9939 -0.12169 26.8843 0.0508196 27.9168C0.219847 28.9393 0.774944 29.8578 1.60154 30.4828C2.42814 31.1078 3.46315 31.3917 4.49294 31.2757C5.98718 31.1057 7.24802 30.1366 8.6357 29.5633C7.002 28.9739 5.53713 27.9942 4.36863 26.7093C3.19872 25.4142 2.52004 23.7498 2.45073 22.0059Z" fill="url(#paint2_linear_1_1434)"/>
<defs>
<linearGradient id="paint0_linear_1_1434" x1="19.782" y1="-7.44551" x2="27.035" y2="27.9621" gradientUnits="userSpaceOnUse">
<stop stop-color="#CCE0F4"/>
<stop offset="0.18" stop-color="#7AB0DB"/>
<stop offset="0.35" stop-color="#2F83C3"/>
<stop offset="0.43" stop-color="#1172BA"/>
<stop offset="0.62" stop-color="#4555A8"/>
<stop offset="0.79" stop-color="#6F3E9A"/>
<stop offset="0.92" stop-color="#892F91"/>
<stop offset="1" stop-color="#932A8E"/>
</linearGradient>
<linearGradient id="paint1_linear_1_1434" x1="6.8701" y1="-4.80161" x2="14.1256" y2="30.6085" gradientUnits="userSpaceOnUse">
<stop stop-color="#CCE0F4"/>
<stop offset="0.18" stop-color="#7AB0DB"/>
<stop offset="0.35" stop-color="#2F83C3"/>
<stop offset="0.43" stop-color="#1172BA"/>
<stop offset="0.62" stop-color="#4555A8"/>
<stop offset="0.79" stop-color="#6F3E9A"/>
<stop offset="0.92" stop-color="#892F91"/>
<stop offset="1" stop-color="#932A8E"/>
</linearGradient>
<linearGradient id="paint2_linear_1_1434" x1="-2.15121" y1="-2.95221" x2="5.10434" y2="32.4554" gradientUnits="userSpaceOnUse">
<stop stop-color="#CCE0F4"/>
<stop offset="0.18" stop-color="#7AB0DB"/>
<stop offset="0.35" stop-color="#2F83C3"/>
<stop offset="0.43" stop-color="#1172BA"/>
<stop offset="0.62" stop-color="#4555A8"/>
<stop offset="0.79" stop-color="#6F3E9A"/>
<stop offset="0.92" stop-color="#892F91"/>
<stop offset="1" stop-color="#932A8E"/>
</linearGradient>
</defs>
</svg>
