<svg preserveAspectRatio="none" width="100%" height="100%" overflow="visible" style="display: block;" viewBox="0 0 41.4124 36.4203" fill="none" xmlns="http://www.w3.org/2000/svg">
<g id="Group 1261156753">
<path id="Vector" d="M24.1429 3.67341C22.9031 1.64465 20.2539 1.00475 18.2259 2.24415C16.1978 3.48355 15.5588 6.13291 16.7986 8.16166L31.8232 32.7469C33.063 34.7757 35.7121 35.4156 37.7402 34.1762C39.7683 32.9368 40.4073 30.2874 39.1675 28.2587L24.1429 3.67341Z" fill="var(--fill-0, white)"/>
<path id="Vector_2" d="M24.3774 28.4595C24.1311 27.9758 23.8372 27.5094 23.5463 27.0487L17.0336 16.7325C16.4934 15.8687 15.9353 15.0049 15.1338 14.3571C14.2438 13.6907 13.143 13.3446 12.0192 13.3776C10.8953 13.4107 9.81818 13.821 8.97145 14.5385C8.42227 15.0691 7.94723 15.6674 7.55849 16.3179C6.8342 17.4331 6.14158 18.5684 5.48061 19.724C4.29326 21.8402 3.56006 23.9651 4.29326 26.3462C4.59885 27.3462 5.10629 28.2773 5.78607 29.0854C6.46586 29.8936 7.30444 30.5626 8.2531 31.0537L8.3095 31.0825C9.98961 31.9088 11.9131 32.1305 13.6526 32.8302C15.8611 33.7141 17.8588 35.3841 20.2484 35.3754C21.0335 35.3679 21.805 35.1763 22.4971 34.8168C23.1893 34.4573 23.7814 33.9407 24.2231 33.311C24.8902 32.3263 25.1411 31.1304 24.9236 29.9711C24.8141 29.4453 24.6304 28.9366 24.3774 28.4595Z" fill="var(--fill-0, white)"/>
<path id="Vector_3" d="M2.83791 25.3755C2.07998 26.449 1.38081 27.5534 0.740393 28.6888C0.188107 29.6658 -0.140915 30.6238 0.0588482 31.7346C0.254579 32.8346 0.897372 33.8227 1.85456 34.4951C2.81175 35.1675 4.01027 35.4729 5.20275 35.3481C6.93305 35.1653 8.39308 34.1227 10 33.5059C8.1082 32.8719 6.4119 31.8178 5.0588 30.4355C3.70406 29.0422 2.91816 27.2516 2.83791 25.3755Z" fill="var(--fill-0, white)"/>
</g>
</svg>
