<svg preserveAspectRatio="none" width="100%" height="100%" overflow="visible" style="display: block;" viewBox="0 0 33 33" fill="none" xmlns="http://www.w3.org/2000/svg">
<g id="coins 1">
<path id="coins" d="M29.9062 19.6199C29.9062 16.8836 26.4234 14.7758 21.6562 14.509V8.23625C21.6562 4.68325 16.9936 3.09375 12.375 3.09375C7.75637 3.09375 3.09512 4.68325 3.09375 8.23625V23.3888C3.09375 26.9404 7.755 28.5313 12.375 28.5313C12.8521 28.5313 13.3375 28.4873 13.8284 28.4391C15.9414 29.4723 18.274 29.9758 20.625 29.9063C25.2436 29.9063 29.9062 28.3154 29.9062 24.7638V19.6213V19.6199ZM27.8437 19.6199C27.8437 21.0746 24.7569 22.7013 20.625 22.7013C16.4931 22.7013 13.4062 21.0746 13.4062 19.6199C13.4594 19.2841 13.5915 18.9657 13.7919 18.691C13.9922 18.4163 14.255 18.1932 14.5585 18.04C14.5818 18.0252 14.6043 18.0091 14.6259 17.9919C16.4562 16.9711 18.5305 16.4695 20.625 16.5413C24.7569 16.5413 27.8437 18.1679 27.8437 19.6226V19.6199ZM19.5937 13.101C19.5439 13.4159 19.422 13.7151 19.2377 13.9753C19.0533 14.2355 18.8115 14.4496 18.5309 14.6011C16.8409 14.7619 15.2039 15.2773 13.7266 16.1136C13.288 16.1508 12.8439 16.1783 12.375 16.1783C8.4865 16.1783 5.15625 14.4843 5.15625 13.0983V11.6572C7.35962 12.881 9.85646 13.4769 12.375 13.3801C14.8935 13.4769 17.3904 12.881 19.5937 11.6572V13.101ZM5.15625 16.2924C7.12251 17.4943 9.36882 18.1612 11.6724 18.227C11.4606 18.6611 11.3484 19.1369 11.3437 19.6199V21.2809C7.91725 21.0183 5.15625 19.5071 5.15625 18.2449V16.2924ZM12.375 5.15625C15.9239 5.15625 19.5937 6.3085 19.5937 8.23763C19.5937 10.2383 15.8812 11.3176 12.375 11.3176C8.86875 11.3176 5.15625 10.2383 5.15625 8.23763C5.15625 6.3085 8.82612 5.15625 12.375 5.15625ZM5.15625 23.3888V21.4349C7.025 22.583 9.15312 23.2413 11.3437 23.3489V24.7638C11.3408 25.3532 11.4824 25.9344 11.7562 26.4564C8.41362 26.3313 5.15625 25.2051 5.15625 23.3888ZM20.625 27.8438C18.5899 27.9062 16.5702 27.471 14.7414 26.576C14.3788 26.4187 14.0644 26.1681 13.8301 25.8498C13.5958 25.5314 13.45 25.1567 13.4076 24.7638V22.9295C15.5861 24.2246 18.0924 24.8625 20.625 24.7665C23.158 24.8628 25.6649 24.2248 27.8437 22.9295V24.7638C27.8437 26.6915 24.1739 27.8438 20.625 27.8438Z" fill="var(--fill-0, #922B8E)"/>
</g>
</svg>
