<svg preserveAspectRatio="none" width="100%" height="100%" overflow="visible" style="display: block;" viewBox="0 0 26 26" fill="none" xmlns="http://www.w3.org/2000/svg">
<g id="workflow 1">
<path id="Vector" d="M17.8753 16.5208H8.12533C7.08533 16.5208 6.22949 15.665 6.22949 14.625V11.375C6.22949 10.335 7.08533 9.47913 8.12533 9.47913H17.8753C18.9153 9.47913 19.7712 10.335 19.7712 11.375V14.625C19.7712 15.665 18.9153 16.5208 17.8753 16.5208ZM8.12533 11.1041C7.97366 11.1041 7.85449 11.2233 7.85449 11.375V14.625C7.85449 14.7766 7.97366 14.8958 8.12533 14.8958H17.8753C18.027 14.8958 18.1462 14.7766 18.1462 14.625V11.375C18.1462 11.2233 18.027 11.1041 17.8753 11.1041H8.12533Z" fill="var(--fill-0, #932A8E)"/>
<path id="Vector_2" d="M17.8753 8.39579H8.12533C7.08533 8.39579 6.22949 7.53996 6.22949 6.49996V3.24996C6.22949 2.20996 7.08533 1.35413 8.12533 1.35413H17.8753C18.9153 1.35413 19.7712 2.20996 19.7712 3.24996V6.49996C19.7712 7.53996 18.9153 8.39579 17.8753 8.39579ZM8.12533 2.97913C7.97366 2.97913 7.85449 3.09829 7.85449 3.24996V6.49996C7.85449 6.65163 7.97366 6.77079 8.12533 6.77079H17.8753C18.027 6.77079 18.1462 6.65163 18.1462 6.49996V3.24996C18.1462 3.09829 18.027 2.97913 17.8753 2.97913H8.12533Z" fill="var(--fill-0, #932A8E)"/>
<path id="Vector_3" d="M17.8753 24.6458H8.12533C7.08533 24.6458 6.22949 23.79 6.22949 22.75V19.5C6.22949 18.46 7.08533 17.6041 8.12533 17.6041H17.8753C18.9153 17.6041 19.7712 18.46 19.7712 19.5V22.75C19.7712 23.79 18.9153 24.6458 17.8753 24.6458ZM8.12533 19.2291C7.97366 19.2291 7.85449 19.3483 7.85449 19.5V22.75C7.85449 22.9016 7.97366 23.0208 8.12533 23.0208H17.8753C18.027 23.0208 18.1462 22.9016 18.1462 22.75V19.5C18.1462 19.3483 18.027 19.2291 17.8753 19.2291H8.12533Z" fill="var(--fill-0, #932A8E)"/>
<path id="Vector_4" d="M2.16624 7.31248C1.9604 7.31248 1.75457 7.23664 1.59207 7.07414C1.2779 6.75998 1.2779 6.23998 1.59207 5.92581L2.6429 4.87498L1.59207 3.82414C1.2779 3.50998 1.2779 2.98998 1.59207 2.67581C1.90624 2.36164 2.42624 2.36164 2.7404 2.67581L4.3654 4.30081C4.67957 4.61498 4.67957 5.13498 4.3654 5.44914L2.7404 7.07414C2.5779 7.23664 2.37207 7.31248 2.16624 7.31248Z" fill="var(--fill-0, #932A8E)"/>
<path id="Vector_5" d="M22.2083 23.5625C22.0025 23.5625 21.7967 23.4867 21.6342 23.3242C21.32 23.01 21.32 22.49 21.6342 22.1758L22.685 21.125L21.6342 20.0742C21.32 19.76 21.32 19.24 21.6342 18.9258C21.9483 18.6117 22.4683 18.6117 22.7825 18.9258L24.4075 20.5508C24.7217 20.865 24.7217 21.385 24.4075 21.6992L22.7825 23.3242C22.62 23.4867 22.4142 23.5625 22.2083 23.5625Z" fill="var(--fill-0, #932A8E)"/>
<path id="Vector_6" d="M21.6667 13.8125H21.125C20.6808 13.8125 20.3125 13.4442 20.3125 13C20.3125 12.5558 20.6808 12.1875 21.125 12.1875H21.6667C22.4142 12.1875 23.0208 11.5808 23.0208 10.8333V7.04167C23.0208 6.29417 22.4142 5.6875 21.6667 5.6875H21.125C20.6808 5.6875 20.3125 5.31917 20.3125 4.875C20.3125 4.43083 20.6808 4.0625 21.125 4.0625H21.6667C23.3133 4.0625 24.6458 5.395 24.6458 7.04167V10.8333C24.6458 12.48 23.3133 13.8125 21.6667 13.8125Z" fill="var(--fill-0, #932A8E)"/>
<path id="Vector_7" d="M4.87533 21.9375H4.33366C2.68699 21.9375 1.35449 20.605 1.35449 18.9583V15.1667C1.35449 13.52 2.68699 12.1875 4.33366 12.1875H4.87533C5.31949 12.1875 5.68783 12.5558 5.68783 13C5.68783 13.4442 5.31949 13.8125 4.87533 13.8125H4.33366C3.58616 13.8125 2.97949 14.4192 2.97949 15.1667V18.9583C2.97949 19.7058 3.58616 20.3125 4.33366 20.3125H4.87533C5.31949 20.3125 5.68783 20.6808 5.68783 21.125C5.68783 21.5692 5.31949 21.9375 4.87533 21.9375Z" fill="var(--fill-0, #932A8E)"/>
</g>
</svg>
