<svg width="39" height="39" viewBox="0 0 39 39" fill="none" xmlns="http://www.w3.org/2000/svg">
<g clip-path="url(#clip0_2175_1623)">
<path d="M16.2496 39C19.1926 39 21.6545 36.902 22.2198 34.125H10.2793C10.8449 36.902 13.3068 39 16.2496 39Z" fill="white"/>
<path d="M28.5609 23.5559C28.5186 23.5559 28.4797 23.5624 28.4374 23.5624C21.2695 23.5624 15.4376 17.7305 15.4376 10.5626C15.4376 7.74632 16.3475 5.14487 17.8751 3.01266V1.6249C17.8751 0.726311 17.147 0 16.2499 0C15.3531 0 14.625 0.726311 14.625 1.6249V3.38013C9.12099 4.17309 4.875 8.90675 4.875 14.625V19.1554C4.875 22.3713 3.46612 25.4069 0.9944 27.4966C0.362411 28.0378 0 28.8242 0 29.6561C0 31.2245 1.27558 32.5001 2.84365 32.5001H29.6561C31.2245 32.5001 32.5001 31.2245 32.5001 29.6561C32.5001 28.8242 32.1377 28.0378 31.4893 27.4838C30.2087 26.3998 29.2208 25.051 28.5609 23.5559Z" fill="white"/>
<path d="M28.4373 0C22.6134 0 17.875 4.73843 17.875 10.5626C17.875 16.3865 22.6134 21.1249 28.4373 21.1249C34.2615 21.1249 38.9999 16.3865 38.9999 10.5626C38.9999 4.73843 34.2615 0 28.4373 0ZM30.0625 14.2188C30.0625 14.8916 29.5165 15.4376 28.8438 15.4376C28.171 15.4376 27.625 14.8916 27.625 14.2188V8.9374H26.8124C26.1396 8.9374 25.5937 8.3914 25.5937 7.71865C25.5937 7.0459 26.1396 6.4999 26.8124 6.4999H28.8438C29.5165 6.4999 30.0625 7.0459 30.0625 7.71865V14.2188Z" fill="white"/>
</g>
<defs>
<clipPath id="clip0_2175_1623">
<rect width="39" height="39" fill="white"/>
</clipPath>
</defs>
</svg>
