<svg width="27" height="27" viewBox="0 0 27 27" fill="none" xmlns="http://www.w3.org/2000/svg">
<path d="M26.1562 10.125H23.2031V8.4375H24.4688C24.5286 8.43748 24.5877 8.42475 24.6422 8.40015C24.6967 8.37554 24.7454 8.33963 24.7849 8.29478C24.8245 8.24994 24.8541 8.1972 24.8717 8.14005C24.8894 8.0829 24.8947 8.02266 24.8873 7.96331L24.4654 4.58831C24.4526 4.4863 24.4031 4.39245 24.326 4.3244C24.2489 4.25635 24.1497 4.21878 24.0469 4.21875H21.5156C21.4128 4.21878 21.3136 4.25635 21.2365 4.3244C21.1594 4.39245 21.1099 4.4863 21.0971 4.58831L20.6752 7.96331C20.6678 8.02266 20.6731 8.0829 20.6908 8.14005C20.7084 8.1972 20.738 8.24994 20.7776 8.29478C20.8171 8.33963 20.8658 8.37554 20.9203 8.40015C20.9748 8.42475 21.0339 8.43748 21.0938 8.4375H22.3594V10.125H20.25V8.85938C20.2493 8.18825 19.9824 7.54481 19.5079 7.07025C19.0333 6.59569 18.3899 6.3288 17.7188 6.32812H5.0625C4.39138 6.3288 3.74793 6.59569 3.27338 7.07025C2.79882 7.54481 2.53192 8.18825 2.53125 8.85938V13.5422C2.05513 13.6401 1.62732 13.8992 1.31993 14.2757C1.01254 14.6523 0.844364 15.1233 0.84375 15.6094V17.7188C0.731862 17.7188 0.624556 17.7632 0.545439 17.8423C0.466322 17.9214 0.421875 18.0287 0.421875 18.1406V22.3594C0.421875 22.4713 0.466322 22.5786 0.545439 22.6577C0.624556 22.7368 0.731862 22.7812 0.84375 22.7812H2.10938C2.19795 22.7813 2.28429 22.7534 2.35615 22.7016C2.42801 22.6498 2.48174 22.5767 2.50973 22.4927L3.2573 20.25H19.524L20.2715 22.4927C20.2995 22.5767 20.3532 22.6498 20.4251 22.7016C20.497 22.7534 20.5833 22.7813 20.6719 22.7812H21.9375C22.0494 22.7812 22.1567 22.7368 22.2358 22.6577C22.3149 22.5786 22.3594 22.4713 22.3594 22.3594V20.6719H26.1562C26.2681 20.6719 26.3754 20.6274 26.4546 20.5483C26.5337 20.4692 26.5781 20.3619 26.5781 20.25V10.5469C26.5781 10.435 26.5337 10.3277 26.4546 10.2486C26.3754 10.1694 26.2681 10.125 26.1562 10.125ZM21.8881 5.0625H23.6744L23.9908 7.59375H21.5717L21.8881 5.0625ZM25.7344 10.9688V13.5H20.25V10.9688H25.7344ZM5.0625 7.17188H17.7188C18.1663 7.17188 18.5955 7.34966 18.912 7.66613C19.2285 7.9826 19.4062 8.41182 19.4062 8.85938V13.5H18.4849C18.5348 13.3649 18.5611 13.2222 18.5625 13.0781V11.3906C18.5625 11.055 18.4292 10.733 18.1918 10.4957C17.9545 10.2583 17.6325 10.125 17.2969 10.125H13.5C13.1643 10.125 12.8424 10.2583 12.6051 10.4957C12.3677 10.733 12.2344 11.055 12.2344 11.3906V13.0781C12.2358 13.2222 12.262 13.3649 12.312 13.5H10.4692C10.5192 13.3649 10.5455 13.2222 10.5469 13.0781V11.3906C10.5469 11.055 10.4135 10.733 10.1762 10.4957C9.93883 10.2583 9.61691 10.125 9.28125 10.125H5.48438C5.14871 10.125 4.82679 10.2583 4.58944 10.4957C4.35209 10.733 4.21875 11.055 4.21875 11.3906V13.0781C4.22015 13.2222 4.24641 13.3649 4.29638 13.5H3.375V8.85938C3.375 8.41182 3.55279 7.9826 3.86926 7.66613C4.18572 7.34966 4.61495 7.17188 5.0625 7.17188ZM13.0781 13.0781V11.3906C13.0781 11.2787 13.1226 11.1714 13.2017 11.0923C13.2808 11.0132 13.3881 10.9688 13.5 10.9688H17.2969C17.4088 10.9688 17.5161 11.0132 17.5952 11.0923C17.6743 11.1714 17.7188 11.2787 17.7188 11.3906V13.0781C17.7188 13.19 17.6743 13.2973 17.5952 13.3764C17.5161 13.4556 17.4088 13.5 17.2969 13.5H13.5C13.3881 13.5 13.2808 13.4556 13.2017 13.3764C13.1226 13.2973 13.0781 13.19 13.0781 13.0781ZM5.0625 13.0781V11.3906C5.0625 11.2787 5.10695 11.1714 5.18606 11.0923C5.26518 11.0132 5.37249 10.9688 5.48438 10.9688H9.28125C9.39314 10.9688 9.50044 11.0132 9.57956 11.0923C9.65868 11.1714 9.70312 11.2787 9.70312 11.3906V13.0781C9.70312 13.19 9.65868 13.2973 9.57956 13.3764C9.50044 13.4556 9.39314 13.5 9.28125 13.5H5.48438C5.37249 13.5 5.26518 13.4556 5.18606 13.3764C5.10695 13.2973 5.0625 13.19 5.0625 13.0781ZM1.6875 15.6094C1.6875 15.2737 1.82084 14.9518 2.05819 14.7144C2.29554 14.4771 2.61746 14.3438 2.95312 14.3438H19.8281C20.1638 14.3438 20.4857 14.4771 20.7231 14.7144C20.9604 14.9518 21.0938 15.2737 21.0938 15.6094V17.7188H1.6875V15.6094ZM1.8052 21.9375H1.26562V20.25H2.36756L1.8052 21.9375ZM2.95312 19.4062H1.26562V18.5625H21.5156V19.4062H2.95312ZM20.976 21.9375L20.4137 20.25H21.5156V21.9375H20.976ZM22.3594 19.8281V18.1406C22.3594 18.0287 22.3149 17.9214 22.2358 17.8423C22.1567 17.7632 22.0494 17.7188 21.9375 17.7188V15.6094C21.9359 15.1514 21.7839 14.7067 21.5047 14.3438H25.7344V19.8281H22.3594Z" fill="#932A8E"/>
<path d="M23.2031 11.8125H22.3594V12.6562H23.2031V11.8125Z" fill="#932A8E"/>
</svg>
