<svg width="40" height="40" viewBox="0 0 40 40" fill="none" xmlns="http://www.w3.org/2000/svg">
<path d="M19.6348 6.17188H31.2496V10.468H19.6348V6.17188Z" fill="#932A8E"/>
<path d="M34.502 0H16.3824C14.7293 0 13.3848 1.34453 13.3848 2.99766V30.9805C13.3848 31.6281 13.909 32.1523 14.5566 32.1523H34.502C36.1543 32.1523 37.4996 30.8078 37.4996 29.1555V2.99766C37.4996 1.34453 36.1543 0 34.502 0ZM21.9473 29.218H18.4629C17.8152 29.218 17.291 28.6937 17.291 28.0461C17.291 27.3992 17.8152 26.8742 18.4629 26.8742H21.9473C22.5941 26.8742 23.1191 27.3992 23.1191 28.0461C23.1191 28.6937 22.5941 29.218 21.9473 29.218ZM30.652 25.3117H18.4629C17.8152 25.3117 17.291 24.7875 17.291 24.1398C17.291 23.493 17.8152 22.968 18.4629 22.968H30.652C31.2988 22.968 31.8238 23.493 31.8238 24.1398C31.8238 24.7875 31.2988 25.3117 30.652 25.3117ZM17.291 20.2336C17.291 19.5867 17.8152 19.0617 18.4629 19.0617H29.2965C29.9434 19.0617 30.4684 19.5867 30.4684 20.2336C30.4684 20.8812 29.9434 21.4055 29.2965 21.4055H18.4629C17.8152 21.4055 17.291 20.8812 17.291 20.2336ZM32.4215 17.4992H18.4629C17.8152 17.4992 17.291 16.975 17.291 16.3273C17.291 15.6805 17.8152 15.1555 18.4629 15.1555H32.4215C33.0684 15.1555 33.5934 15.6805 33.5934 16.3273C33.5934 16.975 33.0684 17.4992 32.4215 17.4992ZM33.5934 11.6398C33.5934 12.2875 33.0684 12.8117 32.4215 12.8117H18.4629C17.8152 12.8117 17.291 12.2875 17.291 11.6398V5C17.291 4.35313 17.8152 3.82812 18.4629 3.82812H32.4215C33.0684 3.82812 33.5934 4.35313 33.5934 5V11.6398Z" fill="#932A8E"/>
<path d="M11.0414 30.9805V6.28516H5.49375C3.84297 6.28516 2.5 7.62969 2.5 9.28203V37.0023C2.5 38.6555 3.84297 40 5.49375 40H23.257L12.9797 34.1219C11.8313 33.543 11.0414 32.3523 11.0414 30.9805Z" fill="#932A8E"/>
<path d="M26.5947 39.0422C26.6072 38.9727 26.6143 38.9016 26.6143 38.8281V34.4961H18.5166L26.5947 39.0422Z" fill="#932A8E"/>
</svg>
