<svg width="19" height="19" viewBox="0 0 19 19" fill="none" xmlns="http://www.w3.org/2000/svg">
<path fill-rule="evenodd" clip-rule="evenodd" d="M8.23651 17.7368C3.69326 17.7368 0 14.0435 0 9.50023C0 4.95697 3.69326 1.26367 8.23651 1.26367C10.3199 1.26367 12.2749 2.02035 13.7981 3.41661C13.2915 3.71619 12.8026 4.04802 12.3323 4.40721C11.1782 3.47613 9.74312 2.96349 8.23651 2.96349C4.63591 2.96349 1.69982 5.89963 1.69982 9.50023C1.69982 13.1008 4.63591 16.037 8.23651 16.037C13.2464 16.037 16.2208 10.6818 14.066 6.51802C14.3926 6.21433 14.7287 5.91996 15.0737 5.63542C15.1756 5.5514 15.2783 5.46816 15.3818 5.38576C16.1027 6.63076 16.4732 8.04235 16.4732 9.50018C16.4731 14.0435 12.7798 17.7368 8.23651 17.7368Z" fill="#932A8E"/>
<path fill-rule="evenodd" clip-rule="evenodd" d="M8.45267 13.7346C8.35997 13.7346 8.28269 13.6728 8.25179 13.5956C8.23636 13.5647 6.90735 10.134 4.85207 8.83596C4.45028 8.58871 4.14127 8.326 4.26488 7.73876C4.38848 7.167 4.77484 6.84248 5.4702 6.68793C6.70643 6.42522 8.0354 8.34142 8.52994 9.12958C10.2607 6.6107 13.7222 2.65464 18.7599 2.19105C19.003 2.16256 19.0928 2.5228 18.8681 2.62374C18.7908 2.65464 11.5896 5.94624 8.66897 13.611C8.62264 13.6883 8.54537 13.7346 8.45267 13.7346Z" fill="#932A8E"/>
</svg>
