<svg width="24" height="24" viewBox="0 0 24 24" fill="none" xmlns="http://www.w3.org/2000/svg">
<g clip-path="url(#clip0_2010_1610)">
<path d="M11.5187 6.23096C12.0945 6.25836 12.6688 6.31007 13.2527 6.41471C15.3647 6.79307 16.4841 7.3729 18.762 8.09867L20.2791 13.7608C20.0143 14.0096 19.193 14.6892 18.0484 14.7679C18.1222 14.5724 18.1381 14.3471 18.0932 14.1064C18.0292 13.7629 17.8389 13.3851 17.5139 13.0223C17.3449 12.8339 17.1876 12.7027 17.0003 12.5453L11.7158 8.10698C11.6188 8.02554 11.516 7.96392 11.4093 7.9199C11.0879 7.78764 10.7491 7.8234 10.4335 7.96309C10.1374 8.09413 9.86106 8.31847 9.64353 8.57746C9.02384 9.31525 9.02074 10.4142 7.81878 10.737C7.66631 10.7779 7.53105 10.783 7.42663 10.7549C7.34896 10.734 7.29199 10.694 7.26591 10.6372C7.17771 10.4451 7.60264 9.68757 7.65667 9.45992C7.71453 9.21642 7.74415 8.9525 7.7426 8.75839C7.72887 7.0416 10.2147 6.31024 11.5187 6.23096Z" fill="white"/>
<path d="M11.8836 17.9912C11.8163 18.0943 11.7257 18.1646 11.6215 18.2053C11.5116 18.2482 11.3838 18.2595 11.2493 18.2428C11.0699 18.2205 10.8825 18.1489 10.7095 18.0361L3.78516 13.5187L5.23554 8.10585L7.81302 7.36475C7.49673 7.75091 7.30356 8.21415 7.30793 8.76198C7.30921 8.92131 7.28313 9.14543 7.23225 9.35952C7.11831 9.83914 6.64511 10.3273 6.87044 10.818C6.95416 11.0002 7.11078 11.1213 7.31413 11.176C7.49075 11.2236 7.70401 11.2192 7.93128 11.1581C9.37064 10.7716 9.31306 9.64836 9.9776 8.85715C10.1548 8.64621 10.3761 8.46517 10.6091 8.36208C10.8226 8.26757 11.0445 8.24022 11.2439 8.32233C11.3086 8.34896 11.373 8.3881 11.4363 8.44125L15.7192 12.0383C16.1615 12.4098 16.7908 12.8669 17.19 13.3123C17.4594 13.6129 17.6153 13.9163 17.6654 14.185C17.7603 14.6935 17.4764 14.9782 16.9929 15.0042C16.7776 15.0158 16.5167 14.9778 16.2118 14.8779L13.5118 12.4591C13.4224 12.3791 13.285 12.3867 13.205 12.4761C13.125 12.5656 13.1326 12.7029 13.222 12.7829L15.8956 15.178C16.0982 16.8802 14.6512 16.4983 14.3907 16.4164L11.9185 14.1689C11.8295 14.0879 11.6917 14.0944 11.6108 14.1834C11.5299 14.2723 11.5363 14.4101 11.6253 14.491L13.9914 16.642C14.2098 17.0077 13.4141 18.0345 12.3461 17.4489L10.3192 15.7035C10.2283 15.6249 10.091 15.6348 10.0124 15.7256C9.93381 15.8165 9.94372 15.9539 10.0346 16.0325L11.9582 17.689C12.0339 17.7542 11.9289 17.9217 11.8836 17.9912Z" fill="white"/>
<path d="M3.33346 13.52C3.32244 13.5435 3.31596 13.5682 3.31386 13.5932L3.22793 13.9137C3.17633 14.1065 3.05032 14.2607 2.88899 14.354C2.88384 14.357 2.87853 14.3597 2.87365 14.363C2.71548 14.4492 2.52514 14.4774 2.338 14.4273L0.538497 13.9451C0.535342 13.9443 0.532186 13.9432 0.52903 13.9425C0.340127 13.8892 0.189259 13.7649 0.0979634 13.6067C0.00484053 13.4455 -0.0270493 13.2487 0.0247717 13.0553C0.0257129 13.0516 0.0268755 13.048 0.027706 13.0443L1.83768 6.28932C1.88928 6.09654 2.01529 5.9423 2.17662 5.84907C2.18177 5.84608 2.18708 5.84336 2.19195 5.83999C2.35019 5.75384 2.54053 5.7256 2.72766 5.77576L4.52728 6.25793C4.72 6.30959 4.8743 6.4356 4.96748 6.59693C4.97052 6.60213 4.97329 6.60739 4.97661 6.61226C5.06276 6.77049 5.09094 6.96084 5.04084 7.14797L4.85625 7.83687C4.84451 7.86117 4.83726 7.88775 4.83527 7.91515L3.33346 13.52Z" fill="white"/>
<path d="M20.7478 13.8256C20.7493 13.783 20.7382 13.74 20.7148 13.7027L19.1701 7.93759C19.1713 7.89473 19.1597 7.8531 19.1379 7.81761L18.9584 7.14748C18.9082 6.96035 18.9365 6.77001 19.0226 6.61178C19.0259 6.60696 19.0291 6.60186 19.0321 6.59672C19.1254 6.43538 19.2792 6.30915 19.4719 6.2575L21.2716 5.77528C21.4587 5.72512 21.649 5.75335 21.8073 5.8395C21.8121 5.84288 21.8171 5.84603 21.8223 5.84902C21.9837 5.94225 22.1099 6.09611 22.1615 6.28884L23.9756 13.0588C24.0257 13.2459 23.9975 13.4363 23.9113 13.5945C23.908 13.5994 23.9047 13.6043 23.9018 13.6096C23.8086 13.7709 23.6547 13.8971 23.4619 13.9488L21.6623 14.431C21.4752 14.4811 21.2848 14.4529 21.1266 14.3668C21.1218 14.3634 21.1168 14.3602 21.1116 14.3572C20.9502 14.264 20.824 14.1102 20.7723 13.9174L20.7478 13.8256Z" fill="white"/>
</g>
<defs>
<clipPath id="clip0_2010_1610">
<rect width="24" height="24" fill="white"/>
</clipPath>
</defs>
</svg>
