<svg width="30" height="30" viewBox="0 0 30 30" fill="none" xmlns="http://www.w3.org/2000/svg">
<path d="M26.25 23.75H3.75C3.41848 23.75 3.10054 23.8817 2.86612 24.1161C2.6317 24.3505 2.5 24.6685 2.5 25C2.5 25.3315 2.6317 25.6495 2.86612 25.8839C3.10054 26.1183 3.41848 26.25 3.75 26.25H26.25C26.5815 26.25 26.8995 26.1183 27.1339 25.8839C27.3683 25.6495 27.5 25.3315 27.5 25C27.5 24.6685 27.3683 24.3505 27.1339 24.1161C26.8995 23.8817 26.5815 23.75 26.25 23.75Z" fill="#3061AE"/>
<path d="M15.0002 2.5C14.6687 2.5 14.3508 2.6317 14.1163 2.86612C13.8819 3.10054 13.7502 3.41848 13.7502 3.75V16.9875L9.63773 12.8625C9.40235 12.6271 9.08311 12.4949 8.75023 12.4949C8.41735 12.4949 8.09811 12.6271 7.86273 12.8625C7.62735 13.0979 7.49512 13.4171 7.49512 13.75C7.49512 14.0829 7.62735 14.4021 7.86273 14.6375L14.1127 20.8875C14.2289 21.0047 14.3672 21.0977 14.5195 21.1611C14.6718 21.2246 14.8352 21.2572 15.0002 21.2572C15.1652 21.2572 15.3286 21.2246 15.481 21.1611C15.6333 21.0977 15.7715 21.0047 15.8877 20.8875L22.1377 14.6375C22.2543 14.521 22.3467 14.3826 22.4098 14.2303C22.4729 14.078 22.5053 13.9148 22.5053 13.75C22.5053 13.5852 22.4729 13.422 22.4098 13.2697C22.3467 13.1174 22.2543 12.979 22.1377 12.8625C22.0212 12.746 21.8828 12.6535 21.7305 12.5904C21.5783 12.5274 21.4151 12.4949 21.2502 12.4949C21.0854 12.4949 20.9222 12.5274 20.7699 12.5904C20.6176 12.6535 20.4793 12.746 20.3627 12.8625L16.2502 16.9875V3.75C16.2502 3.41848 16.1185 3.10054 15.8841 2.86612C15.6497 2.6317 15.3318 2.5 15.0002 2.5Z" fill="#3061AE"/>
</svg>
