<svg width="37" height="37" viewBox="0 0 37 37" fill="none" xmlns="http://www.w3.org/2000/svg">
<path d="M23.9748 20.0361L20.876 23.1454C19.6194 24.4065 17.4083 24.4336 16.1245 23.1454L13.0256 20.0361L1.89551 31.2023C2.30981 31.3939 2.7666 31.5082 3.25222 31.5082H33.7483C34.2339 31.5082 34.6906 31.394 35.1047 31.2024L23.9748 20.0361Z" fill="white"/>
<path d="M33.7482 5.49219H3.25208C2.76645 5.49219 2.30966 5.60651 1.89551 5.79809L13.7888 17.7308C13.7896 17.7316 13.7905 17.7317 13.7913 17.7325C13.7921 17.7333 13.7922 17.7344 13.7922 17.7344L17.6594 21.6144C18.0701 22.0251 18.9302 22.0251 19.341 21.6144L23.2074 17.7351C23.2074 17.7351 23.2083 17.7333 23.2091 17.7325C23.2091 17.7325 23.2108 17.7316 23.2116 17.7308L35.1046 5.79802C34.6904 5.60637 34.2338 5.49219 33.7482 5.49219Z" fill="white"/>
<path d="M0.345863 7.31445C0.131523 7.7479 0 8.22905 0 8.74445V28.2562C0 28.7716 0.131379 29.2527 0.345791 29.6862L11.4951 18.5007L0.345863 7.31445Z" fill="white"/>
<path d="M36.6541 7.31445L25.5049 18.5008L36.6541 29.6864C36.8684 29.253 37 28.7719 37 28.2563V8.74459C37 8.22905 36.8684 7.7479 36.6541 7.31445Z" fill="white"/>
</svg>
