<svg width="25" height="25" viewBox="0 0 25 25" fill="none" xmlns="http://www.w3.org/2000/svg">
<path d="M21.3379 13.0934H18.8907C18.5577 13.0934 18.2352 13.1389 17.9283 13.2226C17.3229 12.0325 16.087 11.2148 14.6628 11.2148H10.3372C8.91299 11.2148 7.67705 12.0325 7.07168 13.2226C6.7648 13.1389 6.44233 13.0934 6.10928 13.0934H3.66211C1.64282 13.0934 0 14.7362 0 16.7555V20.6675C0 21.8791 0.985693 22.8647 2.19727 22.8647H22.8027C24.0143 22.8647 25 21.8791 25 20.6675V16.7555C25 14.7362 23.3572 13.0934 21.3379 13.0934ZM6.67505 14.8771V21.4H2.19727C1.79341 21.4 1.46484 21.0714 1.46484 20.6675V16.7555C1.46484 15.5439 2.45054 14.5583 3.66211 14.5583H6.10928C6.30811 14.5583 6.50063 14.5853 6.68394 14.635C6.67866 14.7151 6.67505 14.7957 6.67505 14.8771ZM16.8601 21.4H8.13989V14.877C8.13989 13.6654 9.12559 12.6797 10.3372 12.6797H14.6628C15.8744 12.6797 16.8601 13.6654 16.8601 14.877V21.4ZM23.5352 20.6675C23.5352 21.0714 23.2066 21.4 22.8027 21.4H18.325V14.877C18.325 14.7956 18.3213 14.715 18.3161 14.635C18.4994 14.5853 18.6919 14.5582 18.8907 14.5582H21.3379C22.5495 14.5582 23.5352 15.5439 23.5352 16.7555V20.6675Z" fill="#932A8E"/>
<path d="M4.88603 6.17676C3.09165 6.17676 1.63184 7.63657 1.63184 9.43096C1.63179 11.2253 3.09165 12.6852 4.88603 12.6852C6.68037 12.6852 8.14023 11.2253 8.14023 9.43096C8.14023 7.63657 6.68042 6.17676 4.88603 6.17676ZM4.88599 11.2203C3.89932 11.2203 3.09663 10.4176 3.09663 9.43096C3.09663 8.44429 3.89932 7.6416 4.88599 7.6416C5.87266 7.6416 6.67534 8.44429 6.67534 9.43096C6.67534 10.4176 5.87266 11.2203 4.88599 11.2203Z" fill="#932A8E"/>
<path d="M12.4999 2.13525C10.1026 2.13525 8.15234 4.08555 8.15234 6.48281C8.15234 8.88008 10.1026 10.8304 12.4999 10.8304C14.8972 10.8304 16.8475 8.88008 16.8475 6.48281C16.8475 4.0856 14.8972 2.13525 12.4999 2.13525ZM12.4999 9.36553C10.9104 9.36553 9.61719 8.07236 9.61719 6.48281C9.61719 4.89331 10.9104 3.6001 12.4999 3.6001C14.0895 3.6001 15.3826 4.89326 15.3826 6.48281C15.3826 8.07236 14.0895 9.36553 12.4999 9.36553Z" fill="#932A8E"/>
<path d="M20.1146 6.17676C18.3202 6.17676 16.8604 7.63657 16.8604 9.43096C16.8604 11.2253 18.3202 12.6852 20.1146 12.6852C21.9089 12.6852 23.3687 11.2253 23.3687 9.43096C23.3687 7.63657 21.9089 6.17676 20.1146 6.17676ZM20.1146 11.2203C19.1279 11.2203 18.3252 10.4176 18.3252 9.43096C18.3252 8.44429 19.1279 7.6416 20.1146 7.6416C21.1012 7.6416 21.9039 8.44429 21.9039 9.43096C21.9039 10.4176 21.1012 11.2203 20.1146 11.2203Z" fill="#932A8E"/>
</svg>
