<svg width="48" height="48" viewBox="0 0 48 48" fill="none" xmlns="http://www.w3.org/2000/svg">
<circle cx="24" cy="24" r="24" fill="#922A8E"/>
<path d="M26.158 15.3068C25.3796 14.0331 23.7164 13.6313 22.4432 14.4094C21.1699 15.1876 20.7687 16.8509 21.5471 18.1246L30.9799 33.5598C31.7582 34.8335 33.4214 35.2352 34.6947 34.4571C35.968 33.679 36.3692 32.0157 35.5908 30.742L26.158 15.3068Z" fill="white"/>
<path d="M26.3051 30.8676C26.1504 30.5639 25.9659 30.2711 25.7833 29.9818L21.6945 23.5051C21.3553 22.9628 21.005 22.4205 20.5018 22.0138C19.943 21.5954 19.2519 21.3781 18.5463 21.3988C17.8408 21.4196 17.1645 21.6772 16.6329 22.1276C16.2881 22.4608 15.9899 22.8364 15.7458 23.2448C15.2911 23.9449 14.8562 24.6577 14.4413 25.3832C13.6958 26.7118 13.2355 28.0459 13.6958 29.5408C13.8877 30.1686 14.2063 30.7532 14.6331 31.2605C15.0598 31.7679 15.5863 32.188 16.1819 32.4963L16.2173 32.5143C17.2721 33.0331 18.4798 33.1723 19.5718 33.6116C20.9584 34.1665 22.2126 35.215 23.7128 35.2095C24.2057 35.2048 24.6901 35.0845 25.1246 34.8588C25.5592 34.6331 25.931 34.3088 26.2082 33.9135C26.6271 33.2952 26.7845 32.5444 26.648 31.8166C26.5793 31.4865 26.4639 31.1671 26.3051 30.8676Z" fill="white"/>
<path d="M12.7817 28.9316C12.3059 29.6056 11.8669 30.299 11.4648 31.0118C11.1181 31.6252 10.9115 32.2267 11.0369 32.9241C11.1598 33.6146 11.5634 34.235 12.1643 34.6572C12.7653 35.0793 13.5177 35.271 14.2664 35.1927C15.3527 35.0779 16.2694 34.4234 17.2782 34.0361C16.0905 33.638 15.0255 32.9763 14.176 32.1084C13.3255 31.2337 12.8321 30.1095 12.7817 28.9316Z" fill="white"/>
</svg>
