<svg width="17" height="17" viewBox="0 0 17 17" fill="none" xmlns="http://www.w3.org/2000/svg">
<g clip-path="url(#clip0_2008_781)">
<path d="M14.7491 12.9836C13.7762 12.9836 12.985 13.7752 12.985 14.7484C12.985 15.7209 13.7762 16.5121 14.7491 16.5121C15.7219 16.5121 16.5138 15.7209 16.5138 14.7484C16.5138 13.7752 15.7219 12.9836 14.7491 12.9836ZM15.3149 15.3636C15.27 15.4048 15.2136 15.425 15.1575 15.425C15.0947 15.425 15.032 15.3998 14.9862 15.35L14.5778 14.9057C14.5389 14.8632 14.517 14.8078 14.5163 14.75L14.508 13.5989C14.507 13.4707 14.6103 13.3658 14.7388 13.3648H14.7404C14.8679 13.3648 14.9719 13.4677 14.9729 13.5955L14.9808 14.6571L15.3285 15.0352C15.4155 15.1295 15.4092 15.2766 15.3149 15.3636ZM14.7491 12.5188C14.8925 12.5188 15.0326 12.5327 15.1688 12.5589V10.3729H7.5958V15.5738C7.5958 15.7783 7.76215 15.9447 7.96668 15.9447H12.8698C12.649 15.5987 12.5202 15.1883 12.5202 14.7484C12.5202 13.5188 13.5199 12.5188 14.7491 12.5188ZM13.5262 11.1671H14.3321V11.9726H13.5262V11.1671ZM11.785 14.4538H10.9795V13.648H11.785V14.4538ZM10.9795 11.1671H11.785V11.9726H10.9795V11.1671ZM9.23836 14.4538H8.43152V13.648H9.23836V14.4538ZM8.43152 11.1671H9.23836V11.9726H8.43152V11.1671ZM13.3662 9.29873C13.2719 9.29873 13.1952 9.22203 13.1952 9.1274V8.48359C13.1952 8.3893 13.2719 8.3126 13.3662 8.3126C13.4588 8.3126 13.5368 8.39096 13.5368 8.48359V9.1274C13.5368 9.22037 13.4588 9.29873 13.3662 9.29873ZM9.3984 9.29873C9.30377 9.29873 9.22707 9.22203 9.22707 9.1274V8.48359C9.22707 8.3893 9.30377 8.3126 9.3984 8.3126C9.49236 8.3126 9.56873 8.3893 9.56873 8.48359V9.1274C9.56873 9.22203 9.49236 9.29873 9.3984 9.29873ZM14.0017 8.94313H14.7969C15.0021 8.94313 15.1688 9.10981 15.1688 9.31467V9.90768H7.5958V9.31467C7.5958 9.10981 7.76215 8.94313 7.96668 8.94313H8.76189V9.1274C8.76189 9.47836 9.04744 9.76391 9.3984 9.76391C9.74869 9.76391 10.0336 9.47836 10.0336 9.1274V8.94313H12.73V9.1274C12.73 9.47836 13.0155 9.76391 13.3662 9.76391C13.7168 9.76391 14.0017 9.47836 14.0017 9.1274V8.94313ZM7.96668 8.47795C7.50582 8.47795 7.13096 8.85348 7.13096 9.31467V13.1672H5.58369V6.74807H9.16564V7.89191C8.93156 7.98455 8.76455 8.21166 8.76223 8.47795H7.96668ZM9.3984 6.28322H5.35127C5.22277 6.28322 5.11852 6.38715 5.11852 6.51565V13.1672H1.65775V6.0601L7.39559 2.27461L10.8391 4.54604L13.1337 6.06043V7.89191C12.8993 7.98455 12.7327 8.21166 12.7303 8.47795H10.0332C10.0309 8.21199 9.86457 7.98488 9.63082 7.89225V6.51565C9.63082 6.38715 9.52656 6.28322 9.3984 6.28322ZM7.26742 1.80213L0.485352 6.27691V5.0474L3.95275 2.76037L7.39559 0.488281L10.8391 2.76037L14.3055 5.0474V6.27658L13.5 5.745C13.4967 5.74268 13.4933 5.74068 13.4904 5.73836L11.0951 4.15789L7.52342 1.80213C7.44572 1.75066 7.34512 1.75066 7.26742 1.80213Z" fill="black"/>
</g>
<defs>
<clipPath id="clip0_2008_781">
<rect width="17" height="17" fill="white"/>
</clipPath>
</defs>
</svg>
