<svg width="17" height="17" viewBox="0 0 17 17" fill="none" xmlns="http://www.w3.org/2000/svg">
<g clip-path="url(#clip0_2007_698)">
<path d="M16.7146 7.73869L14.1382 5.16226V2.18605C14.1382 1.64791 13.7021 1.21179 13.1632 1.21179C12.6255 1.21179 12.1894 1.64791 12.1894 2.18605V3.2135L10.2711 1.29507C9.3226 0.347131 7.67355 0.348813 6.72726 1.29679L0.285216 7.73869C-0.0950721 8.11974 -0.0950721 8.73629 0.285216 9.11675C0.665676 9.49769 1.28343 9.49769 1.66375 9.11675L8.10518 2.67467C8.31502 2.46593 8.68488 2.46593 8.89362 2.67405L15.3361 9.11675C15.5272 9.30724 15.7762 9.40198 16.0252 9.40198C16.2748 9.40198 16.5242 9.30713 16.7147 9.11675C17.0951 8.73632 17.0951 8.11977 16.7146 7.73869Z" fill="white"/>
<path d="M8.83792 4.52408C8.65076 4.33703 8.34772 4.33703 8.16111 4.52408L2.49467 10.1888C2.40521 10.2783 2.35449 10.4004 2.35449 10.5278V14.6594C2.35449 15.629 3.1406 16.415 4.11009 16.415H6.91555V12.0703H10.0829V16.415H12.8884C13.8578 16.415 14.6439 15.629 14.6439 14.6595V10.5278C14.6439 10.4004 14.5936 10.2783 14.5037 10.1888L8.83792 4.52408Z" fill="white"/>
</g>
<defs>
<clipPath id="clip0_2007_698">
<rect width="17" height="17" fill="white"/>
</clipPath>
</defs>
</svg>
