<svg width="21" height="21" viewBox="0 0 21 21" fill="none" xmlns="http://www.w3.org/2000/svg">
<g clip-path="url(#clip0_2008_755)">
<path d="M20.7672 7.67071L15.1058 3.11261C14.8772 2.92857 14.5515 2.92865 14.3229 3.11261L13.6025 3.69253L17.3359 6.69836C17.7797 7.05556 18.0342 7.58717 18.0342 8.15687V17.4008C18.0342 17.6196 17.9961 17.8296 17.9269 18.025H20.3759C20.7206 18.025 21 17.7455 21 17.4008V8.15691C21 7.96795 20.9144 7.78917 20.7672 7.67071Z" fill="black"/>
<path d="M16.5533 7.67071L10.8919 3.11261C10.6634 2.92857 10.3375 2.92865 10.1091 3.11261L9.38867 3.69257L13.1221 6.69836C13.5658 7.05564 13.8203 7.58725 13.8203 8.15691V17.4009C13.8203 17.6196 13.7823 17.8297 13.713 18.025H16.162C16.5066 18.025 16.7861 17.7455 16.7861 17.4009V8.15691C16.786 7.96795 16.7004 7.78921 16.5533 7.67071Z" fill="black"/>
<path d="M12.339 7.67071L6.67755 3.11261C6.44901 2.92857 6.12326 2.92865 5.89472 3.11261L0.232764 7.67071C0.0855996 7.78917 0 7.96795 0 8.15691V17.4009C0 17.7455 0.27948 18.025 0.624176 18.025H4.51147C4.85617 18.025 5.13565 17.7455 5.13565 17.4009V14.6156C5.13565 13.9814 5.65163 13.4654 6.28585 13.4654C6.92007 13.4654 7.43609 13.9814 7.43609 14.6156V17.4009C7.43609 17.7455 7.71557 18.025 8.06027 18.025H8.39311H9.05244H11.9476C12.2923 18.025 12.5717 17.7455 12.5717 17.4009V8.15691C12.5718 7.96795 12.4862 7.78921 12.339 7.67071Z" fill="black"/>
</g>
<defs>
<clipPath id="clip0_2008_755">
<rect width="21" height="21" fill="white"/>
</clipPath>
</defs>
</svg>
