<svg width="26" height="26" viewBox="0 0 26 26" fill="none" xmlns="http://www.w3.org/2000/svg">
<path d="M13.0002 0C7.80807 0 3.58398 4.22409 3.58398 9.41616C3.58398 15.8597 12.0106 25.3192 12.3693 25.7187C12.7063 26.094 13.2947 26.0934 13.6311 25.7187C13.9898 25.3192 22.4164 15.8597 22.4164 9.41616C22.4163 4.22409 18.1923 0 13.0002 0ZM13.0002 14.1537C10.3879 14.1537 8.26271 12.0285 8.26271 9.41616C8.26271 6.80387 10.388 4.67868 13.0002 4.67868C15.6124 4.67868 17.7376 6.80393 17.7376 9.41621C17.7376 12.0285 15.6124 14.1537 13.0002 14.1537Z" fill="#932A8E"/>
</svg>
