<svg width="17" height="17" viewBox="0 0 17 17" fill="none" xmlns="http://www.w3.org/2000/svg">
<path d="M8.49969 0C5.37514 0 2.83301 2.54213 2.83301 5.66668C2.83301 6.60467 3.06752 7.53469 3.51334 8.35958L8.1898 16.8174C8.25206 16.9301 8.37069 17 8.49969 17C8.62868 17 8.74731 16.9301 8.80957 16.8174L13.4878 8.35679C13.9318 7.53469 14.1664 6.60463 14.1664 5.66664C14.1664 2.54213 11.6242 0 8.49969 0ZM8.49969 8.5C6.93741 8.5 5.66636 7.22895 5.66636 5.66668C5.66636 4.1044 6.93741 2.83336 8.49969 2.83336C10.062 2.83336 11.333 4.1044 11.333 5.66668C11.333 7.22895 10.062 8.5 8.49969 8.5Z" fill="url(#paint0_linear_2009_1024)"/>
<defs>
<linearGradient id="paint0_linear_2009_1024" x1="8.49969" y1="0" x2="8.49969" y2="17" gradientUnits="userSpaceOnUse">
<stop stop-color="#3F59AA"/>
<stop offset="1" stop-color="#863193"/>
</linearGradient>
</defs>
</svg>
