<svg width="17" height="17" viewBox="0 0 17 17" fill="none" xmlns="http://www.w3.org/2000/svg">
<g clip-path="url(#clip0_2007_738)">
<path d="M16.734 16.4179H16.1895V8.38211L12.1988 6.35107V11.3711L13.0123 11.9644C13.0133 11.8186 13.1318 11.7004 13.2779 11.7004H15.1104C15.2572 11.7004 15.376 11.8193 15.376 11.9661V13.7952C15.376 13.942 15.2572 14.0608 15.1104 14.0608H13.2779C13.1312 14.0608 13.0123 13.942 13.0123 13.7952V13.5445C12.9618 13.5937 12.8951 13.6202 12.827 13.6202C12.7726 13.6202 12.7178 13.6036 12.6706 13.5691L12.1988 13.2248V16.4179H11.6676V12.8373L8.69457 10.6691L7.78447 11.3329L9.19262 12.3595C9.24973 12.401 9.28758 12.4634 9.29853 12.5332C9.30949 12.6029 9.29223 12.6739 9.25039 12.7307L8.67996 13.511C8.62783 13.5821 8.54715 13.6199 8.46547 13.6199C8.41102 13.6199 8.35656 13.6033 8.30908 13.5688L7.83727 13.2248V16.4179H7.30602V12.8376L4.33201 10.6691L1.35801 12.8383V16.4183H0.813477C0.666719 16.4183 0.547852 16.5371 0.547852 16.6839C0.547852 16.8306 0.666719 16.9495 0.813477 16.9495H16.734C16.8808 16.9495 16.9997 16.8306 16.9997 16.6839C16.9997 16.5371 16.8808 16.4179 16.734 16.4179ZM15.1104 11.1446H13.2779C13.1312 11.1446 13.0123 11.0257 13.0123 10.879V9.04883C13.0123 8.90207 13.1312 8.7832 13.2779 8.7832H15.1104C15.2572 8.7832 15.376 8.90207 15.376 9.04883V10.879C15.376 11.0257 15.2572 11.1446 15.1104 11.1446ZM4.33234 11.2867C4.7849 11.2867 5.15346 11.6553 5.15346 12.1082C5.15346 12.5604 4.78523 12.9286 4.33234 12.9286C3.87945 12.9286 3.51123 12.5607 3.51123 12.1082C3.51123 11.6553 3.87945 11.2867 4.33234 11.2867ZM5.18965 16.4179V14.4145H3.47504V16.4179H2.94379V14.1488C2.94379 14.0021 3.06266 13.8832 3.20941 13.8832H5.45527C5.60203 13.8832 5.7209 14.0021 5.7209 14.1488V16.4179H5.18965Z" fill="black"/>
<path d="M8.53918 8.92973C8.63248 8.86166 8.75898 8.86166 8.85229 8.92973L11.6689 10.9837V1.80566H11.1161H5.15146H4.59863V6.1327V7.96185V9.00975L6.51379 10.4059L8.53918 8.92973ZM8.41268 3.21514C8.41268 3.06838 8.53154 2.94951 8.6783 2.94951H10.5098C10.6565 2.94951 10.7754 3.06838 10.7754 3.21514V5.04529C10.7754 5.19205 10.6565 5.31092 10.5098 5.31092H8.6783C8.53154 5.31092 8.41268 5.19205 8.41268 5.04529V3.21514ZM8.41268 6.13236C8.41268 5.98561 8.53154 5.86674 8.6783 5.86674H10.5098C10.6565 5.86674 10.7754 5.98561 10.7754 6.13236V7.96152C10.7754 8.10828 10.6565 8.22715 10.5098 8.22715H8.6783C8.53154 8.22715 8.41268 8.10828 8.41268 7.96152V6.13236ZM5.49146 3.21514C5.49146 3.06838 5.61033 2.94951 5.75709 2.94951H7.58957C7.73633 2.94951 7.8552 3.06838 7.8552 3.21514V5.04529C7.8552 5.19205 7.73633 5.31092 7.58957 5.31092H5.75709C5.61033 5.31092 5.49146 5.19205 5.49146 5.04529V3.21514ZM5.49146 7.96152V6.13236C5.49146 5.98561 5.61033 5.86674 5.75709 5.86674H7.58957C7.73633 5.86674 7.8552 5.98561 7.8552 6.13236V7.96152C7.8552 8.10828 7.73633 8.22715 7.58957 8.22715H5.75709C5.61033 8.22715 5.49146 8.10828 5.49146 7.96152Z" fill="black"/>
<path d="M4.06678 8.22686H2.34951C2.20275 8.22686 2.08389 8.10799 2.08389 7.96123V6.13207C2.08389 5.98531 2.20275 5.86645 2.34951 5.86645H4.06645V5.26514H1.3584V10.9837L4.06678 9.00912V8.22686Z" fill="black"/>
<path d="M4.33283 12.3973C4.49254 12.3973 4.6227 12.2674 4.6227 12.1081C4.6227 11.948 4.49254 11.8179 4.33283 11.8179C4.17313 11.8179 4.04297 11.948 4.04297 12.1081C4.04297 12.2678 4.17313 12.3973 4.33283 12.3973Z" fill="black"/>
<path d="M2.61523 6.39795H4.06654V7.69586H2.61523V6.39795Z" fill="black"/>
<path d="M6.02246 6.39795H7.32369V7.69586H6.02246V6.39795Z" fill="black"/>
<path d="M5.41699 0.0507812H10.85V1.27432H5.41699V0.0507812Z" fill="black"/>
<path d="M8.94336 3.48047H10.2436V4.77937H8.94336V3.48047Z" fill="black"/>
<path d="M8.94336 6.39795H10.2436V7.69586H8.94336V6.39795Z" fill="black"/>
<path d="M6.02246 3.48047H7.32369V4.77937H6.02246V3.48047Z" fill="black"/>
<path d="M13.5439 9.31445H14.8452V10.6134H13.5439V9.31445Z" fill="black"/>
<path d="M13.5439 12.8248V13.5294H14.8452V12.2314H13.5439V12.3513L13.5549 12.3593C13.612 12.4008 13.6499 12.4632 13.6608 12.5329C13.6718 12.6027 13.6545 12.6737 13.6127 12.7305L13.5439 12.8248Z" fill="black"/>
<path d="M6.96484 10.7344L7.33473 11.0043L8.539 10.1261C8.58549 10.0922 8.64061 10.0749 8.69539 10.0749C8.75018 10.0749 8.80529 10.0919 8.85178 10.1261L12.7701 12.9839L13.0271 12.6326L8.69539 9.47363L6.96484 10.7344Z" fill="black"/>
<path d="M4.48906 10.1256L8.40836 12.9834L8.66535 12.6321L4.33268 9.47314L0 12.6321L0.257656 12.9837L4.17629 10.1259C4.26926 10.0579 4.39576 10.0579 4.48906 10.1256Z" fill="black"/>
</g>
<defs>
<clipPath id="clip0_2007_738">
<rect width="17" height="17" fill="white"/>
</clipPath>
</defs>
</svg>
