<svg width="33" height="33" viewBox="0 0 33 33" fill="none" xmlns="http://www.w3.org/2000/svg">
<g clip-path="url(#clip0_2160_729)">
<path d="M0.378082 15.5875C0.378468 15.5871 0.378792 15.5867 0.379242 15.5863L7.11485 8.88318C7.61946 8.38103 8.43563 8.3829 8.93791 8.88757C9.44013 9.39217 9.43819 10.2083 8.93359 10.7106L4.4113 15.2109H31.7109C32.4229 15.2109 33 15.788 33 16.5C33 17.2119 32.4229 17.7891 31.7109 17.7891H4.41137L8.93353 22.2894C9.43813 22.7917 9.44006 23.6078 8.93784 24.1124C8.43556 24.6172 7.61933 24.6189 7.11479 24.1168L0.379177 17.4137C0.378792 17.4133 0.378468 17.4128 0.378017 17.4125C-0.126842 16.9086 -0.125233 16.0898 0.378082 15.5875Z" fill="black"/>
</g>
<defs>
<clipPath id="clip0_2160_729">
<rect width="33" height="33" fill="white" transform="matrix(-1 0 0 1 33 0)"/>
</clipPath>
</defs>
</svg>
