<svg width="36" height="36" viewBox="0 0 36 36" fill="none" xmlns="http://www.w3.org/2000/svg">
<g clip-path="url(#clip0_2009_1011)">
<path d="M18 0C8.05922 0 0 8.05922 0 18C0 27.9408 8.05922 36 18 36C27.9408 36 36 27.9408 36 18C36 8.05922 27.9408 0 18 0ZM26.9339 19.1208L23.8549 22.1998C23.6341 22.4206 23.3527 22.5709 23.0464 22.6319C22.7401 22.6928 22.4226 22.6615 22.1341 22.542C21.8455 22.4225 21.5989 22.2201 21.4254 21.9605C21.2518 21.7008 21.1592 21.3955 21.1591 21.0832C21.1588 20.8761 21.1994 20.6711 21.2787 20.4798C21.358 20.2885 21.4744 20.1148 21.6211 19.9688L21.9635 19.6263H10.1827C9.7695 19.6176 9.3762 19.4474 9.08709 19.1521C8.79798 18.8568 8.63606 18.46 8.63606 18.0468C8.63606 17.6335 8.79798 17.2367 9.08709 16.9414C9.3762 16.6462 9.7695 16.4759 10.1827 16.4672H22.0451L21.612 16.0312C21.4653 15.8846 21.3489 15.7104 21.2695 15.5188C21.1902 15.3272 21.1493 15.1218 21.1493 14.9143C21.1493 14.7069 21.1902 14.5015 21.2695 14.3099C21.3489 14.1182 21.4653 13.9441 21.612 13.7974C21.7586 13.6507 21.9328 13.5344 22.1244 13.455C22.316 13.3756 22.5214 13.3348 22.7289 13.3348C22.9363 13.3348 23.1417 13.3756 23.3333 13.455C23.525 13.5344 23.6991 13.6507 23.8458 13.7974L26.9339 16.8855C27.0806 17.0322 27.197 17.2063 27.2764 17.398C27.3558 17.5896 27.3967 17.795 27.3967 18.0025C27.3967 18.2099 27.3558 18.4153 27.2764 18.607C27.197 18.7986 27.0806 18.9727 26.9339 19.1194V19.1208Z" fill="url(#paint0_linear_2009_1011)"/>
</g>
<defs>
<linearGradient id="paint0_linear_2009_1011" x1="18" y1="0" x2="18" y2="36" gradientUnits="userSpaceOnUse">
<stop stop-color="#365EAD"/>
<stop offset="1" stop-color="#8A2E91"/>
</linearGradient>
<clipPath id="clip0_2009_1011">
<rect width="36" height="36" fill="white"/>
</clipPath>
</defs>
</svg>
