<svg width="35" height="35" viewBox="0 0 35 35" fill="none" xmlns="http://www.w3.org/2000/svg">
<path d="M32.1486 25.55C31.1927 24.7483 25.5861 21.198 24.6542 21.3609C24.2167 21.4386 23.882 21.8116 22.9862 22.8802C22.572 23.4061 22.117 23.8987 21.6256 24.3534C20.7252 24.1359 19.8537 23.8129 19.0291 23.3909C15.7952 21.8165 13.1826 19.2031 11.6091 15.9688C11.1871 15.1441 10.8641 14.2726 10.6466 13.3722C11.1013 12.8808 11.5939 12.4258 12.1198 12.0116C13.1873 11.1158 13.5614 10.7833 13.6391 10.3436C13.802 9.40953 10.2484 3.80516 9.45 2.84922C9.11531 2.45328 8.81125 2.1875 8.42188 2.1875C7.29312 2.1875 2.1875 8.50063 2.1875 9.31875C2.1875 9.38547 2.29687 15.9578 10.5973 24.4027C19.0422 32.7031 25.6145 32.8125 25.6812 32.8125C26.4994 32.8125 32.8125 27.7069 32.8125 26.5781C32.8125 26.1887 32.5467 25.8847 32.1486 25.55Z" fill="white"/>
<path d="M25.1562 16.4062H27.3438C27.3411 14.0864 26.4184 11.8623 24.7781 10.2219C23.1377 8.58156 20.9136 7.65886 18.5938 7.65625V9.84375C20.3337 9.84549 22.0019 10.5374 23.2322 11.7678C24.4626 12.9981 25.1545 14.6663 25.1562 16.4062Z" fill="white"/>
<path d="M30.625 16.4062H32.8125C32.8082 12.6365 31.3087 9.02246 28.6431 6.35687C25.9775 3.69128 22.3635 2.19184 18.5938 2.1875V4.375C21.7835 4.37876 24.8415 5.64755 27.097 7.90303C29.3525 10.1585 30.6212 13.2165 30.625 16.4062Z" fill="white"/>
</svg>
