<svg width="39" height="39" viewBox="0 0 39 39" fill="none" xmlns="http://www.w3.org/2000/svg">
<g clip-path="url(#clip0_2175_1600)">
<path d="M38.1721 20.7623L30.174 18.4771C29.9688 18.4191 29.7501 18.4191 29.5447 18.4771L21.5467 20.7623C21.0579 20.9029 20.7188 21.3515 20.7188 21.8614V27.254C20.7188 32.6635 24.3496 37.4758 29.5469 38.9565C29.6496 38.9856 29.7545 39 29.8594 39C29.9643 39 30.0692 38.9856 30.1718 38.9565C35.3692 37.4758 39 32.6635 39 27.254V21.8614C39 21.3515 38.6608 20.9029 38.1721 20.7623ZM34.0949 27.2395L29.5246 31.8098C29.3014 32.033 29.0091 32.1446 28.7168 32.1446C28.4245 32.1446 28.1321 32.033 27.909 31.8098L25.6238 29.5246C25.1775 29.0783 25.1775 28.3552 25.6238 27.909C26.0701 27.4627 26.7932 27.4627 27.2395 27.909L28.7168 29.3863L32.4793 25.6238C32.9256 25.1775 33.6487 25.1775 34.095 25.6238C34.5413 26.0701 34.5413 26.7932 34.0949 27.2395Z" fill="white"/>
<path d="M8.07422 9.29297C8.70525 9.29297 9.2168 8.78142 9.2168 8.15039C9.2168 7.51936 8.70525 7.00781 8.07422 7.00781C7.44319 7.00781 6.93164 7.51936 6.93164 8.15039C6.93164 8.78142 7.44319 9.29297 8.07422 9.29297Z" fill="white"/>
<path d="M35.5723 0H3.42773C1.53761 0 0 1.53761 0 3.42773V21.8613C0 23.7515 1.53761 25.2891 3.42773 25.2891H18.4336V21.8613C18.4336 20.3416 19.4535 18.9871 20.9151 18.5664L28.9177 16.2801C29.2278 16.1919 29.5425 16.1484 29.8594 16.1484C30.1763 16.1484 30.4909 16.1919 30.7944 16.2779C34.0906 17.2331 38.0651 18.324 39 18.6608V3.42773C39 1.53761 37.4624 0 35.5723 0ZM8.15039 18.4336H5.86523C5.23369 18.4336 4.72266 17.9226 4.72266 17.291C4.72266 16.6595 5.23369 16.1484 5.86523 16.1484H8.15039C8.78193 16.1484 9.29297 16.6595 9.29297 17.291C9.29297 17.9226 8.78193 18.4336 8.15039 18.4336ZM8.07422 11.5781C6.18417 11.5781 4.64648 10.0404 4.64648 8.15039C4.64648 6.26034 6.18417 4.72266 8.07422 4.72266C9.96427 4.72266 11.502 6.26034 11.502 8.15039C11.502 10.0404 9.96427 11.5781 8.07422 11.5781ZM15.0059 18.4336H12.7207C12.0892 18.4336 11.5781 17.9226 11.5781 17.291C11.5781 16.6595 12.0892 16.1484 12.7207 16.1484H15.0059C15.6374 16.1484 16.1484 16.6595 16.1484 17.291C16.1484 17.9226 15.6374 18.4336 15.0059 18.4336ZM33.2871 9.29297H19.5762C18.9446 9.29297 18.4336 8.78193 18.4336 8.15039C18.4336 7.51885 18.9446 7.00781 19.5762 7.00781H33.2871C33.9187 7.00781 34.4297 7.51885 34.4297 8.15039C34.4297 8.78193 33.9187 9.29297 33.2871 9.29297Z" fill="white"/>
</g>
<defs>
<clipPath id="clip0_2175_1600">
<rect width="39" height="39" fill="white"/>
</clipPath>
</defs>
</svg>
