<svg width="216" height="45" viewBox="0 0 216 45" fill="none" xmlns="http://www.w3.org/2000/svg">
<path d="M23.0811 0.0078125C35.2389 0.316012 45 10.2679 45 22.5L44.9922 23.0811C44.684 35.2389 34.7321 45 22.5 45L21.9189 44.9922C9.95418 44.6889 0.311117 35.0458 0.0078125 23.0811L0 22.5C0 10.0736 10.0736 0 22.5 0L23.0811 0.0078125ZM80.0811 0.0078125C92.2389 0.316012 102 10.2679 102 22.5L101.992 23.0811C101.684 35.2389 91.7321 45 79.5 45L78.9189 44.9922C66.9542 44.6889 57.3111 35.0458 57.0078 23.0811L57 22.5C57 10.0736 67.0736 0 79.5 0L80.0811 0.0078125ZM137.081 0.0078125C149.239 0.316012 159 10.2679 159 22.5L158.992 23.0811C158.684 35.2389 148.732 45 136.5 45L135.919 44.9922C123.954 44.6889 114.311 35.0458 114.008 23.0811L114 22.5C114 10.0736 124.074 0 136.5 0L137.081 0.0078125ZM194.081 0.0078125C206.239 0.316059 216 10.2679 216 22.5L215.992 23.0811C215.684 35.2389 205.732 45 193.5 45L192.919 44.9922C180.954 44.6888 171.311 35.0458 171.008 23.0811L171 22.5C171 10.0736 181.074 6.59759e-05 193.5 0L194.081 0.0078125ZM22.5 2C11.1782 2 2 11.1782 2 22.5C2 33.8218 11.1782 43 22.5 43C33.8218 43 43 33.8218 43 22.5C43 11.1782 33.8218 2 22.5 2ZM79.5 2C68.1782 2 59 11.1782 59 22.5C59 33.8218 68.1782 43 79.5 43C90.8218 43 100 33.8218 100 22.5C100 11.1782 90.8218 2 79.5 2ZM136.5 2C125.178 2 116 11.1782 116 22.5C116 33.8218 125.178 43 136.5 43C147.822 43 157 33.8218 157 22.5C157 11.1782 147.822 2 136.5 2ZM193.5 2C182.178 2.00007 173 11.1782 173 22.5C173 33.8218 182.178 42.9999 193.5 43C204.822 43 214 33.8218 214 22.5C214 11.1782 204.822 2.00005 193.5 2ZM138.727 11C140.211 11 141.486 11.1109 141.857 11.1592V14.792L139.709 14.793C138.022 14.7931 137.697 15.5949 137.697 16.7705V19.3633H141.716L141.191 23.4248H137.697V33.8457H133.505V23.4248H130V19.3633H133.505V16.3682C133.505 12.893 135.627 11 138.727 11ZM27.0176 11C30.6271 11.0001 33.5596 13.9347 33.5596 17.5459V27.0254C33.5595 28.7612 32.8704 30.4259 31.6436 31.6533C30.4167 32.8807 28.7526 33.5703 27.0176 33.5703H17.542C13.9327 33.5701 11.0002 30.6363 11 27.0254V17.5459C11 15.81 11.6891 14.1445 12.916 12.917C14.1429 11.6896 15.807 11.0001 17.542 11H27.0176ZM187.41 32.7188H183.32V19.5566H187.41V32.7188ZM197.808 19.2363C201.947 19.2364 202.711 21.9477 202.711 25.4971V32.6943H198.621V26.2861C198.621 24.758 198.596 22.8107 196.502 22.8105C194.383 22.8105 194.062 24.4621 194.062 26.1875V32.7188H189.973V19.5566H193.891V21.3564H193.939C194.481 20.3212 195.812 19.2363 197.808 19.2363ZM80.9062 20.2158L87.2471 13H88.9775L81.6748 21.3105L89.6172 32.626H83.7754L78.4268 25.0059L71.7305 32.626H70L77.6592 23.9111L70 13H75.8418L80.9062 20.2158ZM78.5283 22.9209L79.3047 24.0078L84.5898 31.4092H87.248L80.7715 22.3389L79.9951 21.2529L75.0127 14.2754H72.3545L78.5283 22.9209ZM17.3164 13.2568C16.2395 13.2569 15.2068 13.6855 14.4453 14.4473C13.6839 15.209 13.256 16.2421 13.2559 17.3193V27.251C13.256 29.4964 15.072 31.3133 17.3164 31.3135H27.2432C28.3201 31.3134 29.3527 30.8849 30.1143 30.123C30.8757 29.3612 31.3036 28.3283 31.3037 27.251V17.3193C31.3034 15.0739 29.4876 13.2569 27.2432 13.2568H17.3164ZM22.2803 16.6426C23.7757 16.6427 25.21 17.2371 26.2676 18.2949C27.3253 19.3531 27.9199 20.7887 27.9199 22.2852C27.9199 23.7816 27.3253 25.2172 26.2676 26.2754C25.21 27.3333 23.7758 27.9276 22.2803 27.9277C20.7846 27.9277 19.3497 27.3334 18.292 26.2754C17.2343 25.2172 16.6396 23.7816 16.6396 22.2852C16.6397 20.7887 17.2343 19.3531 18.292 18.2949C19.3497 17.2369 20.7846 16.6426 22.2803 16.6426ZM22.2803 18.8994C21.3828 18.8994 20.5213 19.2567 19.8867 19.8916C19.2523 20.5265 18.8955 21.3874 18.8955 22.2852C18.8955 23.1829 19.2523 24.0438 19.8867 24.6787C20.5213 25.3136 21.3828 25.6709 22.2803 25.6709C23.1776 25.6708 24.0383 25.3135 24.6729 24.6787C25.3073 24.0438 25.6641 23.1829 25.6641 22.2852C25.664 21.3874 25.3073 20.5265 24.6729 19.8916C24.0383 19.2568 23.1776 18.8995 22.2803 18.8994ZM28.2021 14.9502C28.576 14.9503 28.9349 15.0988 29.1992 15.3633C29.4634 15.6277 29.6113 15.9864 29.6113 16.3604C29.6113 16.7345 29.4636 17.0939 29.1992 17.3584C28.9349 17.6229 28.576 17.7714 28.2021 17.7715C27.8283 17.7715 27.4695 17.6228 27.2051 17.3584C26.9407 17.0939 26.792 16.7345 26.792 16.3604C26.7921 15.9863 26.9407 15.6278 27.2051 15.3633C27.4695 15.0988 27.8282 14.9502 28.2021 14.9502ZM185.365 13C186.671 13 187.73 14.0595 187.73 15.3652C187.73 16.671 186.671 17.7548 185.365 17.7549C184.06 17.7548 183 16.6709 183 15.3652C183 14.0595 184.06 13.0001 185.365 13Z" fill="white"/>
</svg>
