<svg width="45" height="46" viewBox="0 0 45 46" fill="none" xmlns="http://www.w3.org/2000/svg">
<path d="M13.7598 43.2527C8.61804 41.0841 4.46515 37.0815 2.10736 32.0219C-0.250439 26.9623 -0.644919 21.2067 1.0005 15.8724C2.64592 10.5382 6.21384 6.00591 11.0116 3.15552C15.8093 0.305129 21.4946 -0.660013 26.9636 0.447464C32.4327 1.55494 37.2953 4.65602 40.6074 9.14866C43.9195 13.6413 45.4449 19.2049 44.8873 24.7595C44.3298 30.314 41.7291 35.4631 37.5902 39.2072C33.4513 42.9512 28.0694 45.023 22.4895 45.0205C19.4905 45.0229 16.5217 44.4217 13.7598 43.2527ZM1.66258 22.5828C1.66074 26.7054 2.88104 30.7359 5.16913 34.1645C7.45722 37.5931 10.7103 40.2658 14.5169 41.8445C18.3235 43.4232 22.5125 43.837 26.5542 43.0335C30.5959 42.23 34.3086 40.2454 37.2227 37.3306C40.1368 34.4159 42.1213 30.7019 42.9254 26.6586C43.7294 22.6153 43.3167 18.4242 41.7396 14.6155C40.1625 10.8069 37.4917 7.55171 34.0651 5.26181C30.6386 2.97192 26.6102 1.75016 22.4895 1.75108C16.9684 1.75674 11.675 3.95318 7.77054 7.85853C3.86609 11.7639 1.66947 17.0592 1.66258 22.5828ZM10.4091 12.728C10.4098 12.4766 10.4953 12.2328 10.6518 12.0361C10.8082 11.8394 11.0265 11.7013 11.2711 11.6441L16.0922 10.5276C16.3464 10.4692 16.613 10.5017 16.8458 10.6194C17.0785 10.7372 17.2627 10.9329 17.3662 11.1723L19.5898 16.3696C19.6857 16.592 19.7063 16.8397 19.6484 17.0749C19.5904 17.31 19.4572 17.5198 19.269 17.6722L16.4632 19.9665C18.1642 23.5765 21.0678 26.4817 24.6759 28.1839L26.9748 25.3731C27.1279 25.1859 27.3376 25.0534 27.5724 24.9957C27.8072 24.938 28.0544 24.9581 28.2768 25.053L33.4689 27.2786C33.709 27.383 33.9053 27.5678 34.0241 27.8012C34.1429 28.0347 34.1768 28.3022 34.1199 28.5579L33.0039 33.3811C32.9467 33.626 32.8085 33.8445 32.6117 34.001C32.4148 34.1576 32.171 34.243 31.9195 34.2436C29.0949 34.2442 26.2979 33.6881 23.6882 32.6071C21.0784 31.5262 18.7071 29.9414 16.7096 27.9435C14.7121 25.9455 13.1276 23.5734 12.0465 20.9627C10.9655 18.352 10.4091 15.5538 10.4091 12.728Z" fill="white"/>
</svg>
