<svg width="45" height="46" viewBox="0 0 45 46" fill="none" xmlns="http://www.w3.org/2000/svg">
<path d="M13.7598 43.2527C8.61804 41.0841 4.46515 37.0815 2.10736 32.0219C-0.250439 26.9623 -0.644919 21.2067 1.0005 15.8724C2.64592 10.5382 6.21384 6.00591 11.0116 3.15552C15.8093 0.305129 21.4946 -0.660013 26.9636 0.447464C32.4327 1.55494 37.2953 4.65602 40.6074 9.14866C43.9195 13.6413 45.4449 19.2049 44.8873 24.7595C44.3298 30.314 41.7291 35.4631 37.5902 39.2072C33.4513 42.9512 28.0694 45.023 22.4895 45.0205C19.4905 45.0229 16.5217 44.4217 13.7598 43.2527ZM1.66258 22.5828C1.66074 26.7054 2.88104 30.7359 5.16913 34.1645C7.45722 37.5931 10.7103 40.2658 14.5169 41.8445C18.3235 43.4232 22.5125 43.837 26.5542 43.0335C30.5959 42.23 34.3086 40.2454 37.2227 37.3306C40.1368 34.4159 42.1213 30.7019 42.9254 26.6586C43.7294 22.6153 43.3167 18.4242 41.7396 14.6155C40.1625 10.8069 37.4917 7.55171 34.0651 5.26181C30.6386 2.97192 26.6102 1.75016 22.4895 1.75108C16.9684 1.75674 11.675 3.95318 7.77054 7.85853C3.86609 11.7639 1.66947 17.0592 1.66258 22.5828ZM12.9972 19.4195C13.0453 17.0378 14.0248 14.7699 15.7254 13.1026C17.4261 11.4352 19.7123 10.5013 22.0933 10.5013C24.4744 10.5013 26.7606 11.4352 28.4612 13.1026C30.1618 14.7699 31.1413 17.0378 31.1895 19.4195C31.1895 26.1091 22.0933 35.9806 22.0933 35.9806C22.0933 35.9806 12.9972 26.1072 12.9972 19.4213V19.4195ZM18.844 19.4195C18.8311 20.065 19.0106 20.6998 19.3597 21.2429C19.7088 21.786 20.2116 22.2128 20.8041 22.4689C21.3966 22.7249 22.0519 22.7987 22.6864 22.6807C23.3209 22.5627 23.906 22.2583 24.367 21.8064C24.8279 21.3545 25.1439 20.7754 25.2747 20.1431C25.4054 19.5108 25.345 18.8539 25.1011 18.2561C24.8572 17.6582 24.4408 17.1466 23.9052 16.7865C23.3695 16.4263 22.7387 16.2339 22.0933 16.2337C21.6698 16.2256 21.2489 16.302 20.8552 16.4585C20.4615 16.6151 20.103 16.8486 19.8006 17.1454C19.4982 17.4422 19.258 17.7963 19.0941 18.1871C18.9302 18.5779 18.8458 18.9975 18.8458 19.4213L18.844 19.4195Z" fill="white"/>
</svg>
