<svg width="45" height="46" viewBox="0 0 45 46" fill="none" xmlns="http://www.w3.org/2000/svg">
<path d="M13.7598 43.2527C8.61804 41.0841 4.46515 37.0815 2.10736 32.0219C-0.250439 26.9623 -0.644919 21.2067 1.0005 15.8724C2.64592 10.5382 6.21384 6.00591 11.0116 3.15552C15.8093 0.305129 21.4946 -0.660013 26.9636 0.447464C32.4327 1.55494 37.2953 4.65602 40.6074 9.14866C43.9195 13.6413 45.4449 19.2049 44.8873 24.7595C44.3298 30.314 41.7291 35.4631 37.5902 39.2072C33.4513 42.9512 28.0694 45.023 22.4895 45.0205C19.4905 45.0229 16.5217 44.4217 13.7598 43.2527ZM1.66258 22.5828C1.66074 26.7054 2.88104 30.7359 5.16913 34.1645C7.45722 37.5931 10.7103 40.2658 14.5169 41.8445C18.3235 43.4232 22.5125 43.837 26.5542 43.0335C30.5959 42.23 34.3086 40.2454 37.2227 37.3306C40.1368 34.4159 42.1213 30.7019 42.9254 26.6586C43.7294 22.6153 43.3167 18.4242 41.7396 14.6155C40.1625 10.8069 37.4917 7.55171 34.0651 5.26181C30.6386 2.97192 26.6102 1.75016 22.4895 1.75108C16.9684 1.75674 11.675 3.95318 7.77054 7.85853C3.86609 11.7639 1.66947 17.0592 1.66258 22.5828ZM11.4888 31.4384C10.9742 31.4372 10.4811 31.2323 10.1171 30.8684C9.75304 30.5046 9.54775 30.0114 9.54603 29.4967V16.1826C9.54523 16.1583 9.55188 16.1343 9.56507 16.114C9.57827 16.0936 9.59738 16.0777 9.61985 16.0685C9.64232 16.0593 9.66707 16.0571 9.69078 16.0624C9.71449 16.0677 9.73602 16.0801 9.75248 16.0979L16.2884 22.7512C16.3088 22.7749 16.32 22.8051 16.32 22.8364C16.32 22.8676 16.3088 22.8978 16.2884 22.9215L11.7194 27.7903C11.5795 27.94 11.5031 28.1382 11.5066 28.3431C11.51 28.548 11.5928 28.7436 11.7377 28.8885C11.8825 29.0334 12.078 29.1163 12.2828 29.1197C12.4876 29.1231 12.6858 29.0468 12.8354 28.9068L17.3876 24.0603C17.3991 24.0487 17.4128 24.0395 17.4279 24.0332C17.443 24.0269 17.4592 24.0236 17.4755 24.0236C17.4919 24.0236 17.508 24.0269 17.5231 24.0332C17.5382 24.0395 17.5519 24.0487 17.5634 24.0603L18.631 25.147C19.0932 25.6232 19.6457 26.0022 20.2562 26.2618C20.8668 26.5214 21.523 26.6564 22.1863 26.6589C22.8354 26.6578 23.4778 26.5274 24.076 26.2751C24.6741 26.0229 25.216 25.6539 25.67 25.1898L26.7804 24.0603C26.7919 24.0487 26.8056 24.0395 26.8207 24.0332C26.8358 24.0269 26.852 24.0236 26.8683 24.0236C26.8847 24.0236 26.9009 24.0269 26.9159 24.0332C26.931 24.0395 26.9447 24.0487 26.9562 24.0603L31.5075 28.9105C31.6571 29.0505 31.8553 29.1269 32.0601 29.1234C32.2649 29.12 32.4604 29.0371 32.6052 28.8922C32.7501 28.7473 32.8329 28.5517 32.8364 28.3468C32.8398 28.1419 32.7635 27.9437 32.6235 27.794L28.0527 22.9215C28.0412 22.9105 28.0321 22.8972 28.0259 22.8826C28.0197 22.868 28.0165 22.8523 28.0165 22.8364C28.0165 22.8205 28.0197 22.8047 28.0259 22.7901C28.0321 22.7755 28.0412 22.7623 28.0527 22.7512L34.5821 16.0979C34.5989 16.081 34.6204 16.0695 34.6438 16.0648C34.6671 16.0601 34.6914 16.0624 34.7135 16.0714C34.7355 16.0805 34.7544 16.0959 34.7678 16.1157C34.7811 16.1354 34.7884 16.1587 34.7885 16.1826V29.4967C34.7868 30.0113 34.5816 30.5043 34.2178 30.8681C33.854 31.2319 33.3611 31.4369 32.8467 31.4384H11.4888ZM19.8019 24.0743L10.2807 14.3795C10.6202 14.1032 11.0447 13.953 11.4822 13.9543H32.8607C33.2981 13.954 33.7223 14.1041 34.0622 14.3795L24.541 24.0743C24.232 24.39 23.863 24.6409 23.4558 24.8121C23.0486 24.9834 22.6113 25.0716 22.1696 25.0716C21.7279 25.0716 21.2906 24.9834 20.8834 24.8121C20.4761 24.6409 20.1072 24.39 19.7981 24.0743H19.8019Z" fill="white"/>
</svg>
