<svg width="36" height="36" viewBox="0 0 36 36" fill="none" xmlns="http://www.w3.org/2000/svg">
<path d="M18 0C12.766 0 8.50781 4.25819 8.50781 9.49219C8.50781 14.7262 12.766 18.9844 18 18.9844C23.234 18.9844 27.4922 14.7262 27.4922 9.49219C27.4922 4.25819 23.234 0 18 0Z" fill="#2368B3"/>
<path d="M29.8101 25.1856C27.2114 22.5469 23.7663 21.0938 20.1094 21.0938H15.8906C12.2338 21.0938 8.78864 22.5469 6.18989 25.1856C3.60387 27.8113 2.17969 31.2773 2.17969 34.9453C2.17969 35.5278 2.65191 36 3.23438 36H32.7656C33.3481 36 33.8203 35.5278 33.8203 34.9453C33.8203 31.2773 32.3961 27.8113 29.8101 25.1856Z" fill="#2368B3"/>
</svg>
