<svg width="25" height="33" viewBox="0 0 25 33" fill="none" xmlns="http://www.w3.org/2000/svg">
<path d="M0 32.5689V0.642407H5.83024L6.38529 4.21851C7.15898 2.90087 8.27649 1.8185 9.61818 1.0873C10.9372 0.368516 12.4167 -0.00464006 13.9188 0.00260938C15.9129 -0.0434544 17.8733 0.521314 19.5372 1.62117C21.16 2.74147 22.4416 4.28846 23.2404 6.0913C24.8724 10.067 24.9929 14.5025 23.5794 18.5611C23.0068 20.0583 22.1213 21.4162 20.9821 22.5439C19.9606 23.5421 18.7428 24.3169 17.406 24.8192C16.1687 25.29 14.8571 25.5354 13.5333 25.5438C12.2514 25.5554 10.9818 25.294 9.80886 24.7769C8.66883 24.2728 7.66842 23.4992 6.89375 22.5227V32.5689H0ZM12.0884 19.883C12.8509 19.9118 13.6093 19.759 14.301 19.437C14.9928 19.1151 15.5981 18.6333 16.067 18.0314C17.0444 16.797 17.5345 15.1149 17.5373 12.985C17.5401 10.8552 17.05 9.16037 16.067 7.90054C15.602 7.29294 14.998 6.80576 14.3057 6.47989C13.6134 6.15402 12.853 5.99897 12.0884 6.02775C11.3518 6.00482 10.6208 6.1637 9.96017 6.49033C9.29951 6.81697 8.72949 7.3013 8.30045 7.90054C7.36264 9.15189 6.89375 10.8467 6.89375 12.985C6.89375 15.1234 7.36264 16.8055 8.30045 18.0314C8.73338 18.6251 9.30473 19.1041 9.96488 19.4268C10.625 19.7495 11.354 19.9061 12.0884 19.883Z" fill="url(#paint0_linear_2010_1158)"/>
<defs>
<linearGradient id="paint0_linear_2010_1158" x1="174.75" y1="59.7074" x2="-64.98" y2="-2.60322" gradientUnits="userSpaceOnUse">
<stop stop-color="#CCE0F4"/>
<stop offset="0.18" stop-color="#7AB0DB"/>
<stop offset="0.35" stop-color="#2F83C3"/>
<stop offset="0.43" stop-color="#1172BA"/>
<stop offset="0.62" stop-color="#4555A8"/>
<stop offset="0.79" stop-color="#6F3E9A"/>
<stop offset="0.92" stop-color="#892F91"/>
<stop offset="1" stop-color="#932A8E"/>
</linearGradient>
</defs>
</svg>
