<svg width="25" height="26" viewBox="0 0 25 26" fill="none" xmlns="http://www.w3.org/2000/svg">
<path d="M12.4303 25.5663C10.1819 25.6086 7.96294 25.0499 6.00268 23.9477C4.14622 22.8876 2.62067 21.3328 1.59611 19.4564C0.503329 17.4307 -0.0455812 15.1562 0.00296167 12.8551C-0.0455006 10.5282 0.50299 8.2278 1.59611 6.17317C2.62032 4.28562 4.14502 2.71694 6.00268 1.63949C7.97808 0.56366 10.1916 0 12.4409 0C14.6903 0 16.9038 0.56366 18.8792 1.63949C20.7278 2.72155 22.2446 4.28958 23.2646 6.17317C24.3592 8.22741 24.9091 10.5279 24.8619 12.8551C24.9048 15.148 24.3546 17.4132 23.2646 19.431C22.2442 21.3033 20.7266 22.8575 18.8792 23.9223C16.9157 25.0383 14.6884 25.6061 12.4303 25.5663ZM12.4303 19.609C13.1812 19.624 13.9251 19.462 14.6016 19.1358C15.2781 18.8097 15.8683 18.3287 16.3242 17.7319C17.3326 16.4862 17.8369 14.8691 17.8369 12.8805C17.8369 10.8382 17.3326 9.17868 16.3242 7.9019C15.8651 7.30583 15.2753 6.82311 14.6002 6.49096C13.9251 6.1588 13.1827 5.98606 12.4303 5.98606C11.6779 5.98606 10.9356 6.1588 10.2605 6.49096C9.58541 6.82311 8.99556 7.30583 8.53645 7.9019C7.52802 9.17585 7.02382 10.8354 7.02382 12.8805C7.02382 14.8578 7.52802 16.4749 8.53645 17.7319C8.99324 18.3269 9.58389 18.8058 10.2605 19.1297C10.937 19.4537 11.6804 19.6135 12.4303 19.5963V19.609Z" fill="url(#paint0_linear_2010_1156)"/>
<defs>
<linearGradient id="paint0_linear_2010_1156" x1="241.538" y1="72.3353" x2="1.80794" y2="10.0205" gradientUnits="userSpaceOnUse">
<stop stop-color="#CCE0F4"/>
<stop offset="0.18" stop-color="#7AB0DB"/>
<stop offset="0.35" stop-color="#2F83C3"/>
<stop offset="0.43" stop-color="#1172BA"/>
<stop offset="0.62" stop-color="#4555A8"/>
<stop offset="0.79" stop-color="#6F3E9A"/>
<stop offset="0.92" stop-color="#892F91"/>
<stop offset="1" stop-color="#932A8E"/>
</linearGradient>
</defs>
</svg>
