<svg width="23" height="31" viewBox="0 0 23 31" fill="none" xmlns="http://www.w3.org/2000/svg">
<path d="M0 30.4691V0.60099H5.45435L5.97362 3.94653C6.69742 2.71384 7.7429 1.70125 8.99809 1.0172C10.2321 0.344757 11.6162 -0.00434091 13.0214 0.00244115C14.8869 -0.0406528 16.721 0.487704 18.2776 1.51665C19.7957 2.56472 20.9947 4.01197 21.7421 5.69858C23.2688 9.41799 23.3816 13.5675 22.0592 17.3644C21.5234 18.7641 20.6965 20.0341 19.6333 21.0905C18.6771 22.0234 17.538 22.7482 16.2877 23.2191C15.1287 23.6591 13.9004 23.8887 12.6607 23.8969C11.4616 23.9074 10.2739 23.6629 9.17647 23.1794C8.10994 22.7079 7.17402 21.9842 6.44929 21.0706V30.4691H0ZM11.3091 18.6011C12.0224 18.6281 12.7318 18.4851 13.379 18.1839C14.0262 17.8827 14.5924 17.432 15.0312 16.8689C15.9455 15.7141 16.404 14.1404 16.4066 12.1479C16.4093 10.1553 15.9508 8.56978 15.0312 7.39118C14.5961 6.82275 14.031 6.36697 13.3834 6.06211C12.7357 5.75725 12.0244 5.6122 11.3091 5.63913C10.6199 5.61768 9.93609 5.76631 9.31803 6.07189C8.69996 6.37746 8.16669 6.83057 7.76532 7.39118C6.89061 8.56185 6.45194 10.1474 6.44929 12.1479C6.44665 14.1483 6.88533 15.722 7.76532 16.8689C8.17033 17.4243 8.70485 17.8725 9.32243 18.1743C9.94001 18.4762 10.622 18.6227 11.3091 18.6011Z" fill="url(#paint0_linear_2010_1579)"/>
<defs>
<linearGradient id="paint0_linear_2010_1579" x1="99.6964" y1="39.2769" x2="-124.578" y2="-19.0164" gradientUnits="userSpaceOnUse">
<stop stop-color="#CCE0F4"/>
<stop offset="0.18" stop-color="#7AB0DB"/>
<stop offset="0.35" stop-color="#2F83C3"/>
<stop offset="0.43" stop-color="#1172BA"/>
<stop offset="0.62" stop-color="#4555A8"/>
<stop offset="0.79" stop-color="#6F3E9A"/>
<stop offset="0.92" stop-color="#892F91"/>
<stop offset="1" stop-color="#932A8E"/>
</linearGradient>
</defs>
</svg>
