<svg width="24" height="24" viewBox="0 0 24 24" fill="none" xmlns="http://www.w3.org/2000/svg">
<path d="M11.6289 23.918C9.52545 23.9576 7.44955 23.4348 5.61567 22.4038C3.8789 21.412 2.45171 19.9574 1.49321 18.202C0.470879 16.3069 -0.0426425 14.1791 0.00277072 12.0263C-0.0425671 9.84946 0.470561 7.69734 1.49321 5.77517C2.45138 4.00932 3.87778 2.54177 5.61567 1.53378C7.46372 0.52732 9.53451 0 11.6388 0C13.7432 0 15.814 0.52732 17.662 1.53378C19.3915 2.54609 20.8104 4.01302 21.7647 5.77517C22.7887 7.69697 23.3032 9.84911 23.259 12.0263C23.2991 14.1714 22.7844 16.2905 21.7647 18.1783C20.81 19.9299 19.3903 21.3839 17.662 22.38C15.8251 23.424 13.7414 23.9552 11.6289 23.918ZM11.6289 18.3447C12.3314 18.3588 13.0273 18.2072 13.6602 17.9021C14.2931 17.597 14.8452 17.1471 15.2718 16.5887C16.2152 15.4233 16.6869 13.9104 16.6869 12.05C16.6869 10.1394 16.2152 8.58691 15.2718 7.39245C14.8422 6.8348 14.2904 6.38321 13.6589 6.07247C13.0273 5.76173 12.3328 5.60013 11.6289 5.60013C10.925 5.60013 10.2306 5.76173 9.59899 6.07247C8.96742 6.38321 8.4156 6.8348 7.98609 7.39245C7.04268 8.58426 6.57098 10.1368 6.57098 12.05C6.57098 13.8999 7.04268 15.4128 7.98609 16.5887C8.41343 17.1453 8.966 17.5934 9.59894 17.8964C10.2319 18.1994 10.9274 18.349 11.6289 18.3329V18.3447Z" fill="url(#paint0_linear_2010_1574)"/>
<defs>
<linearGradient id="paint0_linear_2010_1574" x1="225.966" y1="67.6717" x2="1.69138" y2="9.37443" gradientUnits="userSpaceOnUse">
<stop stop-color="#CCE0F4"/>
<stop offset="0.18" stop-color="#7AB0DB"/>
<stop offset="0.35" stop-color="#2F83C3"/>
<stop offset="0.43" stop-color="#1172BA"/>
<stop offset="0.62" stop-color="#4555A8"/>
<stop offset="0.79" stop-color="#6F3E9A"/>
<stop offset="0.92" stop-color="#892F91"/>
<stop offset="1" stop-color="#932A8E"/>
</linearGradient>
</defs>
</svg>
