<svg width="24" height="26" viewBox="0 0 24 26" fill="none" xmlns="http://www.w3.org/2000/svg">
<path d="M11.0199 25.5557C8.98795 25.5921 6.99252 25.0131 5.29559 23.8948C3.59976 22.7483 2.25135 21.158 1.39746 19.2976C0.430777 17.1857 -0.0457749 14.8826 0.00346167 12.5606C-0.0427921 10.3079 0.422233 8.07408 1.36357 6.027C2.1816 4.24133 3.46879 2.71105 5.08797 1.59925C6.71956 0.52051 8.6406 -0.0365945 10.5962 0.0018652C12.0604 -0.0258512 13.511 0.28748 14.8333 0.917078C16.0304 1.49988 17.0619 2.37405 17.8331 3.45933L18.2187 0.650139H23.9218V24.9117H18.2229L17.8374 21.7212C17.1252 22.8868 16.1297 23.8532 14.9434 24.5304C13.75 25.2149 12.3956 25.5689 11.0199 25.5557ZM12.2529 19.5094C12.9895 19.5323 13.7205 19.3735 14.3811 19.0468C15.0418 18.7202 15.6118 18.2359 16.0408 17.6366C16.9786 16.3909 17.4476 14.7031 17.4476 12.5733C17.4476 10.4435 16.9786 8.76133 16.0408 7.52693C15.5878 6.94826 15.009 6.48028 14.3483 6.15844C13.6876 5.83661 12.9624 5.66936 12.2275 5.66936C11.4926 5.66936 10.7673 5.83661 10.1066 6.15844C9.44589 6.48028 8.86711 6.94826 8.41408 7.52693C7.47627 8.76416 7.00737 10.4463 7.00737 12.5733C7.00737 14.7003 7.47627 16.3881 8.41408 17.6366C8.8509 18.2371 9.4288 18.7209 10.0968 19.0453C10.7648 19.3697 11.5023 19.5247 12.2444 19.4967L12.2529 19.5094Z" fill="url(#paint0_linear_2010_1154)"/>
<defs>
<linearGradient id="paint0_linear_2010_1154" x1="284.66" y1="82.7352" x2="44.9293" y2="20.4246" gradientUnits="userSpaceOnUse">
<stop stop-color="#CCE0F4"/>
<stop offset="0.18" stop-color="#7AB0DB"/>
<stop offset="0.35" stop-color="#2F83C3"/>
<stop offset="0.43" stop-color="#1172BA"/>
<stop offset="0.62" stop-color="#4555A8"/>
<stop offset="0.79" stop-color="#6F3E9A"/>
<stop offset="0.92" stop-color="#892F91"/>
<stop offset="1" stop-color="#932A8E"/>
</linearGradient>
</defs>
</svg>
