<svg width="25" height="26" viewBox="0 0 25 26" fill="none" xmlns="http://www.w3.org/2000/svg">
<path d="M12.4305 25.5663C10.1821 25.6086 7.96312 25.0499 6.00286 23.9477C4.14769 22.8874 2.62357 21.3325 1.60052 19.4564C0.50444 17.4318 -0.0460582 15.1568 0.0031295 12.8551C-0.0468816 10.5276 0.503247 8.22639 1.60052 6.17317C2.62321 4.28592 4.14649 2.71721 6.00286 1.63949C7.97826 0.56366 10.1918 0 12.4411 0C14.6905 0 16.9039 0.56366 18.8793 1.63949C20.728 2.72155 22.2447 4.28957 23.2647 6.17317C24.3638 8.22623 24.9181 10.5268 24.8748 12.8551C24.9177 15.148 24.3674 17.4132 23.2774 19.431C22.257 21.3033 20.7395 22.8575 18.8921 23.9223C16.9251 25.0411 14.693 25.609 12.4305 25.5663ZM12.4305 19.609C13.182 19.624 13.9265 19.462 14.6037 19.1359C15.2809 18.8098 15.8718 18.3288 16.3286 17.7319C17.3314 16.4862 17.8342 14.8691 17.837 12.8805C17.837 10.8382 17.3342 9.17868 16.3286 7.9019C15.8691 7.30577 15.2789 6.82305 14.6034 6.4909C13.928 6.15874 13.1853 5.98602 12.4326 5.98602C11.6799 5.98602 10.9373 6.15874 10.2618 6.4909C9.58638 6.82305 8.99618 7.30577 8.53663 7.9019C7.5282 9.17585 7.0254 10.8354 7.02823 12.8805C7.02823 14.8578 7.53103 16.4749 8.53663 17.7319C8.99389 18.3264 9.58462 18.8049 10.2611 19.1288C10.9375 19.4527 11.6807 19.6128 12.4305 19.5963V19.609Z" fill="url(#paint0_linear_2010_1160)"/>
<defs>
<linearGradient id="paint0_linear_2010_1160" x1="134.323" y1="44.4637" x2="-105.407" y2="-17.8469" gradientUnits="userSpaceOnUse">
<stop stop-color="#CCE0F4"/>
<stop offset="0.18" stop-color="#7AB0DB"/>
<stop offset="0.35" stop-color="#2F83C3"/>
<stop offset="0.43" stop-color="#1172BA"/>
<stop offset="0.62" stop-color="#4555A8"/>
<stop offset="0.79" stop-color="#6F3E9A"/>
<stop offset="0.92" stop-color="#892F91"/>
<stop offset="1" stop-color="#932A8E"/>
</linearGradient>
</defs>
</svg>
