<svg width="23" height="24" viewBox="0 0 23 24" fill="none" xmlns="http://www.w3.org/2000/svg">
<path d="M10.3094 23.9081C8.40848 23.9421 6.5417 23.4004 4.95417 22.3543C3.36767 21.2816 2.1062 19.7939 1.30736 18.0534C0.403004 16.0777 -0.0428237 13.9231 0.00323849 11.7508C-0.0400332 9.64335 0.39501 7.55353 1.27566 5.63843C2.04095 3.96788 3.24515 2.53626 4.75994 1.49614C6.28633 0.486952 8.08352 -0.0342351 9.91302 0.00174494C11.2829 -0.0241845 12.6399 0.268946 13.8769 0.857952C14.9968 1.40318 15.9618 2.22099 16.6834 3.2363L17.0441 0.608223H22.3795V23.3056H17.0481L16.6874 20.3208C16.0211 21.4112 15.0898 22.3153 13.98 22.9488C12.8635 23.5893 11.5965 23.9204 10.3094 23.9081ZM11.4629 18.2516C12.1521 18.273 12.8359 18.1244 13.4539 17.8188C14.072 17.5133 14.6053 17.0602 15.0067 16.4996C15.884 15.3342 16.3227 13.7552 16.3227 11.7627C16.3227 9.77015 15.884 8.19647 15.0067 7.04165C14.5828 6.50029 14.0414 6.06248 13.4233 5.7614C12.8052 5.46031 12.1267 5.30384 11.4391 5.30384C10.7516 5.30384 10.0731 5.46031 9.45499 5.7614C8.8369 6.06248 8.29543 6.50029 7.87161 7.04165C6.99426 8.19912 6.55559 9.77279 6.55559 11.7627C6.55559 13.7526 6.99426 15.3315 7.87161 16.4996C8.28027 17.0614 8.8209 17.514 9.44583 17.8174C10.0708 18.1209 10.7608 18.2659 11.455 18.2397L11.4629 18.2516Z" fill="url(#paint0_linear_2010_1572)"/>
<defs>
<linearGradient id="paint0_linear_2010_1572" x1="266.307" y1="77.4011" x2="42.0326" y2="19.1078" gradientUnits="userSpaceOnUse">
<stop stop-color="#CCE0F4"/>
<stop offset="0.18" stop-color="#7AB0DB"/>
<stop offset="0.35" stop-color="#2F83C3"/>
<stop offset="0.43" stop-color="#1172BA"/>
<stop offset="0.62" stop-color="#4555A8"/>
<stop offset="0.79" stop-color="#6F3E9A"/>
<stop offset="0.92" stop-color="#892F91"/>
<stop offset="1" stop-color="#932A8E"/>
</linearGradient>
</defs>
</svg>
