<svg width="16" height="25" viewBox="0 0 16 25" fill="none" xmlns="http://www.w3.org/2000/svg">
<path d="M0 24.9056V10.8597C0 7.3683 0.943455 4.68481 2.83037 2.8092C4.71729 0.93358 7.42056 -0.00281835 10.9402 6.37155e-06C11.3088 6.37155e-06 11.8893 0.0211957 12.6858 0.0635666C13.4868 0.108331 14.283 0.216 15.0671 0.385583V6.31751L13.5375 6.08446C13.0013 6.00951 12.4603 5.9741 11.9189 5.97854C11.0804 5.97197 10.2462 6.10074 9.4487 6.35988C8.68319 6.61555 8.02924 7.12733 7.59709 7.80896C7.13101 8.51656 6.89796 9.55464 6.89796 10.9147V24.9183L0 24.9056Z" fill="url(#paint0_linear_2010_1159)"/>
<defs>
<linearGradient id="paint0_linear_2010_1159" x1="149.311" y1="49.4977" x2="-90.4194" y2="-12.8129" gradientUnits="userSpaceOnUse">
<stop stop-color="#CCE0F4"/>
<stop offset="0.18" stop-color="#7AB0DB"/>
<stop offset="0.35" stop-color="#2F83C3"/>
<stop offset="0.43" stop-color="#1172BA"/>
<stop offset="0.62" stop-color="#4555A8"/>
<stop offset="0.79" stop-color="#6F3E9A"/>
<stop offset="0.92" stop-color="#892F91"/>
<stop offset="1" stop-color="#932A8E"/>
</linearGradient>
</defs>
</svg>
