<svg width="24" height="24" viewBox="0 0 24 24" fill="none" xmlns="http://www.w3.org/2000/svg">
<path d="M11.6291 23.918C9.52562 23.9576 7.44972 23.4348 5.61584 22.4038C3.88028 21.4118 2.45442 19.9571 1.49733 18.202C0.471918 16.3079 -0.0430887 14.1796 0.00292774 12.0263C-0.043859 9.84883 0.470802 7.69602 1.49733 5.77517C2.45409 4.0096 3.87915 2.54202 5.61584 1.53378C7.46388 0.52732 9.53468 0 11.639 0C13.7433 0 15.8141 0.52732 17.6622 1.53378C19.3916 2.54609 20.8106 4.01302 21.7648 5.77517C22.793 7.69587 23.3116 9.84807 23.2711 12.0263C23.3112 14.1714 22.7964 16.2905 21.7767 18.1783C20.8221 19.9299 19.4024 21.3839 17.6741 22.38C15.8339 23.4267 13.7457 23.958 11.6291 23.918ZM11.6291 18.3447C12.3321 18.3588 13.0286 18.2072 13.6621 17.9021C14.2957 17.5971 14.8485 17.1471 15.2759 16.5887C16.214 15.4233 16.6844 13.9104 16.687 12.05C16.687 10.1394 16.2167 8.58691 15.2759 7.39245C14.846 6.83475 14.2938 6.38315 13.6619 6.07242C13.03 5.76168 12.3352 5.60009 11.6311 5.60009C10.9269 5.60009 10.2321 5.76168 9.60022 6.07242C8.96833 6.38315 8.41617 6.83475 7.98625 7.39245C7.04284 8.58426 6.57246 10.1368 6.5751 12.05C6.5751 13.8999 7.04549 15.4128 7.98625 16.5887C8.41403 17.1449 8.96668 17.5925 9.59952 17.8955C10.2324 18.1985 10.9276 18.3483 11.6291 18.3329V18.3447Z" fill="url(#paint0_linear_2010_1578)"/>
<defs>
<linearGradient id="paint0_linear_2010_1578" x1="125.663" y1="41.5971" x2="-98.6113" y2="-16.6963" gradientUnits="userSpaceOnUse">
<stop stop-color="#CCE0F4"/>
<stop offset="0.18" stop-color="#7AB0DB"/>
<stop offset="0.35" stop-color="#2F83C3"/>
<stop offset="0.43" stop-color="#1172BA"/>
<stop offset="0.62" stop-color="#4555A8"/>
<stop offset="0.79" stop-color="#6F3E9A"/>
<stop offset="0.92" stop-color="#892F91"/>
<stop offset="1" stop-color="#932A8E"/>
</linearGradient>
</defs>
</svg>
