<svg width="25" height="33" viewBox="0 0 25 33" fill="none" xmlns="http://www.w3.org/2000/svg">
<path d="M0 32.5689V0.642407H5.83024L6.38529 4.21851C7.15898 2.90087 8.27651 1.8185 9.61819 1.0873C10.9372 0.368516 12.4167 -0.00464006 13.9188 0.00260938C15.9129 -0.0434544 17.8733 0.521314 19.5372 1.62117C21.16 2.74147 22.4416 4.28846 23.2404 6.0913C24.8724 10.067 24.993 14.5025 23.5794 18.5611C23.0067 20.0572 22.1228 21.4148 20.9863 22.5439C19.9642 23.5412 18.7466 24.3159 17.4102 24.8192C16.1713 25.2896 14.8584 25.535 13.5333 25.5438C12.2515 25.555 10.9819 25.2936 9.80887 24.7769C8.66884 24.2728 7.66842 23.4992 6.89375 22.5227V32.5689H0ZM12.0884 19.883C12.8509 19.9118 13.6093 19.759 14.301 19.437C14.9928 19.1151 15.5981 18.6333 16.067 18.0314C17.0444 16.797 17.5345 15.1149 17.5373 12.985C17.5401 10.8552 17.05 9.16037 16.067 7.90054C15.602 7.29294 14.998 6.80576 14.3057 6.47989C13.6134 6.15402 12.853 5.99897 12.0884 6.02775C11.3518 6.00482 10.6208 6.1637 9.96018 6.49033C9.29952 6.81697 8.7295 7.3013 8.30047 7.90054C7.36548 9.15189 6.89657 10.8467 6.89375 12.985C6.89092 15.1234 7.35983 16.8055 8.30047 18.0314C8.73339 18.6251 9.30474 19.1041 9.96489 19.4268C10.625 19.7495 11.354 19.9061 12.0884 19.883Z" fill="url(#paint0_linear_2010_1161)"/>
<defs>
<linearGradient id="paint0_linear_2010_1161" x1="106.567" y1="41.9837" x2="-133.163" y2="-20.327" gradientUnits="userSpaceOnUse">
<stop stop-color="#CCE0F4"/>
<stop offset="0.18" stop-color="#7AB0DB"/>
<stop offset="0.35" stop-color="#2F83C3"/>
<stop offset="0.43" stop-color="#1172BA"/>
<stop offset="0.62" stop-color="#4555A8"/>
<stop offset="0.79" stop-color="#6F3E9A"/>
<stop offset="0.92" stop-color="#892F91"/>
<stop offset="1" stop-color="#932A8E"/>
</linearGradient>
</defs>
</svg>
