<svg width="35" height="24" viewBox="0 0 35 24" fill="none" xmlns="http://www.w3.org/2000/svg">
<path d="M0.00261894 23.4963V9.95955C-0.0373811 8.15865 0.381393 6.37716 1.21954 4.78268C1.99764 3.32732 3.16214 2.11481 4.5849 1.27859C6.08211 0.409486 7.78914 -0.0320106 9.51998 0.00220559C11.1198 -0.0143933 12.7018 0.339717 14.1419 1.03679C15.5058 1.69153 16.6834 2.67834 17.5667 3.90666C18.4659 2.6855 19.6479 1.70072 21.0114 1.03679C22.4294 0.341189 23.9905 -0.0131075 25.5699 0.00220559C27.2898 -0.0353197 28.9863 0.406634 30.4693 1.27859C31.8713 2.1219 33.0148 3.334 33.7752 4.78268C34.5949 6.38294 35.0035 8.162 34.9643 9.95955V23.4963H28.4754V9.95955C28.5215 8.86822 28.1517 7.80006 27.4408 6.97077C27.0901 6.58824 26.6601 6.28684 26.1808 6.08762C25.7016 5.88839 25.1847 5.79613 24.6661 5.81727C24.1433 5.80015 23.6229 5.89411 23.1391 6.09295C22.6554 6.29178 22.2193 6.59098 21.8596 6.97077C21.4891 7.37226 21.2013 7.84292 21.0129 8.35578C20.8245 8.86865 20.7391 9.41364 20.7616 9.95955V23.4963H14.3005V9.95955C14.3453 8.85783 13.9519 7.78321 13.2064 6.97077C12.8395 6.58842 12.396 6.28798 11.9048 6.08919C11.4136 5.89039 10.8859 5.79772 10.3564 5.81727C9.8336 5.80015 9.31316 5.89411 8.82939 6.09295C8.34562 6.29178 7.90954 6.59098 7.54991 6.97077C6.80443 7.78321 6.41106 8.85783 6.45587 9.95955V23.4963H0.00261894Z" fill="url(#paint0_linear_2010_1575)"/>
<defs>
<linearGradient id="paint0_linear_2010_1575" x1="201.338" y1="60.5787" x2="-22.9326" y2="2.28539" gradientUnits="userSpaceOnUse">
<stop stop-color="#CCE0F4"/>
<stop offset="0.18" stop-color="#7AB0DB"/>
<stop offset="0.35" stop-color="#2F83C3"/>
<stop offset="0.43" stop-color="#1172BA"/>
<stop offset="0.62" stop-color="#4555A8"/>
<stop offset="0.79" stop-color="#6F3E9A"/>
<stop offset="0.92" stop-color="#892F91"/>
<stop offset="1" stop-color="#932A8E"/>
</linearGradient>
</defs>
</svg>
