<svg width="38" height="26" viewBox="0 0 38 26" fill="none" xmlns="http://www.w3.org/2000/svg">
<path d="M0.00279943 25.1156V10.6459C-0.0399572 8.7209 0.407677 6.81665 1.30359 5.11228C2.13531 3.55662 3.38006 2.26055 4.90087 1.3667C6.50126 0.437706 8.32593 -0.0342167 10.1761 0.00235759C11.8862 -0.0153852 13.5771 0.363129 15.1165 1.10824C16.5744 1.80811 17.8332 2.86292 18.7773 4.17588C19.7385 2.87057 21.002 1.81792 22.4594 1.10824C23.9751 0.364702 25.6438 -0.0140109 27.332 0.00235759C29.1705 -0.0377537 30.9838 0.434658 32.5691 1.3667C34.0677 2.26813 35.29 3.56376 36.1028 5.11228C36.979 6.82283 37.4158 8.72449 37.3739 10.6459V25.1156H30.4378V10.6459C30.4871 9.47938 30.0918 8.33761 29.3319 7.45116C28.957 7.04227 28.4973 6.7201 27.9851 6.50715C27.4728 6.29419 26.9203 6.19557 26.366 6.21816C25.8072 6.19987 25.2509 6.3003 24.7338 6.51284C24.2167 6.72538 23.7505 7.0452 23.3661 7.45116C22.97 7.88032 22.6624 8.38342 22.461 8.93162C22.2596 9.47983 22.1683 10.0624 22.1924 10.6459V25.1156H15.286V10.6459C15.3339 9.46827 14.9134 8.31959 14.1165 7.45116C13.7244 7.04246 13.2502 6.72132 12.7252 6.50882C12.2001 6.29632 11.6361 6.19727 11.0701 6.21816C10.5113 6.19987 9.95498 6.3003 9.43787 6.51284C8.92076 6.72538 8.45462 7.0452 8.07022 7.45116C7.27336 8.31959 6.85288 9.46827 6.90078 10.6459V25.1156H0.00279943Z" fill="url(#paint0_linear_2010_1157)"/>
<defs>
<linearGradient id="paint0_linear_2010_1157" x1="215.213" y1="64.7535" x2="-24.513" y2="2.4429" gradientUnits="userSpaceOnUse">
<stop stop-color="#CCE0F4"/>
<stop offset="0.18" stop-color="#7AB0DB"/>
<stop offset="0.35" stop-color="#2F83C3"/>
<stop offset="0.43" stop-color="#1172BA"/>
<stop offset="0.62" stop-color="#4555A8"/>
<stop offset="0.79" stop-color="#6F3E9A"/>
<stop offset="0.92" stop-color="#892F91"/>
<stop offset="1" stop-color="#932A8E"/>
</linearGradient>
</defs>
</svg>
