<svg width="23" height="31" viewBox="0 0 23 31" fill="none" xmlns="http://www.w3.org/2000/svg">
<path d="M0 30.4691V0.60099H5.45435L5.97362 3.94653C6.69742 2.71384 7.74289 1.70125 8.99808 1.0172C10.232 0.344757 11.6162 -0.00434091 13.0215 0.00244115C14.8869 -0.0406528 16.721 0.487704 18.2776 1.51665C19.7958 2.56472 20.9947 4.01197 21.7421 5.69858C23.2688 9.41799 23.3816 13.5675 22.0592 17.3644C21.5235 18.7651 20.6951 20.0354 19.6293 21.0905C18.6737 22.0243 17.5344 22.7491 16.2838 23.2191C15.1262 23.6595 13.8992 23.8891 12.6608 23.8969C11.4616 23.9078 10.2738 23.6632 9.17646 23.1794C8.10993 22.7079 7.17402 21.9842 6.4493 21.0706V30.4691H0ZM11.309 18.6011C12.0223 18.6281 12.7318 18.4851 13.379 18.1839C14.0262 17.8827 14.5925 17.432 15.0312 16.8689C15.9455 15.7141 16.404 14.1404 16.4066 12.1479C16.4093 10.1553 15.9508 8.56978 15.0312 7.39118C14.5961 6.82275 14.031 6.36697 13.3833 6.06211C12.7357 5.75725 12.0244 5.6122 11.309 5.63913C10.6199 5.61768 9.93608 5.76631 9.31802 6.07189C8.69995 6.37746 8.16668 6.83057 7.76531 7.39118C6.88796 8.56185 6.4493 10.1474 6.4493 12.1479C6.4493 14.1483 6.88796 15.722 7.76531 16.8689C8.17032 17.4243 8.70483 17.8725 9.32242 18.1743C9.94 18.4762 10.622 18.6227 11.309 18.6011Z" fill="url(#paint0_linear_2010_1576)"/>
<defs>
<linearGradient id="paint0_linear_2010_1576" x1="163.484" y1="55.8579" x2="-60.7906" y2="-2.43538" gradientUnits="userSpaceOnUse">
<stop stop-color="#CCE0F4"/>
<stop offset="0.18" stop-color="#7AB0DB"/>
<stop offset="0.35" stop-color="#2F83C3"/>
<stop offset="0.43" stop-color="#1172BA"/>
<stop offset="0.62" stop-color="#4555A8"/>
<stop offset="0.79" stop-color="#6F3E9A"/>
<stop offset="0.92" stop-color="#892F91"/>
<stop offset="1" stop-color="#932A8E"/>
</linearGradient>
</defs>
</svg>
