<svg width="31" height="31" viewBox="0 0 31 31" fill="none" xmlns="http://www.w3.org/2000/svg">
<path d="M30.803 14.8973C30.526 14.5184 23.9274 5.62109 15.4998 5.62109C7.07225 5.62109 0.473356 14.5184 0.196717 14.8969C-0.0655724 15.2563 -0.0655724 15.7438 0.196717 16.1032C0.473356 16.482 7.07225 25.3793 15.4998 25.3793C23.9274 25.3793 30.526 16.482 30.803 16.1035C31.0656 15.7441 31.0656 15.2563 30.803 14.8973ZM15.4998 23.3354C9.29203 23.3354 3.91539 17.4301 2.32379 15.4995C3.91333 13.5673 9.2787 7.66504 15.4998 7.66504C21.7074 7.66504 27.0836 13.5693 28.6759 15.5009C27.0864 17.4331 21.721 23.3354 15.4998 23.3354Z" fill="white"/>
<path d="M15.5001 9.36816C12.119 9.36816 9.36816 12.119 9.36816 15.5001C9.36816 18.8811 12.119 21.632 15.5001 21.632C18.8811 21.632 21.632 18.8811 21.632 15.5001C21.632 12.119 18.8811 9.36816 15.5001 9.36816ZM15.5001 19.588C13.2459 19.588 11.4122 17.7542 11.4122 15.5001C11.4122 13.246 13.246 11.4122 15.5001 11.4122C17.7542 11.4122 19.588 13.246 19.588 15.5001C19.588 17.7542 17.7542 19.588 15.5001 19.588Z" fill="white"/>
</svg>
