<svg width="39" height="39" viewBox="0 0 39 39" fill="none" xmlns="http://www.w3.org/2000/svg">
<g clip-path="url(#clip0_2175_1628)">
<path d="M36.3404 31.9091H30.1359C26.2261 31.9091 23.0451 28.7282 23.0451 24.8184C23.0451 20.9086 26.2261 17.7276 30.1359 17.7276H36.3404C36.8303 17.7276 37.2267 17.3312 37.2267 16.8412V14.1822C37.2267 12.3235 35.785 10.8119 33.9635 10.6654L28.8731 1.77416C28.4014 0.951851 27.6396 0.364118 26.7282 0.120067C25.821 -0.122322 24.8724 0.00498032 24.0605 0.477543L6.61023 10.6368H3.54542C1.59011 10.6368 0 12.2268 0 14.1822V35.4546C0 37.4099 1.59003 39 3.54542 39H33.6813C35.6366 39 37.2267 37.41 37.2267 35.4546V32.7955C37.2267 32.3056 36.8303 31.9091 36.3404 31.9091ZM29.9724 7.26343L31.9037 10.6368H24.1782L29.9724 7.26343ZM10.1335 10.6368L24.9528 2.00957C25.3536 1.77499 25.8218 1.71267 26.2694 1.83216C26.7221 1.95331 27.0995 2.24589 27.3341 2.6553L27.3359 2.65854L13.6327 10.6368H10.1335Z" fill="white"/>
<path d="M36.3409 19.5005H30.1365C27.2039 19.5005 24.8184 21.886 24.8184 24.8186C24.8184 27.7512 27.2039 30.1367 30.1365 30.1367H36.3409C37.8072 30.1367 39 28.9439 39 27.4776V22.1595C39 20.6932 37.8072 19.5005 36.3409 19.5005ZM30.1365 26.5913C29.1593 26.5913 28.3638 25.7958 28.3638 24.8186C28.3638 23.8414 29.1593 23.0459 30.1365 23.0459C31.1137 23.0459 31.9091 23.8414 31.9091 24.8186C31.9092 25.7958 31.1137 26.5913 30.1365 26.5913Z" fill="white"/>
</g>
<defs>
<clipPath id="clip0_2175_1628">
<rect width="39" height="39" fill="white"/>
</clipPath>
</defs>
</svg>
