<svg width="37" height="37" viewBox="0 0 37 37" fill="none" xmlns="http://www.w3.org/2000/svg">
<g clip-path="url(#clip0_2010_1555)">
<path fill-rule="evenodd" clip-rule="evenodd" d="M27.75 37H9.25C6.79678 36.9999 4.44407 36.0253 2.70938 34.2906C0.974693 32.5559 0.000107321 30.2032 0 27.75L0 9.25C0.000107321 6.79678 0.974693 4.44407 2.70938 2.70938C4.44407 0.974693 6.79678 0.000107321 9.25 0L27.75 0C30.2033 0 32.556 0.974551 34.2907 2.70926C36.0254 4.44397 37 6.79675 37 9.25V27.75C37 30.2033 36.0254 32.556 34.2907 34.2907C32.556 36.0254 30.2033 37 27.75 37Z" fill="#00D264"/>
<path fill-rule="evenodd" clip-rule="evenodd" d="M17.3438 10.4062H27.75C29.0839 10.4062 30.3668 9.89383 31.3338 8.97505C32.3008 8.05627 32.8781 6.80121 32.9463 5.46907C33.0146 4.13692 32.5687 2.82943 31.7006 1.81662C30.8326 0.803807 29.6088 0.163021 28.2819 0.0265938C28.105 0.0167656 27.9298 0 27.75 0H9.25C6.79678 0.000107321 4.44407 0.974693 2.70938 2.70938C0.974693 4.44407 0.000107321 6.79678 0 9.25L0 27.75C0.000107325 23.1502 1.82742 18.7388 5.07999 15.4862C8.33255 12.2337 12.7439 10.4064 17.3438 10.4062Z" fill="#00EB78"/>
<path fill-rule="evenodd" clip-rule="evenodd" d="M27.75 18.5C25.9205 18.5 24.1321 19.0425 22.611 20.0589C21.0898 21.0753 19.9042 22.52 19.2041 24.2102C18.504 25.9004 18.3208 27.7603 18.6777 29.5546C19.0347 31.3489 19.9156 32.9971 21.2093 34.2907C22.5029 35.5844 24.1511 36.4654 25.9454 36.8223C27.7397 37.1792 29.5996 36.996 31.2898 36.2959C32.98 35.5958 34.4247 34.4102 35.4411 32.889C36.4575 31.3679 37 29.5795 37 27.75V9.25C37 11.7033 36.0255 14.056 34.2907 15.7907C32.556 17.5254 30.2033 18.5 27.75 18.5Z" fill="#00B950"/>
<path fill-rule="evenodd" clip-rule="evenodd" d="M12.5297 27.2254C12.6836 27.1817 12.8449 27.1703 13.0034 27.192C13.1619 27.2137 13.3142 27.268 13.4507 27.3515C15.7493 28.721 18.4692 29.2034 21.0986 28.7081C23.7281 28.2127 26.0859 26.7738 27.7287 24.6618C29.3716 22.5498 30.1861 19.9103 30.0192 17.2398C29.8523 14.5694 28.7154 12.0519 26.8224 10.1609C24.9294 8.26988 22.4107 7.13568 19.74 6.97162C17.0694 6.80755 14.4308 7.62491 12.3206 9.26997C10.2103 10.915 8.77384 13.2744 8.2813 15.9044C7.78877 18.5344 8.27411 21.2537 9.64605 23.5509C9.72924 23.6869 9.7833 23.8388 9.80479 23.9968C9.82628 24.1548 9.81475 24.3156 9.77092 24.4689C9.44891 25.6084 8.67191 28.3279 8.67191 28.3279C8.67191 28.3279 11.3914 27.5509 12.5297 27.2254ZM7.64227 24.7054C5.98936 21.9191 5.41047 18.6252 6.0143 15.4423C6.61813 12.2594 8.36313 9.4064 10.9216 7.41904C13.4801 5.43169 16.6761 4.44669 19.9095 4.64902C23.1429 4.85135 26.1911 6.22708 28.4819 8.51788C30.7727 10.8087 32.1485 13.857 32.3508 17.0903C32.5531 20.3237 31.5681 23.5197 29.5808 26.0782C27.5934 28.6367 24.7404 30.3817 21.5575 30.9855C18.3746 31.5894 15.0807 31.0105 12.2944 29.3576C12.2944 29.3576 8.60774 30.4109 6.78202 30.933C6.68284 30.9612 6.57791 30.9624 6.47811 30.9365C6.3783 30.9106 6.28722 30.8584 6.21431 30.7855C6.14139 30.7126 6.08928 30.6215 6.06336 30.5217C6.03744 30.4219 6.03865 30.317 6.06688 30.2178C6.58893 28.3921 7.64227 24.7054 7.64227 24.7054Z" fill="white"/>
<path fill-rule="evenodd" clip-rule="evenodd" d="M12.7078 14.3293C12.8877 16.918 13.9925 19.3557 15.8206 21.1974C17.6487 23.0391 20.0782 24.1619 22.6655 24.3609H22.6666C23.0797 24.3929 23.4948 24.335 23.8834 24.1913C24.2721 24.0476 24.6249 23.8215 24.9178 23.5284L25.3214 23.1249C25.5119 22.9342 25.6189 22.6758 25.6191 22.4063V21.5495C25.6191 21.4421 25.5892 21.3368 25.5327 21.2454C25.4762 21.154 25.3955 21.0802 25.2994 21.0321C24.6906 20.728 23.369 20.0672 22.7215 19.7434C22.613 19.6891 22.4901 19.6704 22.3702 19.6898C22.2504 19.7092 22.1397 19.7658 22.0538 19.8515C21.7312 20.1741 21.2213 20.6846 20.9322 20.9731C20.865 21.0404 20.7821 21.0901 20.6911 21.1177C20.6 21.1453 20.5035 21.1501 20.4102 21.1315L20.405 21.1304C19.2857 20.9065 18.2578 20.3564 17.4507 19.5493C16.6436 18.7422 16.0935 17.7142 15.8696 16.595L15.8684 16.5898C15.8499 16.4964 15.8546 16.4 15.8823 16.3089C15.9099 16.2178 15.9596 16.135 16.0269 16.0677C16.3153 15.7787 16.8258 15.2687 17.1484 14.9462C17.2342 14.8603 17.2908 14.7496 17.3102 14.6297C17.3296 14.5099 17.3108 14.387 17.2565 14.2784C16.9328 13.6309 16.272 12.3093 15.9679 11.7006C15.9198 11.6045 15.8459 11.5237 15.7546 11.4673C15.6632 11.4108 15.5579 11.3809 15.4505 11.3809H14.722C14.5491 11.3809 14.378 11.4173 14.22 11.4876C14.0619 11.5579 13.9204 11.6606 13.8045 11.789C13.6883 11.9185 13.5548 12.0665 13.4207 12.2157C13.1682 12.4958 12.9748 12.8239 12.8518 13.1803C12.7289 13.5368 12.6789 13.9144 12.7049 14.2906C12.7061 14.3033 12.7067 14.316 12.7078 14.3293Z" fill="white"/>
</g>
<defs>
<clipPath id="clip0_2010_1555">
<rect width="37" height="37" fill="white"/>
</clipPath>
</defs>
</svg>
