<svg preserveAspectRatio="none" width="100%" height="100%" overflow="visible" style="display: block;" viewBox="0 0 1836.11 273.361" fill="none" xmlns="http://www.w3.org/2000/svg">
<g id="Group">
<g id="Group_2" opacity="0.1">
<path id="Vector" d="M1664.21 139.297H1033.83C979.394 139.297 935.262 183.442 935.262 237.897V247.23" stroke="url(#paint0_linear_2385_609)"/>
<path id="Vector_2" d="M1698.58 144.522H1068.21C1013.77 144.522 969.635 188.668 969.635 243.123V252.454" stroke="url(#paint1_linear_2385_609)"/>
<path id="Vector_3" d="M1732.98 149.751H1102.6C1048.16 149.751 1004.03 193.896 1004.03 248.351V257.683" stroke="url(#paint2_linear_2385_609)"/>
<path id="Vector_4" d="M1767.36 154.976H1136.98C1082.54 154.976 1038.41 199.121 1038.41 253.576V262.908" stroke="url(#paint3_linear_2385_609)"/>
<path id="Vector_5" d="M1801.74 160.205H1171.36C1116.92 160.205 1072.79 204.35 1072.79 258.805V268.137" stroke="url(#paint4_linear_2385_609)"/>
<path id="Vector_6" d="M1836.11 165.43H1205.74C1151.3 165.43 1107.17 209.575 1107.17 264.03V273.361" stroke="url(#paint5_linear_2385_609)"/>
<path id="Vector_7" d="M171.905 139.297H802.28C856.721 139.297 900.853 183.442 900.853 237.897L900.853 247.229" stroke="url(#paint6_linear_2385_609)"/>
<path id="Vector_8" d="M137.533 144.522H767.907C822.347 144.522 866.48 188.667 866.48 243.122V252.454" stroke="url(#paint7_linear_2385_609)"/>
<path id="Vector_9" d="M103.136 149.751H733.511C787.951 149.751 832.083 193.896 832.083 248.351V257.683" stroke="url(#paint8_linear_2385_609)"/>
<path id="Vector_10" d="M68.7547 154.976H699.13C753.57 154.976 797.702 199.121 797.702 253.576V262.908" stroke="url(#paint9_linear_2385_609)"/>
<path id="Vector_11" d="M34.377 160.205H664.752C719.192 160.205 763.324 204.35 763.324 258.805V268.137" stroke="url(#paint10_linear_2385_609)"/>
<path id="Vector_12" d="M0 165.43H630.376C684.816 165.43 728.948 209.575 728.948 264.03V273.361" stroke="url(#paint11_linear_2385_609)"/>
<path id="Vector_13" d="M1664.21 134.064H1033.83C979.394 134.064 935.262 89.9195 935.262 35.4642V26.1323" stroke="url(#paint12_linear_2385_609)"/>
<path id="Vector_14" d="M1698.58 128.84H1068.21C1013.77 128.84 969.635 84.6949 969.635 30.2396V20.9077" stroke="url(#paint13_linear_2385_609)"/>
<path id="Vector_15" d="M1732.98 123.61H1102.6C1048.16 123.61 1004.03 79.4657 1004.03 25.0105V15.6787" stroke="url(#paint14_linear_2385_609)"/>
<path id="Vector_16" d="M1767.36 118.386H1136.98C1082.54 118.386 1038.41 74.241 1038.41 19.7857V10.4536" stroke="url(#paint15_linear_2385_609)"/>
<path id="Vector_17" d="M1801.74 113.157H1171.36C1116.92 113.157 1072.79 69.0121 1072.79 14.5568V5.22512" stroke="url(#paint16_linear_2385_609)"/>
<path id="Vector_18" d="M1836.11 107.932H1205.74C1151.3 107.932 1107.17 63.7873 1107.17 9.33232V0" stroke="url(#paint17_linear_2385_609)"/>
<path id="Vector_19" d="M171.905 134.064H802.28C856.721 134.064 900.853 89.9195 900.853 35.4642L900.853 26.1323" stroke="url(#paint18_linear_2385_609)"/>
<path id="Vector_20" d="M137.533 128.839H767.907C822.347 128.839 866.48 84.6946 866.48 30.2393V20.9075" stroke="url(#paint19_linear_2385_609)"/>
<path id="Vector_21" d="M103.136 123.61H733.511C787.951 123.61 832.083 79.4658 832.083 25.0105V15.6787" stroke="url(#paint20_linear_2385_609)"/>
<path id="Vector_22" d="M68.7547 118.386H699.13C753.57 118.386 797.702 74.241 797.702 19.7857V10.4536" stroke="url(#paint21_linear_2385_609)"/>
<path id="Vector_23" d="M34.377 113.157H664.752C719.192 113.157 763.324 69.0121 763.324 14.5567V5.2251" stroke="url(#paint22_linear_2385_609)"/>
<path id="Vector_24" d="M4.62835e-05 107.932H630.376C684.816 107.932 728.948 63.7873 728.948 9.33232V2.44141e-06" stroke="url(#paint23_linear_2385_609)"/>
</g>
<path id="Vector_25" d="M704.731 136.602H1133.44" stroke="url(#paint24_linear_2385_609)"/>
<g id="Group_3" filter="url(#filter0_f_2385_609)">
<path id="Vector_26" d="M751 138.302C751.939 138.302 752.7 137.541 752.7 136.602C752.7 135.663 751.939 134.902 751 134.902C750.062 134.902 749.301 135.663 749.301 136.602C749.301 137.541 750.062 138.302 751 138.302Z" fill="var(--fill-0, white)"/>
</g>
<path id="Vector_27" d="M751 138.302C751.939 138.302 752.7 137.541 752.7 136.602C752.7 135.663 751.939 134.902 751 134.902C750.062 134.902 749.301 135.663 749.301 136.602C749.301 137.541 750.062 138.302 751 138.302Z" fill="var(--fill-0, white)"/>
<g id="Group_4" filter="url(#filter1_f_2385_609)">
<path id="Vector_28" d="M806.065 138.302C807.003 138.302 807.764 137.541 807.764 136.602C807.764 135.663 807.003 134.902 806.065 134.902C805.126 134.902 804.365 135.663 804.365 136.602C804.365 137.541 805.126 138.302 806.065 138.302Z" fill="var(--fill-0, white)"/>
</g>
<path id="Vector_29" d="M806.065 138.302C807.003 138.302 807.764 137.541 807.764 136.602C807.764 135.663 807.003 134.902 806.065 134.902C805.126 134.902 804.365 135.663 804.365 136.602C804.365 137.541 805.126 138.302 806.065 138.302Z" fill="var(--fill-0, white)"/>
<g id="Group_5" filter="url(#filter2_f_2385_609)">
<path id="Vector_30" d="M861.13 138.302C862.069 138.302 862.83 137.541 862.83 136.602C862.83 135.663 862.069 134.902 861.13 134.902C860.192 134.902 859.431 135.663 859.431 136.602C859.431 137.541 860.192 138.302 861.13 138.302Z" fill="var(--fill-0, white)"/>
</g>
<path id="Vector_31" d="M861.13 138.302C862.069 138.302 862.83 137.541 862.83 136.602C862.83 135.663 862.069 134.902 861.13 134.902C860.192 134.902 859.431 135.663 859.431 136.602C859.431 137.541 860.192 138.302 861.13 138.302Z" fill="var(--fill-0, white)"/>
<g id="Group_6" filter="url(#filter3_f_2385_609)">
<path id="Vector_32" d="M919.254 141.362C921.882 141.362 924.012 139.231 924.012 136.602C924.012 133.973 921.882 131.842 919.254 131.842C916.626 131.842 914.495 133.973 914.495 136.602C914.495 139.231 916.626 141.362 919.254 141.362Z" fill="var(--fill-0, white)"/>
</g>
<path id="Vector_33" d="M919.254 141.362C921.882 141.362 924.012 139.231 924.012 136.602C924.012 133.973 921.882 131.842 919.254 131.842C916.626 131.842 914.495 133.973 914.495 136.602C914.495 139.231 916.626 141.362 919.254 141.362Z" fill="var(--fill-0, white)"/>
<g id="Group_7" filter="url(#filter4_f_2385_609)">
<path id="Vector_34" d="M977.377 138.302C978.316 138.302 979.077 137.541 979.077 136.602C979.077 135.663 978.316 134.902 977.377 134.902C976.439 134.902 975.678 135.663 975.678 136.602C975.678 137.541 976.439 138.302 977.377 138.302Z" fill="var(--fill-0, white)"/>
</g>
<path id="Vector_35" d="M977.377 138.302C978.316 138.302 979.077 137.541 979.077 136.602C979.077 135.663 978.316 134.902 977.377 134.902C976.439 134.902 975.678 135.663 975.678 136.602C975.678 137.541 976.439 138.302 977.377 138.302Z" fill="var(--fill-0, white)"/>
<g id="Group_8" filter="url(#filter5_f_2385_609)">
<path id="Vector_36" d="M1032.44 138.302C1033.38 138.302 1034.14 137.541 1034.14 136.602C1034.14 135.663 1033.38 134.902 1032.44 134.902C1031.5 134.902 1030.74 135.663 1030.74 136.602C1030.74 137.541 1031.5 138.302 1032.44 138.302Z" fill="var(--fill-0, white)"/>
</g>
<path id="Vector_37" d="M1032.44 138.302C1033.38 138.302 1034.14 137.541 1034.14 136.602C1034.14 135.663 1033.38 134.902 1032.44 134.902C1031.5 134.902 1030.74 135.663 1030.74 136.602C1030.74 137.541 1031.5 138.302 1032.44 138.302Z" fill="var(--fill-0, white)"/>
<g id="Group_9" filter="url(#filter6_f_2385_609)">
<path id="Vector_38" d="M1087.51 138.302C1088.45 138.302 1089.21 137.541 1089.21 136.602C1089.21 135.663 1088.45 134.902 1087.51 134.902C1086.57 134.902 1085.81 135.663 1085.81 136.602C1085.81 137.541 1086.57 138.302 1087.51 138.302Z" fill="var(--fill-0, white)"/>
</g>
<path id="Vector_39" d="M1087.51 138.302C1088.45 138.302 1089.21 137.541 1089.21 136.602C1089.21 135.663 1088.45 134.902 1087.51 134.902C1086.57 134.902 1085.81 135.663 1085.81 136.602C1085.81 137.541 1086.57 138.302 1087.51 138.302Z" fill="var(--fill-0, white)"/>
<path id="Vector_40" d="M1132.03 118.602H703.754V187.282H1132.03V118.602Z" fill="url(#paint25_linear_2385_609)"/>
</g>
<defs>
<filter id="filter0_f_2385_609" x="735.301" y="120.902" width="31.399" height="31.4" filterUnits="userSpaceOnUse" color-interpolation-filters="sRGB">
<feFlood flood-opacity="0" result="BackgroundImageFix"/>
<feBlend mode="normal" in="SourceGraphic" in2="BackgroundImageFix" result="shape"/>
<feGaussianBlur stdDeviation="7" result="effect1_foregroundBlur_2385_609"/>
</filter>
<filter id="filter1_f_2385_609" x="790.365" y="120.902" width="31.399" height="31.4" filterUnits="userSpaceOnUse" color-interpolation-filters="sRGB">
<feFlood flood-opacity="0" result="BackgroundImageFix"/>
<feBlend mode="normal" in="SourceGraphic" in2="BackgroundImageFix" result="shape"/>
<feGaussianBlur stdDeviation="7" result="effect1_foregroundBlur_2385_609"/>
</filter>
<filter id="filter2_f_2385_609" x="845.431" y="120.902" width="31.399" height="31.4" filterUnits="userSpaceOnUse" color-interpolation-filters="sRGB">
<feFlood flood-opacity="0" result="BackgroundImageFix"/>
<feBlend mode="normal" in="SourceGraphic" in2="BackgroundImageFix" result="shape"/>
<feGaussianBlur stdDeviation="7" result="effect1_foregroundBlur_2385_609"/>
</filter>
<filter id="filter3_f_2385_609" x="900.495" y="117.842" width="37.5173" height="37.52" filterUnits="userSpaceOnUse" color-interpolation-filters="sRGB">
<feFlood flood-opacity="0" result="BackgroundImageFix"/>
<feBlend mode="normal" in="SourceGraphic" in2="BackgroundImageFix" result="shape"/>
<feGaussianBlur stdDeviation="7" result="effect1_foregroundBlur_2385_609"/>
</filter>
<filter id="filter4_f_2385_609" x="961.678" y="120.902" width="31.399" height="31.4" filterUnits="userSpaceOnUse" color-interpolation-filters="sRGB">
<feFlood flood-opacity="0" result="BackgroundImageFix"/>
<feBlend mode="normal" in="SourceGraphic" in2="BackgroundImageFix" result="shape"/>
<feGaussianBlur stdDeviation="7" result="effect1_foregroundBlur_2385_609"/>
</filter>
<filter id="filter5_f_2385_609" x="1016.74" y="120.902" width="31.399" height="31.4" filterUnits="userSpaceOnUse" color-interpolation-filters="sRGB">
<feFlood flood-opacity="0" result="BackgroundImageFix"/>
<feBlend mode="normal" in="SourceGraphic" in2="BackgroundImageFix" result="shape"/>
<feGaussianBlur stdDeviation="7" result="effect1_foregroundBlur_2385_609"/>
</filter>
<filter id="filter6_f_2385_609" x="1071.81" y="120.902" width="31.399" height="31.4" filterUnits="userSpaceOnUse" color-interpolation-filters="sRGB">
<feFlood flood-opacity="0" result="BackgroundImageFix"/>
<feBlend mode="normal" in="SourceGraphic" in2="BackgroundImageFix" result="shape"/>
<feGaussianBlur stdDeviation="7" result="effect1_foregroundBlur_2385_609"/>
</filter>
<linearGradient id="paint0_linear_2385_609" x1="1693.06" y1="106.549" x2="1648.52" y2="411.14" gradientUnits="userSpaceOnUse">
<stop/>
<stop offset="0.255" stop-color="#666666"/>
<stop offset="0.35" stop-color="white"/>
<stop offset="0.52" stop-color="#939393"/>
<stop offset="0.62" stop-color="#0E0E0E"/>
<stop offset="0.805" stop-color="#5E5E5E"/>
</linearGradient>
<linearGradient id="paint1_linear_2385_609" x1="1727.44" y1="111.774" x2="1682.9" y2="416.365" gradientUnits="userSpaceOnUse">
<stop/>
<stop offset="0.255" stop-color="#666666"/>
<stop offset="0.35" stop-color="white"/>
<stop offset="0.52" stop-color="#939393"/>
<stop offset="0.62" stop-color="#0E0E0E"/>
<stop offset="0.805" stop-color="#5E5E5E"/>
</linearGradient>
<linearGradient id="paint2_linear_2385_609" x1="1761.83" y1="117.002" x2="1717.29" y2="421.594" gradientUnits="userSpaceOnUse">
<stop/>
<stop offset="0.255" stop-color="#666666"/>
<stop offset="0.35" stop-color="white"/>
<stop offset="0.52" stop-color="#939393"/>
<stop offset="0.62" stop-color="#0E0E0E"/>
<stop offset="0.805" stop-color="#5E5E5E"/>
</linearGradient>
<linearGradient id="paint3_linear_2385_609" x1="1796.22" y1="122.227" x2="1751.68" y2="426.818" gradientUnits="userSpaceOnUse">
<stop/>
<stop offset="0.255" stop-color="#666666"/>
<stop offset="0.35" stop-color="white"/>
<stop offset="0.52" stop-color="#939393"/>
<stop offset="0.62" stop-color="#0E0E0E"/>
<stop offset="0.805" stop-color="#5E5E5E"/>
</linearGradient>
<linearGradient id="paint4_linear_2385_609" x1="1830.59" y1="127.456" x2="1786.06" y2="432.047" gradientUnits="userSpaceOnUse">
<stop/>
<stop offset="0.255" stop-color="#666666"/>
<stop offset="0.35" stop-color="white"/>
<stop offset="0.52" stop-color="#939393"/>
<stop offset="0.62" stop-color="#0E0E0E"/>
<stop offset="0.805" stop-color="#5E5E5E"/>
</linearGradient>
<linearGradient id="paint5_linear_2385_609" x1="1864.97" y1="132.681" x2="1820.43" y2="437.272" gradientUnits="userSpaceOnUse">
<stop/>
<stop offset="0.255" stop-color="#666666"/>
<stop offset="0.35" stop-color="white"/>
<stop offset="0.52" stop-color="#939393"/>
<stop offset="0.62" stop-color="#0E0E0E"/>
<stop offset="0.805" stop-color="#5E5E5E"/>
</linearGradient>
<linearGradient id="paint6_linear_2385_609" x1="143.051" y1="106.549" x2="187.589" y2="411.14" gradientUnits="userSpaceOnUse">
<stop/>
<stop offset="0.255" stop-color="#666666"/>
<stop offset="0.35" stop-color="white"/>
<stop offset="0.52" stop-color="#939393"/>
<stop offset="0.62" stop-color="#0E0E0E"/>
<stop offset="0.805" stop-color="#5E5E5E"/>
</linearGradient>
<linearGradient id="paint7_linear_2385_609" x1="108.678" y1="111.774" x2="153.216" y2="416.365" gradientUnits="userSpaceOnUse">
<stop/>
<stop offset="0.255" stop-color="#666666"/>
<stop offset="0.35" stop-color="white"/>
<stop offset="0.52" stop-color="#939393"/>
<stop offset="0.62" stop-color="#0E0E0E"/>
<stop offset="0.805" stop-color="#5E5E5E"/>
</linearGradient>
<linearGradient id="paint8_linear_2385_609" x1="74.2819" y1="117.002" x2="118.82" y2="421.594" gradientUnits="userSpaceOnUse">
<stop/>
<stop offset="0.255" stop-color="#666666"/>
<stop offset="0.35" stop-color="white"/>
<stop offset="0.52" stop-color="#939393"/>
<stop offset="0.62" stop-color="#0E0E0E"/>
<stop offset="0.805" stop-color="#5E5E5E"/>
</linearGradient>
<linearGradient id="paint9_linear_2385_609" x1="39.9001" y1="122.227" x2="84.4384" y2="426.818" gradientUnits="userSpaceOnUse">
<stop/>
<stop offset="0.255" stop-color="#666666"/>
<stop offset="0.35" stop-color="white"/>
<stop offset="0.52" stop-color="#939393"/>
<stop offset="0.62" stop-color="#0E0E0E"/>
<stop offset="0.805" stop-color="#5E5E5E"/>
</linearGradient>
<linearGradient id="paint10_linear_2385_609" x1="5.5204" y1="127.456" x2="50.06" y2="432.047" gradientUnits="userSpaceOnUse">
<stop/>
<stop offset="0.255" stop-color="#666666"/>
<stop offset="0.35" stop-color="white"/>
<stop offset="0.52" stop-color="#939393"/>
<stop offset="0.62" stop-color="#0E0E0E"/>
<stop offset="0.805" stop-color="#5E5E5E"/>
</linearGradient>
<linearGradient id="paint11_linear_2385_609" x1="-28.8512" y1="132.681" x2="15.6871" y2="437.272" gradientUnits="userSpaceOnUse">
<stop/>
<stop offset="0.255" stop-color="#666666"/>
<stop offset="0.35" stop-color="white"/>
<stop offset="0.52" stop-color="#939393"/>
<stop offset="0.62" stop-color="#0E0E0E"/>
<stop offset="0.805" stop-color="#5E5E5E"/>
</linearGradient>
<linearGradient id="paint12_linear_2385_609" x1="1693.06" y1="166.813" x2="1648.52" y2="-137.778" gradientUnits="userSpaceOnUse">
<stop/>
<stop offset="0.255" stop-color="#666666"/>
<stop offset="0.35" stop-color="white"/>
<stop offset="0.52" stop-color="#939393"/>
<stop offset="0.62" stop-color="#0E0E0E"/>
<stop offset="0.805" stop-color="#5E5E5E"/>
</linearGradient>
<linearGradient id="paint13_linear_2385_609" x1="1727.44" y1="161.588" x2="1682.9" y2="-143.003" gradientUnits="userSpaceOnUse">
<stop/>
<stop offset="0.255" stop-color="#666666"/>
<stop offset="0.35" stop-color="white"/>
<stop offset="0.52" stop-color="#939393"/>
<stop offset="0.62" stop-color="#0E0E0E"/>
<stop offset="0.805" stop-color="#5E5E5E"/>
</linearGradient>
<linearGradient id="paint14_linear_2385_609" x1="1761.83" y1="156.359" x2="1717.29" y2="-148.232" gradientUnits="userSpaceOnUse">
<stop/>
<stop offset="0.255" stop-color="#666666"/>
<stop offset="0.35" stop-color="white"/>
<stop offset="0.52" stop-color="#939393"/>
<stop offset="0.62" stop-color="#0E0E0E"/>
<stop offset="0.805" stop-color="#5E5E5E"/>
</linearGradient>
<linearGradient id="paint15_linear_2385_609" x1="1796.22" y1="151.134" x2="1751.68" y2="-153.457" gradientUnits="userSpaceOnUse">
<stop/>
<stop offset="0.255" stop-color="#666666"/>
<stop offset="0.35" stop-color="white"/>
<stop offset="0.52" stop-color="#939393"/>
<stop offset="0.62" stop-color="#0E0E0E"/>
<stop offset="0.805" stop-color="#5E5E5E"/>
</linearGradient>
<linearGradient id="paint16_linear_2385_609" x1="1830.59" y1="145.905" x2="1786.06" y2="-158.685" gradientUnits="userSpaceOnUse">
<stop/>
<stop offset="0.255" stop-color="#666666"/>
<stop offset="0.35" stop-color="white"/>
<stop offset="0.52" stop-color="#939393"/>
<stop offset="0.62" stop-color="#0E0E0E"/>
<stop offset="0.805" stop-color="#5E5E5E"/>
</linearGradient>
<linearGradient id="paint17_linear_2385_609" x1="1864.97" y1="140.681" x2="1820.43" y2="-163.91" gradientUnits="userSpaceOnUse">
<stop/>
<stop offset="0.255" stop-color="#666666"/>
<stop offset="0.35" stop-color="white"/>
<stop offset="0.52" stop-color="#939393"/>
<stop offset="0.62" stop-color="#0E0E0E"/>
<stop offset="0.805" stop-color="#5E5E5E"/>
</linearGradient>
<linearGradient id="paint18_linear_2385_609" x1="143.051" y1="166.813" x2="187.589" y2="-137.778" gradientUnits="userSpaceOnUse">
<stop/>
<stop offset="0.255" stop-color="#666666"/>
<stop offset="0.35" stop-color="white"/>
<stop offset="0.52" stop-color="#939393"/>
<stop offset="0.62" stop-color="#0E0E0E"/>
<stop offset="0.805" stop-color="#5E5E5E"/>
</linearGradient>
<linearGradient id="paint19_linear_2385_609" x1="108.678" y1="161.588" x2="153.216" y2="-143.003" gradientUnits="userSpaceOnUse">
<stop/>
<stop offset="0.255" stop-color="#666666"/>
<stop offset="0.35" stop-color="white"/>
<stop offset="0.52" stop-color="#939393"/>
<stop offset="0.62" stop-color="#0E0E0E"/>
<stop offset="0.805" stop-color="#5E5E5E"/>
</linearGradient>
<linearGradient id="paint20_linear_2385_609" x1="74.2819" y1="156.359" x2="118.819" y2="-148.232" gradientUnits="userSpaceOnUse">
<stop/>
<stop offset="0.255" stop-color="#666666"/>
<stop offset="0.35" stop-color="white"/>
<stop offset="0.52" stop-color="#939393"/>
<stop offset="0.62" stop-color="#0E0E0E"/>
<stop offset="0.805" stop-color="#5E5E5E"/>
</linearGradient>
<linearGradient id="paint21_linear_2385_609" x1="39.9001" y1="151.134" x2="84.4384" y2="-153.457" gradientUnits="userSpaceOnUse">
<stop/>
<stop offset="0.255" stop-color="#666666"/>
<stop offset="0.35" stop-color="white"/>
<stop offset="0.52" stop-color="#939393"/>
<stop offset="0.62" stop-color="#0E0E0E"/>
<stop offset="0.805" stop-color="#5E5E5E"/>
</linearGradient>
<linearGradient id="paint22_linear_2385_609" x1="5.52039" y1="145.905" x2="50.06" y2="-158.685" gradientUnits="userSpaceOnUse">
<stop/>
<stop offset="0.255" stop-color="#666666"/>
<stop offset="0.35" stop-color="white"/>
<stop offset="0.52" stop-color="#939393"/>
<stop offset="0.62" stop-color="#0E0E0E"/>
<stop offset="0.805" stop-color="#5E5E5E"/>
</linearGradient>
<linearGradient id="paint23_linear_2385_609" x1="-28.8511" y1="140.681" x2="15.6872" y2="-163.91" gradientUnits="userSpaceOnUse">
<stop/>
<stop offset="0.255" stop-color="#666666"/>
<stop offset="0.35" stop-color="white"/>
<stop offset="0.52" stop-color="#939393"/>
<stop offset="0.62" stop-color="#0E0E0E"/>
<stop offset="0.805" stop-color="#5E5E5E"/>
</linearGradient>
<linearGradient id="paint24_linear_2385_609" x1="-nan" y1="-nan" x2="-nan" y2="-nan" gradientUnits="userSpaceOnUse">
<stop/>
<stop offset="0.500136" stop-color="white"/>
<stop offset="1"/>
</linearGradient>
<linearGradient id="paint25_linear_2385_609" x1="910.416" y1="166.881" x2="909.736" y2="129.482" gradientUnits="userSpaceOnUse">
<stop stop-color="#0D0D0E"/>
<stop offset="1" stop-color="#0D0D0E" stop-opacity="0"/>
</linearGradient>
</defs>
</svg>
