<svg preserveAspectRatio="none" width="100%" height="100%" overflow="visible" style="display: block;" viewBox="0 0 48 48" fill="none" xmlns="http://www.w3.org/2000/svg">
<g id="Group 1261156782">
<circle id="Ellipse 2875" cx="24" cy="24" r="24" fill="var(--fill-0, #922A8E)"/>
<g id="Group 1261156781">
<path id="Vector" d="M26.1578 15.3064C25.3794 14.0327 23.7163 13.6309 22.443 14.4091C21.1697 15.1872 20.7685 16.8505 21.5469 18.1242L30.9797 33.5594C31.7581 34.8331 33.4213 35.2348 34.6945 34.4567C35.9678 33.6786 36.369 32.0153 35.5906 30.7416L26.1578 15.3064Z" fill="var(--fill-0, white)"/>
<path id="Vector_2" d="M26.3051 30.8676C26.1504 30.5639 25.9659 30.2711 25.7833 29.9818L21.6945 23.5051C21.3553 22.9628 21.005 22.4205 20.5018 22.0138C19.943 21.5954 19.2519 21.3781 18.5463 21.3988C17.8408 21.4196 17.1645 21.6772 16.6329 22.1276C16.2881 22.4608 15.9899 22.8364 15.7458 23.2448C15.2911 23.9449 14.8562 24.6577 14.4413 25.3832C13.6958 26.7118 13.2355 28.0459 13.6958 29.5408C13.8877 30.1686 14.2063 30.7532 14.6331 31.2605C15.0598 31.7679 15.5863 32.188 16.1819 32.4963L16.2173 32.5143C17.2721 33.0331 18.4798 33.1723 19.5718 33.6116C20.9584 34.1665 22.2126 35.215 23.7128 35.2095C24.2057 35.2048 24.6901 35.0845 25.1246 34.8588C25.5592 34.6331 25.931 34.3088 26.2082 33.9135C26.6271 33.2952 26.7845 32.5444 26.648 31.8166C26.5793 31.4865 26.4639 31.1671 26.3051 30.8676Z" fill="var(--fill-0, white)"/>
<path id="Vector_3" d="M12.7817 28.9312C12.3059 29.6052 11.8669 30.2986 11.4648 31.0114C11.1181 31.6248 10.9115 32.2263 11.0369 32.9237C11.1598 33.6142 11.5634 34.2346 12.1643 34.6568C12.7653 35.0789 13.5177 35.2706 14.2664 35.1923C15.3527 35.0775 16.2694 34.423 17.2782 34.0357C16.0905 33.6376 15.0255 32.9759 14.176 32.108C13.3255 31.2333 12.8321 30.1091 12.7817 28.9312Z" fill="var(--fill-0, white)"/>
</g>
</g>
</svg>
