<svg preserveAspectRatio="none" width="100%" height="100%" overflow="visible" style="display: block;" viewBox="0 0 26.0002 22.8655" fill="none" xmlns="http://www.w3.org/2000/svg">
<g id="Group 1261156780">
<path id="Vector" d="M15.1578 2.30637C14.3794 1.03268 12.7163 0.630934 11.443 1.40906C10.1697 2.18718 9.76854 3.85051 10.5469 5.1242L19.9797 20.5594C20.7581 21.8331 22.4213 22.2348 23.6945 21.4567C24.9678 20.6786 25.369 19.0153 24.5906 17.7416L15.1578 2.30637Z" fill="var(--fill-0, white)"/>
<path id="Vector_2" d="M15.3051 17.8676C15.1504 17.5639 14.9659 17.2711 14.7833 16.9818L10.6945 10.5051C10.3553 9.96277 10.005 9.42048 9.50179 9.01376C8.94301 8.59539 8.25189 8.37805 7.54633 8.39882C6.84077 8.41959 6.1645 8.67718 5.63291 9.12764C5.28812 9.46079 4.98988 9.83636 4.74582 10.2448C4.2911 10.9449 3.85625 11.6577 3.44128 12.3832C2.69583 13.7118 2.23552 15.0459 2.69583 16.5408C2.88769 17.1686 3.20627 17.7532 3.63305 18.2605C4.05984 18.7679 4.58632 19.188 5.18191 19.4963L5.21732 19.5143C6.27213 20.0331 7.47976 20.1723 8.57184 20.6116C9.95838 21.1665 11.2126 22.215 12.7128 22.2095C13.2057 22.2048 13.6901 22.0845 14.1246 21.8588C14.5592 21.6331 14.931 21.3088 15.2082 20.9135C15.6271 20.2952 15.7845 19.5444 15.648 18.8166C15.5793 18.4865 15.4639 18.1671 15.3051 17.8676Z" fill="var(--fill-0, white)"/>
<path id="Vector_3" d="M1.7817 15.9312C1.30586 16.6052 0.866904 17.2986 0.464835 18.0114C0.118098 18.6248 -0.0884695 19.2263 0.0369462 19.9237C0.15983 20.6142 0.563391 21.2346 1.16433 21.6568C1.76528 22.0789 2.51774 22.2706 3.2664 22.1923C4.35272 22.0775 5.26937 21.423 6.27822 21.0357C5.09051 20.6376 4.02554 19.9759 3.17603 19.108C2.3255 18.2333 1.83209 17.1091 1.7817 15.9312Z" fill="var(--fill-0, white)"/>
</g>
</svg>
